<?xml version="1.0" encoding="UTF-8"?>
<svg version="1.1" xmlns="http://www.w3.org/2000/svg" width="512" height="512">
<path d="M0 0 C1.24747847 -0.00445784 2.49495694 -0.00891569 3.78023779 -0.01350862 C5.17223971 -0.01341932 6.56424162 -0.01322946 7.95624352 -0.01294994 C9.42909797 -0.01624855 10.90195151 -0.01997411 12.3748039 -0.02409142 C16.43241512 -0.03412004 20.49001155 -0.0378296 24.54763341 -0.04048073 C28.91998821 -0.04438126 33.29233126 -0.05395981 37.66467857 -0.0626936 C48.22937488 -0.08246568 58.79407216 -0.09252541 69.35878235 -0.10142139 C74.33262925 -0.10580329 79.30647507 -0.11117037 84.28032112 -0.11641026 C100.81263635 -0.13342369 117.34495092 -0.14791797 133.87727356 -0.155159 C138.16851998 -0.15706893 142.4597664 -0.15898925 146.7510128 -0.16094494 C148.35088699 -0.16167055 148.35088699 -0.16167055 149.98308186 -0.16241082 C167.26186942 -0.17071149 184.54058775 -0.19604854 201.81934507 -0.22852562 C219.55502953 -0.26159 237.2906788 -0.27960722 255.02639425 -0.28280324 C264.98596066 -0.28496897 274.94542615 -0.29372679 284.90496254 -0.31926441 C293.38693867 -0.34096296 301.86878936 -0.34902601 310.3507901 -0.33929763 C314.67799338 -0.33475041 319.0049378 -0.33666362 323.33210564 -0.35605907 C327.29621055 -0.3736736 331.25986745 -0.37270713 335.22397701 -0.35716178 C336.6554028 -0.35478309 338.08685946 -0.35912293 339.51823802 -0.37099043 C347.60455479 -0.43386234 354.00851111 -0.01279499 361.06497765 4.13422108 C362.35275108 4.87285389 362.35275108 4.87285389 363.66654015 5.62640858 C365.82254306 7.09981597 367.95601812 8.59410018 370.06497765 10.13422108 C370.69532921 10.58539295 371.32568077 11.03656483 371.9751339 11.50140858 C380.78018615 18.35193275 385.57030284 29.28117477 387.06497765 40.13422108 C387.15315797 42.18974597 387.19397324 44.247654 387.19640541 46.30506802 C387.20024656 47.52880237 387.2040877 48.75253673 387.20804524 50.01335394 C387.20726511 51.36302008 387.20638634 52.71268616 387.20541954 54.06235218 C387.20800482 55.50265913 387.21101844 56.94296537 387.21442294 58.38327062 C387.22247709 62.33710161 387.22428163 66.29091443 387.22502041 70.24475265 C387.22687373 74.51077017 387.23442249 78.77677832 387.24115562 83.04279041 C387.25472835 92.36938838 387.26076205 101.69598205 387.26516628 111.02258825 C387.26793058 116.84836798 387.27216828 122.67414605 387.27667046 128.49992466 C387.28886188 144.63603645 387.29916135 160.77214691 387.30254555 176.90826321 C387.30276511 177.94069767 387.30298468 178.97313214 387.3032109 180.0368525 C387.30342918 181.07173019 387.30364745 182.10660787 387.30387235 183.17284548 C387.30431581 185.26983396 387.30476237 187.36682244 387.30521202 189.46381092 C387.30543345 190.50398536 387.30565488 191.54415979 387.30588302 192.61585467 C387.30982997 209.4656209 387.32728143 226.31534386 387.35057154 243.16509338 C387.3743009 260.47261292 387.38674813 277.78011077 387.38791347 295.08764684 C387.38882935 304.80188153 387.39455983 314.51605984 387.41273308 324.23027897 C387.42815546 332.50311025 387.43324193 340.77586773 387.42499498 349.04871066 C387.42109601 353.26689966 387.42198114 357.4849401 387.43605232 361.70311069 C387.44883651 365.57096967 387.44755441 369.43856916 387.43546161 373.306428 C387.4335124 374.69945678 387.43654688 376.09250424 387.44530597 377.48550685 C387.53227308 392.26174666 384.94152043 405.31491883 374.78372765 416.50922108 C362.66454624 427.96735623 348.94585636 429.2875169 333.07906151 429.26793385 C331.64471591 429.26980334 330.21037083 429.2721046 328.77602655 429.27479917 C324.8433946 429.28090638 320.91078395 429.28078485 316.97814834 429.27960479 C312.73332001 429.27940051 308.48849848 429.28492212 304.24367332 429.28966236 C295.93068997 429.29796347 287.61771371 429.30071696 279.30472656 429.30127474 C272.54677795 429.30175014 265.78883167 429.30380608 259.03088379 429.30697536 C239.86543639 429.31578032 220.69999458 429.32039497 201.53454515 429.31964489 C200.50165574 429.31960493 199.46876634 429.31956498 198.40457726 429.31952381 C196.85334877 429.31946249 196.85334877 429.31946249 195.27078233 429.31939993 C178.51027025 429.31899346 161.74978064 429.32856356 144.98927506 429.34266218 C127.77439465 429.35702861 110.5595252 429.36393222 93.34463865 429.3630684 C83.68191696 429.36273653 74.01921882 429.36547921 64.35650253 429.37624645 C56.1297618 429.38535493 47.90305529 429.38752382 39.67631169 429.38073703 C35.48067315 429.37747364 31.28510028 429.37740862 27.089468 429.38609028 C23.24462186 429.39396413 19.39989336 429.39251483 15.55505005 429.38380615 C14.1681452 429.38227311 12.78123153 429.38407988 11.39433708 429.38966622 C-3.81579076 429.44684798 -17.64408832 427.13248341 -29.12252235 416.22797108 C-39.66277047 404.05216722 -41.39570967 390.0234808 -41.31597328 374.44696522 C-41.31943828 373.00957638 -41.32420845 371.57219021 -41.33015501 370.13480949 C-41.34257917 366.22145755 -41.33653422 362.30832751 -41.32719636 358.39497519 C-41.32037067 354.16040865 -41.33090444 349.9258786 -41.33913612 345.69131947 C-41.3524383 337.41021132 -41.34961144 329.129185 -41.3408982 320.84807372 C-41.33410818 314.11460212 -41.33321063 307.38115337 -41.33646965 300.64767933 C-41.33692935 299.68736838 -41.33738905 298.72705744 -41.33786268 297.73764616 C-41.33882191 295.78646461 -41.33979455 293.83528305 -41.34078045 291.88410151 C-41.34932405 273.61100027 -41.3395164 255.33794427 -41.32337935 237.06485045 C-41.30997711 221.40403208 -41.3123055 205.74328043 -41.32613564 190.08246326 C-41.34220967 171.87233953 -41.34850017 153.66225539 -41.33929884 135.45212555 C-41.33834325 133.50833798 -41.33740014 131.56455041 -41.33646965 129.62076283 C-41.33600682 128.66451655 -41.335544 127.70827027 -41.33506715 126.72304684 C-41.33248273 120.0018697 -41.33683641 113.28071779 -41.34390831 106.55954456 C-41.35234379 98.36265776 -41.35000023 90.16585708 -41.33406608 81.96898007 C-41.32621086 77.79113131 -41.32304455 73.61342587 -41.33301353 69.43557835 C-41.34201832 65.60370792 -41.33693354 61.77211233 -41.32108088 57.94026649 C-41.31619507 55.91348217 -41.32587754 53.88667844 -41.33625257 51.85991478 C-41.25602481 39.2452952 -39.33079115 28.52622441 -31.93502235 18.13422108 C-31.19252235 17.08234608 -30.45002235 16.03047108 -29.68502235 14.94672108 C-21.92714136 7.0125246 -11.30893729 0.01870255 0 0 Z " fill="#123743" transform="translate(82.93502235412598,52.86577892303467)"/>
<path d="M0 0 C0.66 0.33 1.32 0.66 2 1 C1.2575 1.804375 0.515 2.60875 -0.25 3.4375 C-7.09326581 11.83311574 -7.58008549 20.01729098 -7.50793457 30.56809998 C-7.51254874 32.04130053 -7.51890511 33.51449648 -7.52684355 34.98768288 C-7.54348955 39.01853086 -7.5353122 43.04899839 -7.52289867 47.07984746 C-7.51383096 51.43373023 -7.52782649 55.78754857 -7.53881836 60.14141846 C-7.55659026 68.66405866 -7.55276939 77.18655784 -7.5411678 85.70920353 C-7.53212793 92.63730958 -7.53091187 99.56537615 -7.53526306 106.4934864 C-7.53587599 107.48018373 -7.53648893 108.46688105 -7.53712043 109.4834783 C-7.53839936 111.48805619 -7.53969621 113.49263407 -7.5410108 115.49721194 C-7.55241286 134.28764626 -7.53930906 153.07800249 -7.51780933 171.86842401 C-7.49994147 187.98336671 -7.50304062 204.09819414 -7.52148438 220.21313477 C-7.54290247 238.93557017 -7.55131133 257.65793713 -7.53903532 276.38038307 C-7.53776115 278.37782132 -7.53650367 280.37525957 -7.53526306 282.37269783 C-7.53433741 283.84678586 -7.53433741 283.84678586 -7.53339306 285.35065345 C-7.52994277 292.26806649 -7.53576163 299.18543603 -7.54518127 306.10284233 C-7.55641318 314.536357 -7.55333626 322.9697228 -7.5320583 331.40322047 C-7.5215635 335.70424611 -7.51739913 340.00502376 -7.53065491 344.30604744 C-7.54261751 348.24716883 -7.53595309 352.18781351 -7.5147447 356.12889195 C-7.5102949 357.55072477 -7.51250828 358.97259828 -7.52224785 360.3944047 C-7.59389774 371.72785258 -6.00403666 380.75894132 1.9296875 389.2421875 C7.94635609 394.3506797 15.07686071 397.12120198 22.9009943 397.13422108 C24.76083677 397.14090784 24.76083677 397.14090784 26.65825182 397.14772969 C28.04170423 397.14764039 29.42515663 397.14745054 30.80860901 397.14717102 C32.27250117 397.15046965 33.73639242 397.15419521 35.20028251 397.1583125 C39.23315998 397.16834097 43.26602257 397.17205066 47.29891074 397.17470181 C51.64469958 397.17860242 55.99047662 397.188181 60.33625793 397.19691467 C70.83718443 397.21668721 81.33811189 397.22674684 91.83905235 397.23564246 C96.78338252 397.24002455 101.72771162 397.24539161 106.67204094 397.25063133 C123.10741866 397.26764531 139.54279571 397.28213922 155.97818089 397.28938007 C160.24432437 397.29128999 164.51046786 397.29321032 168.77661133 397.29516602 C169.83695058 397.29564976 170.89728983 397.2961335 171.98976057 397.2966319 C189.16440835 397.30493118 206.33898646 397.33026563 223.51360381 397.36274669 C241.14420195 397.39581837 258.77476469 397.41382898 276.40539402 397.41702431 C286.30518884 397.41918944 296.20488209 397.42793833 306.10464668 397.45348549 C314.53645544 397.47519405 322.96813796 397.48324217 331.39997149 397.47351871 C335.70097083 397.4689743 340.00170973 397.47086828 344.30267334 397.49028015 C348.24400944 397.50791494 352.18489517 397.50691175 356.12623607 397.49138286 C357.54825848 397.48900723 358.9703121 397.49332806 360.39228684 397.50521151 C371.80087701 397.59460886 380.73121103 395.99411555 389.2421875 388 C394.80896398 381.66624542 397.11759134 375.29079091 397.1398077 366.96592712 C397.14549894 365.7217911 397.15119018 364.47765507 397.15705389 363.19581795 C397.15834649 361.81275568 397.15953452 360.4296933 397.16062927 359.04663086 C397.16536068 357.57917585 397.17051165 356.11172214 397.17604691 354.64426994 C397.18995293 350.60611582 397.19753658 346.56797072 397.2040199 342.52979875 C397.21039173 339.06744727 397.22046174 335.60511058 397.23058056 332.14276832 C397.26390285 320.73498523 397.2854261 309.32719314 397.30378041 297.91937733 C397.30857597 294.94851723 397.31355922 291.9776575 397.31858563 289.00679779 C397.34955822 270.55525936 397.37624159 252.10371779 397.39300442 233.65216064 C397.39695387 229.37829584 397.40095687 225.10443109 397.4050293 220.83056641 C397.40654184 219.23720679 397.40654184 219.23720679 397.40808494 217.6116581 C397.42508686 200.4092876 397.46619082 183.20706108 397.51705229 166.00476086 C397.5688504 148.34022287 397.5979496 130.67575889 397.6052013 113.01114559 C397.60986085 103.09447476 397.62458382 93.17803967 397.6649456 83.26144409 C397.69928339 74.81467465 397.71316975 66.3681835 397.70052146 57.92134827 C397.69470329 53.61389131 397.69849858 49.30702264 397.7286911 44.99965477 C397.75614903 41.05005716 397.75548438 37.10146311 397.73318065 33.15184224 C397.72997071 31.72913175 397.73674989 30.3063529 397.75497787 28.88375556 C397.89328756 17.38491717 395.09070786 9.07179443 388 0 C397.64576428 4.54909407 402.94894769 12.50712895 406.8125 22.25 C408.51033764 27.61159254 409.12479417 32.55937573 409.13142776 38.17084694 C409.13526891 39.3945813 409.13911005 40.61831565 409.1430676 41.87913287 C409.14228746 43.228799 409.1414087 44.57846509 409.14044189 45.9281311 C409.14302718 47.36843806 409.14604079 48.80874429 409.1494453 50.24904954 C409.15749945 54.20288053 409.15930398 58.15669335 409.16004276 62.11053157 C409.16189609 66.37654909 409.16944484 70.64255725 409.17617798 74.90856934 C409.1897507 84.23516731 409.19578441 93.56176097 409.20018864 102.88836718 C409.20295293 108.7141469 409.20719063 114.53992497 409.21169281 120.36570358 C409.22388424 136.50181537 409.23418371 152.63792584 409.2375679 168.77404213 C409.23778747 169.8064766 409.23800703 170.83891106 409.23823325 171.90263142 C409.23845153 172.93750911 409.23866981 173.97238679 409.2388947 175.03862441 C409.23933816 177.13561289 409.23978473 179.23260137 409.24023438 181.32958984 C409.2404558 182.36976428 409.24067723 183.40993872 409.24090537 184.48163359 C409.24485233 201.33139982 409.26230378 218.18112278 409.2855939 235.0308723 C409.30932325 252.33839185 409.32177048 269.64588969 409.32293582 286.95342577 C409.3238517 296.66766045 409.32958219 306.38183876 409.34775543 316.09605789 C409.36317781 324.36888918 409.36826428 332.64164665 409.36001733 340.91448958 C409.35611836 345.13267858 409.35700349 349.35071903 409.37107468 353.56888962 C409.38385886 357.43674859 409.38257676 361.30434808 409.37048396 365.17220692 C409.36853475 366.56523571 409.37156924 367.95828316 409.38032833 369.35128577 C409.46729543 384.12752558 406.87654278 397.18069775 396.71875 408.375 C384.59956859 419.83313515 370.88087871 421.15329583 355.01408386 421.13371277 C353.57973827 421.13558227 352.14539318 421.13788352 350.7110489 421.14057809 C346.77841695 421.1466853 342.8458063 421.14656377 338.9131707 421.14538372 C334.66834237 421.14517944 330.42352083 421.15070105 326.17869568 421.15544128 C317.86571233 421.16374239 309.55273607 421.16649588 301.23974892 421.16705366 C294.4818003 421.16752906 287.72385402 421.169585 280.96590614 421.17275429 C261.80045874 421.18155925 242.63501694 421.18617389 223.4695675 421.18542381 C222.4366781 421.18538386 221.40378869 421.1853439 220.33959961 421.18530273 C218.78837112 421.18524141 218.78837112 421.18524141 217.20580468 421.18517885 C200.44529261 421.18477239 183.68480299 421.19434249 166.92429741 421.2084411 C149.70941701 421.22280753 132.49454755 421.22971114 115.279661 421.22884732 C105.61693931 421.22851546 95.95424117 421.23125814 86.29152489 421.24202538 C78.06478415 421.25113385 69.83807765 421.25330274 61.61133405 421.24651595 C57.41569551 421.24325257 53.22012264 421.24318754 49.02449036 421.2518692 C45.17964421 421.25974306 41.33491571 421.25829375 37.49007241 421.24958507 C36.10316755 421.24805204 34.71625388 421.2498588 33.32935943 421.25544515 C18.11923159 421.3126269 4.29093403 418.99826233 -7.1875 408.09375 C-17.72774812 395.91794614 -19.46068731 381.88925972 -19.38095093 366.31274414 C-19.38441593 364.8753553 -19.3891861 363.43796913 -19.39513266 362.00058842 C-19.40755682 358.08723647 -19.40151186 354.17410643 -19.39217401 350.26075411 C-19.38534832 346.02618757 -19.39588208 341.79165752 -19.40411377 337.55709839 C-19.41741595 329.27599024 -19.41458909 320.99496392 -19.40587585 312.71385264 C-19.39908583 305.98038105 -19.39818827 299.24693229 -19.4014473 292.51345825 C-19.401907 291.55314731 -19.40236669 290.59283636 -19.40284032 289.60342509 C-19.40379955 287.65224353 -19.40477219 285.70106198 -19.4057581 283.74988043 C-19.41430169 265.47677919 -19.40449405 247.20372319 -19.388357 228.93062937 C-19.37495476 213.269811 -19.37728314 197.60905936 -19.39111328 181.94824219 C-19.40718732 163.73811845 -19.41347782 145.52803431 -19.40427649 127.31790447 C-19.4033209 125.3741169 -19.40237778 123.43032933 -19.4014473 121.48654175 C-19.40098447 120.53029547 -19.40052164 119.5740492 -19.40004479 118.58882576 C-19.39746037 111.86764863 -19.40181405 105.14649672 -19.40888596 98.42532349 C-19.41732144 90.22843668 -19.41497788 82.031636 -19.39904372 73.834759 C-19.3911885 69.65691024 -19.3880222 65.4792048 -19.39799118 61.30135727 C-19.40699596 57.46948684 -19.40191119 53.63789126 -19.38605852 49.80604541 C-19.38117272 47.77926109 -19.39085519 45.75245736 -19.40123022 43.7256937 C-19.30178398 28.08925506 -15.73965806 15.5657856 -5 4 C-3.36927384 2.62294236 -1.7133562 1.27277889 0 0 Z " fill="#000000" transform="translate(61,61)"/>
<path d="M0 0 C9.9 0 19.8 0 30 0 C30.99 2.31 31.98 4.62 33 7 C33.99414593 8.67016516 34.9935725 10.33720673 36 12 C36.67966676 13.66140763 37.34938905 15.32700041 38 17 C39.61780157 18.61780157 41.45635518 18.22272147 43.69140625 18.31640625 C44.63564453 18.35830078 45.57988281 18.40019531 46.55273438 18.44335938 C48.04256836 18.50233398 48.04256836 18.50233398 49.5625 18.5625 C50.55958984 18.60568359 51.55667969 18.64886719 52.58398438 18.69335938 C55.0558415 18.79980298 57.5278031 18.90181928 60 19 C59.125 26.75 59.125 26.75 58 29 C57.01631535 43.56175802 59.15443717 54.08797539 68 66 C68.51046875 66.71800781 69.0209375 67.43601562 69.546875 68.17578125 C71.17630288 70.22132647 72.6060734 71.00940968 75 72 C75 72.66 75 73.32 75 74 C75.66 74.0825 76.32 74.165 77 74.25 C80.30296731 75.07574183 82.8826898 76.41086576 85.83984375 78.0625 C91.65484373 80.58618896 98.09119277 80.18309709 104.3125 80.1875 C105.21162109 80.19974609 106.11074219 80.21199219 107.03710938 80.22460938 C115.10954418 80.24212008 122.31744449 78.77070077 129.9375 76.125 C130.85402344 75.81820312 131.77054688 75.51140625 132.71484375 75.1953125 C135.06350994 74.17152663 135.06350994 74.17152663 136.3359375 72.25390625 C137.21159145 69.28183373 136.99844649 66.88824777 136.6875 63.8125 C136.58824219 62.74644531 136.48898437 61.68039062 136.38671875 60.58203125 C136.2727769 58.07458706 136.2727769 58.07458706 135 57 C134.95919217 55.00041636 134.95745644 52.99954746 135 51 C135.99 50.67 136.98 50.34 138 50 C139.78987215 45.91236926 140.24097449 42.3745259 140.1953125 37.9453125 C140.18886719 36.83671875 140.18242187 35.728125 140.17578125 34.5859375 C140.15902344 33.44382812 140.14226562 32.30171875 140.125 31.125 C140.11597656 29.9596875 140.10695313 28.794375 140.09765625 27.59375 C140.07417432 24.72895423 140.04133141 21.86458465 140 19 C145.33848672 18.90105457 150.67643869 18.82849586 156.015625 18.78027344 C157.8314748 18.76016939 159.64725995 18.73288165 161.46289062 18.69824219 C164.07438105 18.64966961 166.68501498 18.62701973 169.296875 18.609375 C170.10743347 18.58872986 170.91799194 18.56808472 171.75311279 18.54681396 C175.41572082 18.54535889 177.53463058 18.64882916 180.50415039 20.88964844 C182.75430886 24.06418244 182.72584109 26.32536851 182.6015625 30.1328125 C181.62707987 34.77742452 179.20001768 38.39876081 176.62890625 42.3359375 C175.20170195 44.67011816 174.44828019 46.33557409 174 49 C173.34 49 172.68 49 172 49 C171.64615234 49.98806641 171.64615234 49.98806641 171.28515625 50.99609375 C169.30874491 55.61572999 166.71575857 59.8680561 164.18945312 64.20507812 C163.79564453 64.89150391 163.40183594 65.57792969 162.99609375 66.28515625 C162.63700928 66.90269775 162.2779248 67.52023926 161.90795898 68.15649414 C160.95782836 70.08562465 160.44540717 71.9016309 160 74 C159.34 74 158.68 74 158 74 C157.69255859 74.93972656 157.69255859 74.93972656 157.37890625 75.8984375 C156.97478516 77.12433594 156.97478516 77.12433594 156.5625 78.375 C156.29566406 79.18710937 156.02882813 79.99921875 155.75390625 80.8359375 C155 83 155 83 154 85 C153.34 85 152.68 85 152 85 C151.62875 86.051875 151.62875 86.051875 151.25 87.125 C148.48202552 93.49134131 144.93999523 97.54074524 139 101 C135.53963507 102.15345498 132.85639322 102.12461538 129.20532227 102.12597656 C128.51880585 102.1278447 127.83228943 102.12971283 127.12496948 102.13163757 C125.63537025 102.13563827 124.14576491 102.13771611 122.65616035 102.13809967 C119.48958617 102.1415174 116.32321693 102.16287968 113.15671444 102.18333054 C107.2615935 102.22135305 101.36669315 102.25261214 95.47143555 102.25048828 C91.369846 102.24970181 87.26900898 102.27303324 83.16761589 102.3123703 C81.60515665 102.32283984 80.04261066 102.32434724 78.48013496 102.31671906 C76.29395027 102.3071089 74.11005048 102.32825018 71.92407227 102.35644531 C70.0590078 102.36191376 70.0590078 102.36191376 68.15626526 102.36749268 C64.95349915 102.75222193 64.95349915 102.75222193 62.81724548 104.79022217 C60.14294204 109.51381069 58.71651354 114.85045937 57 120 C92.31 120 127.62 120 164 120 C164 125.94 164 131.88 164 138 C148.97916304 138.09265831 133.95836941 138.1640103 118.93730736 138.20724869 C111.96250037 138.22786011 104.98787439 138.2559532 98.01318359 138.30175781 C91.28288914 138.34593628 84.55282164 138.36913441 77.82237625 138.37950897 C75.25392318 138.38690285 72.68548046 138.40134118 70.11710739 138.42292023 C66.52104147 138.45193365 62.92575387 138.45595669 59.32958984 138.45410156 C58.26647583 138.46848267 57.20336182 138.48286377 56.10803223 138.49768066 C48.96067476 138.45775252 45.61093346 137.35362229 40.35546875 132.47265625 C37.75362677 129.33130189 36.2980601 127.07348808 36 123 C35.9175 121.906875 35.835 120.81375 35.75 119.6875 C36.13810755 113.96291362 38.27981644 109.02187735 41 104 C41.66 104 42.32 104 43 104 C43.0928125 103.01 43.0928125 103.01 43.1875 102 C43.97770385 99.08232424 44.88994773 97.52408116 46.5625 95.0625 C48.85094679 91.53364871 49.76169575 89.28453857 49 85 C48.05988318 83.29883624 47.05104383 81.63495707 46 80 C45.49490386 78.71825066 45.01761733 77.42533522 44.5625 76.125 C43.39549974 72.86586457 41.88396814 70.07169714 40.09375 67.1015625 C38.67684241 64.37907577 37.67798356 61.56970499 36.625 58.6875 C34.69024217 53.49044281 32.35533309 48.99972495 29.40625 44.3203125 C27.21419717 40.70342534 25.61611714 36.89989657 24 33 C23.55269531 31.95714844 23.10539062 30.91429687 22.64453125 29.83984375 C19 21.27468487 19 21.27468487 19 19 C12.73 19 6.46 19 0 19 C0 12.73 0 6.46 0 0 Z " fill="#0096C7" transform="translate(161,235)"/>
<path d="M0 0 C1.26191162 0.00640503 1.26191162 0.00640503 2.54931641 0.01293945 C10.76016491 0.23866999 15.36713261 2.60411787 21.4375 8 C22.159375 8.825 22.88125 9.65 23.625 10.5 C24.346875 11.28375 25.06875 12.0675 25.8125 12.875 C30.01060193 18.95500969 29.89088765 25.31183634 29.75 32.4375 C29.74097656 33.31212891 29.73195313 34.18675781 29.72265625 35.08789062 C29.6992957 37.22538064 29.66343247 39.36272786 29.625 41.5 C26.18895235 43.21802382 22.24061104 42.6196618 18.4609375 42.59765625 C17.55372955 42.5962413 16.64652161 42.59482635 15.71182251 42.59336853 C12.80784845 42.58776096 9.90395085 42.57520718 7 42.5625 C5.03385528 42.55748598 3.06770935 42.5529229 1.1015625 42.54882812 C-3.7239879 42.53778906 -8.54948097 42.52051935 -13.375 42.5 C-13.375 43.82 -13.375 45.14 -13.375 46.5 C-12.715 46.5 -12.055 46.5 -11.375 46.5 C-10.6325 47.44875 -9.89 48.3975 -9.125 49.375 C-6.48202965 52.61378447 -4.59038431 53.71937328 -0.375 54.5 C6.10097306 54.95067286 11.40149917 54.41492333 17.625 52.5 C19.95715844 52.42596322 22.29360788 52.40484114 24.625 52.5 C26.3729503 57.74385089 26.81892201 61.97322267 26.625 67.5 C13.7526036 72.15067225 -2.92533047 73.02667735 -15.875 68.375 C-18.84375 66.95703125 -18.84375 66.95703125 -21.375 65.5 C-22.0865625 65.11199219 -22.798125 64.72398437 -23.53125 64.32421875 C-29.04558735 60.5506362 -30.50732365 54.5409479 -32.4296875 48.44921875 C-33.08195738 45.64053283 -33.08195738 45.64053283 -34.375 44.5 C-34.50242684 41.90404848 -34.56021437 39.34647942 -34.5625 36.75 C-34.57474609 36.03328125 -34.58699219 35.3165625 -34.59960938 34.578125 C-34.6110447 30.43091292 -34.2307613 27.22619265 -32.375 23.5 C-31.715 23.5 -31.055 23.5 -30.375 23.5 C-30.560625 22.2625 -30.560625 22.2625 -30.75 21 C-30.12999027 15.21324255 -26.68058319 11.572696 -22.44140625 7.76171875 C-15.26068351 2.12072213 -9.05292213 -0.06919545 0 0 Z " fill="#F6E603" transform="translate(262.375,235.5)"/>
<path d="M0 0 C2.31919907 3.4787986 2.25190198 4.81033951 2.25726891 8.91661167 C2.2637178 10.15999005 2.27016669 11.40336843 2.276811 12.68442494 C2.27386843 14.07180799 2.27073297 15.45919064 2.26742554 16.84657288 C2.27116 18.31459123 2.27576069 19.78260759 2.28115618 21.25062078 C2.29342764 25.29492112 2.29312084 29.339139 2.29076743 33.38345373 C2.29036029 37.74151925 2.30138879 42.09955796 2.31088257 46.45761108 C2.32751785 55.00108568 2.33299331 63.54453269 2.33410732 72.08802212 C2.33505691 79.0334264 2.33916271 85.97882155 2.34550858 92.92422295 C2.36313035 112.61134414 2.37234635 132.29844351 2.37084763 151.98557264 C2.37076772 153.04760662 2.3706878 154.1096406 2.37060547 155.20385742 C2.37052371 156.26718729 2.37044195 157.33051715 2.37035771 158.42606913 C2.36954525 175.64922012 2.38867032 192.87228355 2.4168822 210.09540922 C2.44561452 227.77573275 2.4594222 245.4560136 2.45769465 263.13636106 C2.45703071 273.0640952 2.46252414 282.99173764 2.48405075 292.91945076 C2.50226744 301.37505496 2.50660612 309.83052595 2.4930319 318.28614128 C2.48650381 322.59928679 2.48637906 326.91217676 2.5037384 331.22529793 C2.51948211 335.17774435 2.51659247 339.12973293 2.49917014 343.08216827 C2.49610299 344.50822491 2.49972191 345.93431582 2.51089029 347.36033202 C2.59850462 359.34590728 0.64470392 368.16637858 -7.70703125 377.01953125 C-13.79217777 382.27535627 -20.91628088 385.12093478 -28.9009943 385.13422108 C-30.14088928 385.13867892 -31.38078426 385.14313676 -32.65825182 385.14772969 C-34.04170423 385.14764039 -35.42515663 385.14745054 -36.80860901 385.14717102 C-38.27250117 385.15046965 -39.73639242 385.15419521 -41.20028251 385.1583125 C-45.23315998 385.16834097 -49.26602257 385.17205066 -53.29891074 385.17470181 C-57.64469958 385.17860242 -61.99047662 385.188181 -66.33625793 385.19691467 C-76.83718443 385.21668721 -87.33811189 385.22674684 -97.83905235 385.23564246 C-102.78338252 385.24002455 -107.72771162 385.24539161 -112.67204094 385.25063133 C-129.10741866 385.26764531 -145.54279571 385.28213922 -161.97818089 385.28938007 C-166.24432437 385.29128999 -170.51046786 385.29321032 -174.77661133 385.29516602 C-176.3671202 385.29589163 -176.3671202 385.29589163 -177.98976057 385.2966319 C-195.16440835 385.30493118 -212.33898646 385.33026563 -229.51360381 385.36274669 C-247.14420195 385.39581837 -264.77476469 385.41382898 -282.40539402 385.41702431 C-292.30518884 385.41918944 -302.20488209 385.42793833 -312.10464668 385.45348549 C-320.53645544 385.47519405 -328.96813796 385.48324217 -337.39997149 385.47351871 C-341.70097083 385.4689743 -346.00170973 385.47086828 -350.30267334 385.49028015 C-354.24400944 385.50791494 -358.18489517 385.50691175 -362.12623607 385.49138286 C-363.54825848 385.48900723 -364.9703121 385.49332806 -366.39228684 385.50521151 C-376.63972212 385.58551009 -385.92578269 384.66406111 -393.625 377.25 C-394.60339844 376.32960938 -394.60339844 376.32960938 -395.6015625 375.390625 C-396.06304687 374.93171875 -396.52453125 374.4728125 -397 374 C-392.90792208 374 -391.51504659 375.87926311 -388.5234375 378.4921875 C-380.83836094 383.08419919 -371.31705333 382.29099958 -362.67987061 382.27415466 C-361.23356038 382.27861282 -359.7872526 382.28392875 -358.34094834 382.29002339 C-354.38440904 382.30414424 -350.42794851 382.30586781 -346.47138762 382.30542648 C-342.19721222 382.30707989 -337.92306878 382.32015604 -333.64891052 382.33161926 C-324.31209194 382.35442623 -314.97529615 382.36238497 -305.63845348 382.36744571 C-299.8044393 382.3707072 -293.97043167 382.37723234 -288.1364212 382.3844471 C-271.97102446 382.40400603 -255.8056338 382.42041484 -239.64022446 382.42332363 C-238.6066793 382.4235112 -237.57313415 382.42369877 -236.50826944 382.42389202 C-234.41320785 382.42425827 -232.31814625 382.42462196 -230.22308466 382.42498314 C-228.66318754 382.42525735 -228.66318754 382.42525735 -227.07177734 382.42553711 C-225.50996799 382.42580793 -225.50996799 382.42580793 -223.91660693 382.42608423 C-207.04503685 382.42962597 -190.17359439 382.45665153 -173.30206856 382.494035 C-155.96393377 382.53214382 -138.62586227 382.55148129 -121.28768468 382.55178314 C-111.55945001 382.55236707 -101.83136768 382.56081751 -92.1031723 382.58978081 C-83.82015522 382.61432892 -75.53734607 382.62155431 -67.25430241 382.60653328 C-63.03182155 382.59937887 -58.80975101 382.60015811 -54.58731651 382.62294388 C-50.7144337 382.64364238 -46.84227385 382.64083352 -42.96939793 382.62006903 C-41.57576509 382.6165948 -40.1820789 382.62139566 -38.7885159 382.63577347 C-28.14325145 382.73843907 -17.23262993 381.27280655 -9 373.875 C-1.31453015 364.98760575 -0.26850428 355.38967396 -0.36076355 344.048172 C-0.35444152 342.55786457 -0.34593234 341.0675651 -0.33544332 339.57728118 C-0.31306259 335.50878424 -0.32145562 331.4408586 -0.3351289 327.37234485 C-0.34442682 322.9750383 -0.32482348 318.57784652 -0.30880737 314.18057251 C-0.28501023 306.57088266 -0.27934785 298.96135474 -0.28615379 291.35163307 C-0.29596746 280.34941641 -0.27819663 269.34737886 -0.25378648 258.3451912 C-0.21492354 240.49306294 -0.19823552 222.64098603 -0.19555664 204.78881836 C-0.19290739 187.451552 -0.17977486 170.11434561 -0.15258789 152.77709961 C-0.15091451 151.70765816 -0.14924113 150.6382167 -0.14751705 149.53636793 C-0.13905731 144.17106305 -0.13039194 138.80575852 -0.12162435 133.44045413 C-0.04920395 88.96031322 -0.01279832 44.48019534 0 0 Z " fill="#0D2831" transform="translate(457,74)"/>
<path d="M0 0 C-2.20449809 2.46875969 -4.11620039 3.62203166 -7.1875 4.8125 C-15.75688798 8.5069201 -22.02482744 14.06856549 -27 22 C-27.70677997 24.16324713 -27.70677997 24.16324713 -28 26 C-28.66 26 -29.32 26 -30 26 C-33.45211315 37.65088187 -34.21298294 53.81874397 -29 65 C-23.64428964 73.48684832 -16.76746446 82.37737653 -7.25 86.25 C-6.49203125 86.56453125 -5.7340625 86.8790625 -4.953125 87.203125 C-4.30859375 87.46609375 -3.6640625 87.7290625 -3 88 C-2.01 88.495 -2.01 88.495 -1 89 C-1 89.66 -1 90.32 -1 91 C-11.99126494 91.54055401 -21.49327881 89.23149059 -30 82 C-32.19195249 79.75430437 -34.25615545 77.45408641 -36.2734375 75.05078125 C-37.88150721 73.03544566 -37.88150721 73.03544566 -39.52734375 71.6640625 C-46.04119053 64.30358842 -47.55986862 52.9089317 -47.5625 43.5 C-47.56467529 42.67636963 -47.56685059 41.85273926 -47.5690918 41.00415039 C-47.41828244 35.42759328 -46.20229617 31.1210727 -44 26 C-43.34 26 -42.68 26 -42 26 C-41.79375 24.989375 -41.5875 23.97875 -41.375 22.9375 C-38.80758903 14.2397404 -30.52884198 8.37855614 -23 4 C-21.68 4 -20.36 4 -19 4 C-19 3.34 -19 2.68 -19 2 C-12.53991163 0.04978464 -6.7281627 -0.22262303 0 0 Z " fill="#0192C2" transform="translate(206,106)"/>
<path d="M0 0 C7.69444444 5.47489316 7.69444444 5.47489316 9.0625 10 C9.124375 11.093125 9.18625 12.18625 9.25 13.3125 C9.311875 14.10269531 9.37375 14.89289063 9.4375 15.70703125 C9.71433238 21.47725615 9.21385043 24.81299411 5.25 29.3125 C0.82894737 33.3125 0.82894737 33.3125 -1.75 33.3125 C-1.75 33.9725 -1.75 34.6325 -1.75 35.3125 C-3.81183633 35.39400744 -5.87461349 35.4519194 -7.9375 35.5 C-9.66033203 35.55220703 -9.66033203 35.55220703 -11.41796875 35.60546875 C-15.84512391 35.21621126 -18.36816512 33.84446015 -21.33203125 30.55859375 C-21.73808594 29.96175781 -22.14414062 29.36492187 -22.5625 28.75 C-22.98144531 28.15058594 -23.40039062 27.55117188 -23.83203125 26.93359375 C-24.75 25.3125 -24.75 25.3125 -24.75 23.3125 C-25.41 23.3125 -26.07 23.3125 -26.75 23.3125 C-27.78350824 10.75728874 -27.78350824 10.75728874 -23.875 5.625 C-22.86802173 4.48910905 -21.83034592 3.3788518 -20.75 2.3125 C-20.09 1.6525 -19.43 0.9925 -18.75 0.3125 C-12.6946941 -2.34592698 -5.97574442 -3.2157056 0 0 Z " fill="#0094C5" transform="translate(315.75,383.6875)"/>
<path d="M0 0 C5.99282678 -0.43067715 9.26257139 0.64236597 13.890625 4.453125 C19.55025231 10.14982411 19.55025231 10.14982411 20.0703125 14.5859375 C20.02390625 15.73449219 19.9775 16.88304687 19.9296875 18.06640625 C19.89359375 19.22785156 19.8575 20.38929688 19.8203125 21.5859375 C19.77390625 22.46636719 19.7275 23.34679687 19.6796875 24.25390625 C19.0196875 24.25390625 18.3596875 24.25390625 17.6796875 24.25390625 C17.4734375 24.97578125 17.2671875 25.69765625 17.0546875 26.44140625 C15.20439762 30.22609009 13.07728312 31.77649278 9.6796875 34.25390625 C9.0196875 34.25390625 8.3596875 34.25390625 7.6796875 34.25390625 C7.6796875 34.91390625 7.6796875 35.57390625 7.6796875 36.25390625 C-3.97906378 36.87662887 -3.97906378 36.87662887 -8.8203125 34.62890625 C-14.66030174 29.08091647 -17.05179553 25.4830485 -17.5703125 17.31640625 C-17.46579259 11.74549501 -15.18226215 8.0016249 -11.5078125 3.94140625 C-7.83769997 0.50460161 -4.85484282 0.53125384 0 0 Z " fill="#0094C5" transform="translate(214.3203125,382.74609375)"/>
<path d="M0 0 C3.66666667 0 7.33333333 0 11 0 C11.77214844 -0.02320313 12.54429687 -0.04640625 13.33984375 -0.0703125 C14.19707031 -0.08835938 15.05429687 -0.10640625 15.9375 -0.125 C17.21947266 -0.15980469 17.21947266 -0.15980469 18.52734375 -0.1953125 C21.15828511 0.01250277 22.74466981 0.6708727 25 2 C25.66 1.34 26.32 0.68 27 0 C29.49609375 -0.265625 29.49609375 -0.265625 32.4375 -0.25 C33.40558594 -0.25515625 34.37367188 -0.2603125 35.37109375 -0.265625 C38 0 38 0 41 2 C42.42133366 10.43045945 40.19513997 18.8988882 38 27 C35.69 27 33.38 27 31 27 C30.71899498 19.83437211 31.79556805 13.05453001 33 6 C30.69 6.33 28.38 6.66 26 7 C23.45677191 13.93607661 22.05084393 20.69354394 21 28 C18.36 28 15.72 28 13 28 C13.62272232 20.5928819 14.70487966 13.31805865 16 6 C14.68647977 6.30818356 13.37420428 6.62167665 12.0625 6.9375 C11.33160156 7.11152344 10.60070312 7.28554687 9.84765625 7.46484375 C8.00030102 7.83887569 8.00030102 7.83887569 7 9 C6.70569228 10.33630117 6.46338167 11.68419222 6.24609375 13.03515625 C6.11396484 13.84404297 5.98183594 14.65292969 5.84570312 15.48632812 C5.71099609 16.33646484 5.57628906 17.18660156 5.4375 18.0625 C5.29892578 18.91650391 5.16035156 19.77050781 5.01757812 20.65039062 C4.67476995 22.76634451 4.33692384 24.88310118 4 27 C1.69 27 -0.62 27 -3 27 C-3.19979949 20.24011721 -3.12053989 14.4863573 -1 8 C-0.56949764 5.33656231 -0.28261386 2.68483165 0 0 Z " fill="#F0DE07" transform="translate(301,159)"/>
<path d="M0 0 C9.24 0 18.48 0 28 0 C28 2.31 28 4.62 28 7 C21.4 7 14.8 7 8 7 C7.67 10.3 7.34 13.6 7 17 C12.61 17 18.22 17 24 17 C24 18.98 24 20.96 24 23 C17.73 23 11.46 23 5 23 C4.67 26.3 4.34 29.6 4 33 C10.27 33 16.54 33 23 33 C22.67 35.31 22.34 37.62 22 40 C12.76 40 3.52 40 -6 40 C-5.40685238 34.06852381 -4.80221322 28.25504988 -3.9375 22.375 C-3.67259766 20.56128906 -3.67259766 20.56128906 -3.40234375 18.7109375 C-3.26957031 17.81632812 -3.13679687 16.92171875 -3 16 C-2.34 16 -1.68 16 -1 16 C-0.67 10.72 -0.34 5.44 0 0 Z " fill="#EADA08" transform="translate(212,147)"/>
<path d="M0 0 C4.38988446 3.05167774 8.00633761 6.55955245 11 11 C11 11.66 11 12.32 11 13 C7.09991103 12.21998221 3.63179826 10.5847847 0 9 C-4.00485353 7.66504882 -7.68202582 7.81583305 -11.875 7.8125 C-13.07962891 7.79413086 -13.07962891 7.79413086 -14.30859375 7.77539062 C-18.70604629 7.76452377 -21.97079457 8.05537435 -26 10 C-27.093125 10.226875 -28.18625 10.45375 -29.3125 10.6875 C-35.88096472 13.02542812 -41.11754159 18.25396155 -45 24 C-45.77833534 26.18214568 -45.77833534 26.18214568 -46 28 C-46.66 28 -47.32 28 -48 28 C-48.66 33.94 -49.32 39.88 -50 46 C-50.66 46 -51.32 46 -52 46 C-54.59742765 36.69527428 -54.63781567 23.76927722 -50.32421875 15.06640625 C-44.92313085 6.63815994 -37.34064209 -0.71486301 -27.5390625 -3.52734375 C-17.95915731 -5.31067995 -8.76820497 -4.29642043 0 0 Z " fill="#028EBC" transform="translate(231,116)"/>
<path d="M0 0 C0.72058594 -0.020625 1.44117188 -0.04125 2.18359375 -0.0625 C5.30095527 -0.08546399 7.74791565 0.07664843 10.59765625 1.38671875 C13.40332992 4.80949712 12.70998049 8.56814609 12.58203125 12.8046875 C11.91083128 17.86450265 10.25209649 22.19300376 7.125 26.25 C3.59548369 28.84047069 -0.11702335 28.54992723 -4.375 28.5625 C-5.6846875 28.57925781 -6.994375 28.59601563 -8.34375 28.61328125 C-11.97119792 28.24010353 -13.45895487 27.94528652 -15.875 25.25 C-17.28927102 19.38916503 -15.65168925 11.90579411 -13.875 6.25 C-9.93234927 0.21281607 -6.84996915 0.04849536 0 0 Z " fill="#EEDB08" transform="translate(282.875,158.75)"/>
<path d="M0 0 C1.95099609 0.00193359 1.95099609 0.00193359 3.94140625 0.00390625 C7.50806161 0.44625122 9.03523735 0.79924681 11.4375 3.4375 C11.6875 7.125 11.6875 7.125 11.4375 10.4375 C8.7975 10.4375 6.1575 10.4375 3.4375 10.4375 C3.1075 9.1175 2.7775 7.7975 2.4375 6.4375 C0.10455225 6.39508277 -2.22952567 6.39657063 -4.5625 6.4375 C-6.57731734 8.45231734 -6.2839027 12.22826863 -6.625 15 C-6.71587891 15.71091797 -6.80675781 16.42183594 -6.90039062 17.15429688 C-7.12489503 18.91488403 -7.34418397 20.67613478 -7.5625 22.4375 C-3.51164321 22.19118443 -3.51164321 22.19118443 0.4375 21.4375 C2.0274433 19.51685207 2.0274433 19.51685207 2.4375 17.4375 C5.0775 17.4375 7.7175 17.4375 10.4375 17.4375 C10.1075 19.4175 9.7775 21.3975 9.4375 23.4375 C8.7775 23.4375 8.1175 23.4375 7.4375 23.4375 C7.1075 24.4275 6.7775 25.4175 6.4375 26.4375 C2.83638412 28.83824392 0.16146229 28.76994948 -4 28.75 C-5.97806641 28.77513672 -5.97806641 28.77513672 -7.99609375 28.80078125 C-11.66777152 28.42677683 -13.1857976 28.23818699 -15.5625 25.4375 C-16.84186281 18.72840052 -16.08876776 10.40688159 -12.5625 4.4375 C-8.58227134 0.30474433 -5.64009789 -0.08401337 0 0 Z " fill="#EDDC07" transform="translate(254.5625,158.5625)"/>
<path d="M0 0 C2.72880503 1.20067421 4.9576853 2.70206715 7.3125 4.5 C10.69778704 6.97526364 13.89439432 8.05255253 18 9 C18.99 9.33 19.98 9.66 21 10 C22.97457588 10.0923592 24.95219283 10.12374264 26.92892742 10.12304783 C28.17498939 10.12503888 29.42105136 10.12702993 30.70487279 10.12908131 C32.09521547 10.12622808 33.48555796 10.12328248 34.87590027 10.12025452 C36.34691855 10.12069034 37.81793676 10.12156546 39.28895456 10.12284368 C43.34114665 10.1250864 47.39331246 10.12107038 51.44550121 10.11606562 C55.81154244 10.11175814 60.17758212 10.11320776 64.54362488 10.1139679 C72.11139974 10.11449294 79.679166 10.11134816 87.24693871 10.10573006 C98.1887472 10.09761244 109.13055152 10.09499957 120.0723627 10.09374207 C137.8235534 10.09155196 155.57473952 10.08489299 173.32592773 10.07543945 C190.57234677 10.06626427 207.81876456 10.05918395 225.06518555 10.05493164 C226.65905893 10.05453756 226.65905893 10.05453756 228.28513177 10.05413551 C233.61564923 10.0528305 238.94616669 10.05156678 244.27668417 10.05032361 C288.51779262 10.03995228 332.75889607 10.02233509 377 10 C373.52460048 12.31693301 372.20025919 12.25189339 368.0990057 12.25726891 C366.85911072 12.2637178 365.61921574 12.27016669 364.34174818 12.276811 C362.95829537 12.27386843 361.57484297 12.27073297 360.19139099 12.26742554 C358.72749743 12.27116 357.26360587 12.27576071 355.79971749 12.28115618 C351.76681866 12.29342752 347.73400252 12.29312085 343.70108926 12.29076743 C339.35529376 12.29036029 335.00952513 12.30138882 330.66374207 12.31088257 C322.14433092 12.32751779 313.62494745 12.33299331 305.10552143 12.33410732 C298.1796633 12.33505691 291.25381431 12.33916273 284.32795906 12.34550858 C264.69617538 12.36313034 245.06441359 12.37234636 225.43262195 12.37084763 C224.37357497 12.37076772 223.31452799 12.3706878 222.22338867 12.37060547 C221.16304942 12.37052371 220.10271017 12.37044195 219.01023943 12.37035771 C201.83558729 12.36954525 184.66102294 12.38867026 167.48639619 12.4168822 C149.85579319 12.44561469 132.22523299 12.45942219 114.59460598 12.45769465 C104.69481742 12.45703072 94.7951208 12.46252392 84.89535332 12.48405075 C76.46353757 12.50226766 68.03185542 12.50660594 59.60002851 12.4930319 C55.29903434 12.48650392 50.99829642 12.48637867 46.69732666 12.5037384 C42.75598234 12.51948259 38.81509714 12.51659198 34.87376393 12.49917014 C33.45174494 12.4961031 32.02969158 12.49972151 30.60771316 12.51089029 C20.38110266 12.58586131 11.10703263 11.64679433 3.375 4.3125 C2.72273438 3.71050781 2.07046875 3.10851562 1.3984375 2.48828125 C0 1 0 1 0 0 Z " fill="#0A1E25" transform="translate(60,447)"/>
<path d="M0 0 C1.670625 0.061875 1.670625 0.061875 3.375 0.125 C3.705 1.775 4.035 3.425 4.375 5.125 C7.015 5.125 9.655 5.125 12.375 5.125 C12.375 3.475 12.375 1.825 12.375 0.125 C12.705 1.115 13.035 2.105 13.375 3.125 C14.035 3.455 14.695 3.785 15.375 4.125 C15.14678654 6.39812618 14.8916633 8.66856309 14.625 10.9375 C14.48578125 12.20207031 14.3465625 13.46664062 14.203125 14.76953125 C13.375 18.125 13.375 18.125 11.296875 20.07421875 C10.66265625 20.42097656 10.0284375 20.76773438 9.375 21.125 C8.715 20.795 8.055 20.465 7.375 20.125 C7.705 19.465 8.035 18.805 8.375 18.125 C9.035 18.125 9.695 18.125 10.375 18.125 C10.705 16.145 11.035 14.165 11.375 12.125 C8.735 12.125 6.095 12.125 3.375 12.125 C2.715 13.775 2.055 15.425 1.375 17.125 C-1.265 17.125 -3.905 17.125 -6.625 17.125 C-6.51130789 14.66566009 -6.38457349 12.2082091 -6.25 9.75 C-6.2190625 9.05132812 -6.188125 8.35265625 -6.15625 7.6328125 C-5.72728924 0.19749273 -5.72728924 0.19749273 0 0 Z " fill="#234240" transform="translate(253.625,163.875)"/>
<path d="M0 0 C2.0625 2.5 2.0625 2.5 3.0625 10.5 C-4.1975 10.5 -11.4575 10.5 -18.9375 10.5 C-17.9375 2.5 -17.9375 2.5 -16.625 0.5625 C-11.61694344 -2.5907208 -5.1724337 -2.64124274 0 0 Z " fill="#173942" transform="translate(268.9375,252.5)"/>
<path d="M0 0 C4.29193998 2.75910427 8.42058448 5.65366896 10.75 10.3125 C5.85646935 9.53237193 1.89935874 7.60938119 -2.53125 5.46875 C-12.24135438 1.33916538 -24.30996628 2.5223151 -34.25 5.3125 C-32.91236943 2.11294145 -31.80899705 0.60186841 -28.6875 -0.9375 C-19.75520146 -4.54505191 -8.53711813 -4.47678146 0 0 Z " fill="#0193C4" transform="translate(230.25,130.6875)"/>
<path d="M0 0 C1.98 0 3.96 0 6 0 C6.38063221 2.3260857 6.71269945 4.66055264 7 7 C6.67 7.33 6.34 7.66 6 8 C5.70569228 9.33630117 5.46338167 10.68419222 5.24609375 12.03515625 C5.11396484 12.84404297 4.98183594 13.65292969 4.84570312 14.48632812 C4.71099609 15.33646484 4.57628906 16.18660156 4.4375 17.0625 C4.29892578 17.91650391 4.16035156 18.77050781 4.01757812 19.65039062 C3.67476995 21.76634451 3.33692384 23.88310118 3 26 C0.69 26 -1.62 26 -4 26 C-4.62596368 16.50621746 -2.97647055 8.98256292 0 0 Z " fill="#F2DF06" transform="translate(302,160)"/>
<path d="M0 0 C0 0.66 0 1.32 0 2 C-0.598125 2.433125 -1.19625 2.86625 -1.8125 3.3125 C-4.13144293 4.88087918 -4.13144293 4.88087918 -5.375 7.375 C-7.07788766 10.12581853 -9.0049021 11.6363086 -11.515625 13.625 C-14.07386404 15.99473722 -15.53213761 18.87255443 -17 22 C-17.52851563 22.98355469 -18.05703125 23.96710938 -18.6015625 24.98046875 C-20.78034927 30.11039122 -20.32001624 35.46356013 -20.1875 40.9375 C-20.17396484 42.00291016 -20.16042969 43.06832031 -20.14648438 44.16601562 C-20.11134724 46.77787588 -20.06215184 49.38866634 -20 52 C-22.23413013 48.64880481 -22.23847762 47.5822245 -22.1953125 43.67578125 C-22.18886719 42.64775391 -22.18242187 41.61972656 -22.17578125 40.56054688 C-22.15902344 39.48869141 -22.14226562 38.41683594 -22.125 37.3125 C-22.11597656 36.22904297 -22.10695312 35.14558594 -22.09765625 34.02929688 C-22.0740734 31.3526429 -22.04116126 28.67643203 -22 26 C-23.68561267 31.21443596 -24.38512698 35.97539135 -24.625 41.4375 C-24.66367188 42.16904297 -24.70234375 42.90058594 -24.7421875 43.65429688 C-24.83533984 45.43583532 -24.91870286 47.21788122 -25 49 C-25.33 49 -25.66 49 -26 49 C-26.55353075 29.99544419 -26.55353075 29.99544419 -23 22 C-22.34 22 -21.68 22 -21 22 C-20.9175 21.29875 -20.835 20.5975 -20.75 19.875 C-19.81990995 16.3096548 -18.23313631 13.90984428 -16 11 C-15.34 11 -14.68 11 -14 11 C-13.6596875 10.12601563 -13.6596875 10.12601563 -13.3125 9.234375 C-11.6404838 6.38796646 -9.72023189 5.1003903 -7 3.25 C-6.113125 2.63640625 -5.22625 2.0228125 -4.3125 1.390625 C-2 0 -2 0 0 0 Z " fill="#0E4D63" transform="translate(199,110)"/>
<path d="M0 0 C3.375 0.3125 3.375 0.3125 4.375 1.3125 C4.78744449 6.4920354 5.05379525 11.69901929 2.375 16.3125 C-0.60712913 17.80356457 -3.34109658 17.43191467 -6.625 17.3125 C-6.955 16.9825 -7.285 16.6525 -7.625 16.3125 C-7.61326472 14.37324422 -7.51532944 12.43420742 -7.375 10.5 C-7.27445312 8.91251953 -7.27445312 8.91251953 -7.171875 7.29296875 C-6.26111052 2.32930231 -5.12469531 0.44178408 0 0 Z " fill="#254440" transform="translate(282.625,163.6875)"/>
<path d="M0 0 C0 0.33 0 0.66 0 1 C-1.58941406 1.09087891 -1.58941406 1.09087891 -3.2109375 1.18359375 C-4.59897221 1.26800127 -5.98699232 1.35264917 -7.375 1.4375 C-8.07367188 1.47681641 -8.77234375 1.51613281 -9.4921875 1.55664062 C-13.37360492 1.74280134 -13.37360492 1.74280134 -17 3 C-12.71 3.33 -8.42 3.66 -4 4 C-4 4.33 -4 4.66 -4 5 C-5.46759766 5.07347656 -5.46759766 5.07347656 -6.96484375 5.1484375 C-14.16248379 5.55892238 -21.00303049 6.15869223 -28 8 C-26.21298401 3.7255296 -24.24049715 2.50915669 -20.0625 0.75 C-13.52840423 -0.85018672 -6.67696879 -0.27597116 0 0 Z " fill="#07759B" transform="translate(224,128)"/>
<path d="M0 0 C0.33 0 0.66 0 1 0 C1.33 2.31 1.66 4.62 2 7 C2.99 5.02 3.98 3.04 5 1 C6.33900671 4.34751677 5.62569692 6.4539291 4.546875 9.78515625 C3.40272967 14.41894485 3.29644782 19.24903359 3 24 C4.98 24 6.96 24 9 24 C9 24.33 9 24.66 9 25 C6.69 25 4.38 25 2 25 C1.67 21.37 1.34 17.74 1 14 C0.67 14.99 0.34 15.98 0 17 C-0.66 17 -1.32 17 -2 17 C-1.76990234 16.21882813 -1.76990234 16.21882813 -1.53515625 15.421875 C-0.86017489 12.36721485 -0.65588882 9.36984029 -0.4375 6.25 C-0.35371094 5.07953125 -0.26992188 3.9090625 -0.18359375 2.703125 C-0.12300781 1.81109375 -0.06242187 0.9190625 0 0 Z " fill="#5C6336" transform="translate(295,162)"/>
<path d="M0 0 C0 0.66 0 1.32 0 2 C-0.598125 2.433125 -1.19625 2.86625 -1.8125 3.3125 C-4.15103376 4.89439945 -4.15103376 4.89439945 -5.4375 7.5 C-7.2476733 10.39627728 -8.99673373 11.45778219 -12 13 C-12.33 12.01 -12.66 11.02 -13 10 C-10.32420252 5.57386883 -5.50755657 0 0 0 Z " fill="#0E4A5E" transform="translate(199,110)"/>
<path d="M0 0 C3.1160955 4.67414325 2.47138081 9.52473064 2 15 C0.50009776 19.19972627 -1.4353446 22.27408704 -5 25 C-7.75 25.25 -7.75 25.25 -10 25 C-9.236875 24.401875 -8.47375 23.80375 -7.6875 23.1875 C-4.22008216 20.36518316 -1.65117468 18.20805698 0 14 C0.24172707 10.49130586 0.24172707 10.49130586 0.125 6.75 C0.09792969 4.85507812 0.09792969 4.85507812 0.0703125 2.921875 C0.04710937 1.95765625 0.02390625 0.9934375 0 0 Z " fill="#0C556E" transform="translate(324,393)"/>
<path d="M0 0 C0.66 0.33 1.32 0.66 2 1 C0.56974806 2.65213589 -0.86945545 4.29652589 -2.3125 5.9375 C-3.11300781 6.85402344 -3.91351563 7.77054688 -4.73828125 8.71484375 C-7 11 -7 11 -10 12 C-8.62968895 6.34746692 -4.32310587 3.4886459 0 0 Z " fill="#D0B817" transform="translate(244,240)"/>
<path d="M0 0 C-2.27364177 2.42999536 -3.68273845 3.42805835 -7 4 C-7 3.34 -7 2.68 -7 2 C-12.94 2.495 -12.94 2.495 -19 3 C-14.39282368 -1.60717632 -6.11311035 -0.09789678 0 0 Z " fill="#0580A9" transform="translate(206,106)"/>
<path d="M0 0 C11.375 0 11.375 0 15 1 C12.525 2.485 12.525 2.485 10 4 C11.65 4.33 13.3 4.66 15 5 C15 5.33 15 5.66 15 6 C12.69 6.33 10.38 6.66 8 7 C7.67 5.02 7.34 3.04 7 1 C5.02 1 3.04 1 1 1 C0.67 1.99 0.34 2.98 0 4 C0 2.68 0 1.36 0 0 Z " fill="#D9C214" transform="translate(301,159)"/>
<path d="M0 0 C3.57104439 1.87949705 5.54744301 3.17053157 7 7 C2.61110675 6.33501617 -0.9811485 4.81242323 -5 3 C-4.360625 2.87625 -3.72125 2.7525 -3.0625 2.625 C-2.0415625 2.315625 -2.0415625 2.315625 -1 2 C-0.67 1.34 -0.34 0.68 0 0 Z " fill="#057DA5" transform="translate(234,134)"/>
<path d="M0 0 C-1.66751148 3.94139078 -4.22710649 6.7892812 -7 10 C-7.66 9.01 -8.32 8.02 -9 7 C-7.88121617 5.82737096 -6.75476949 4.66204862 -5.625 3.5 C-4.68527344 2.52546875 -4.68527344 2.52546875 -3.7265625 1.53125 C-2 0 -2 0 0 0 Z " fill="#0F475A" transform="translate(198,128)"/>
<path d="M0 0 C0.66 0 1.32 0 2 0 C2.25 2.8125 2.25 2.8125 2 6 C0 7.875 0 7.875 -2 9 C-2.66 8.67 -3.32 8.34 -4 8 C-3.67 7.34 -3.34 6.68 -3 6 C-2.34 6 -1.68 6 -1 6 C-0.67 4.02 -0.34 2.04 0 0 Z " fill="#334B3D" transform="translate(265,176)"/>
<path d="M0 0 C-1.75 3.875 -1.75 3.875 -4 5 C-4.73075648 7.3140622 -5.40138258 9.64828869 -6 12 C-6.96846689 9.38513938 -7.04559628 8.1557873 -6.25 5.4375 C-3.46153846 0 -3.46153846 0 0 0 Z " fill="#E1B51C" transform="translate(247,160)"/>
<path d="M0 0 C0.99 0.33 1.98 0.66 3 1 C2.75 2.875 2.75 2.875 2 5 C-0.0625 6.25 -0.0625 6.25 -2 7 C-2.33 6.01 -2.66 5.02 -3 4 C-1.5625 1.8125 -1.5625 1.8125 0 0 Z " fill="#113B48" transform="translate(189,116)"/>
<path d="M0 0 C1.32 0 2.64 0 4 0 C4 0.66 4 1.32 4 2 C3.401875 2.268125 2.80375 2.53625 2.1875 2.8125 C0.02775192 3.98493467 -1.35790256 5.19369282 -3 7 C-2.25 2.25 -2.25 2.25 0 0 Z " fill="#3B4F3B" transform="translate(254,252)"/>
<path d="M0 0 C0.66 0.33 1.32 0.66 2 1 C1.01 2.485 1.01 2.485 0 4 C1.65 4.33 3.3 4.66 5 5 C5 5.33 5 5.66 5 6 C2.69 6.33 0.38 6.66 -2 7 C-2 6.01 -2 5.02 -2 4 C-2.66 3.67 -3.32 3.34 -4 3 C-2.68 2.01 -1.36 1.02 0 0 Z " fill="#D3BF14" transform="translate(328,159)"/>
<path d="M0 0 C0.66 0 1.32 0 2 0 C1.1875 2.9375 1.1875 2.9375 0 6 C-0.99 6.33 -1.98 6.66 -3 7 C-1.125 2.25 -1.125 2.25 0 0 Z " fill="#0C5770" transform="translate(319,309)"/>
</svg>
