<?xml version="1.0" encoding="UTF-8"?>
<svg version="1.1" xmlns="http://www.w3.org/2000/svg" width="1320" height="1000">
<path d="M0 0 C435.6 0 871.2 0 1320 0 C1320 330 1320 660 1320 1000 C884.4 1000 448.8 1000 0 1000 C0 670 0 340 0 0 Z " fill="#C70039" transform="translate(0,0)"/>
<path d="M0 0 C11.55 0 23.1 0 35 0 C37.28754661 5.71886651 39.50435536 11.26322333 41.45776367 17.0703125 C41.77809822 18.01865715 41.77809822 18.01865715 42.10490417 18.98616028 C42.79516159 21.03158471 43.4815492 23.07828483 44.16796875 25.125 C44.65281499 26.56332907 45.13795307 28.00155979 45.62336731 29.43969727 C46.88952653 33.19286942 48.15259926 36.9470719 49.41473389 40.70159912 C51.44430626 46.73805809 53.47762012 52.77325438 55.5128727 58.80780029 C56.22163583 60.91128542 56.92844033 63.01542142 57.63505554 65.11962891 C58.06677595 66.40139 58.49856052 67.68312948 58.93041992 68.96484375 C59.30696213 70.0849585 59.68350433 71.20507324 60.07145691 72.35913086 C60.91496543 74.93427589 60.91496543 74.93427589 62 77 C62.21615967 76.29617188 62.43231934 75.59234375 62.6550293 74.8671875 C64.76807819 67.98869421 66.88497362 61.11139582 69.00439453 54.23486328 C69.81727018 51.59371507 70.62657524 48.95153463 71.43359375 46.30859375 C73.69115558 38.95284725 76.1482751 31.69479767 78.7590332 24.45874023 C80.89677077 18.46295147 82.71844854 12.39521515 84.43945312 6.26782227 C85.90338637 1.09661363 85.90338637 1.09661363 87 0 C98.55 0 110.1 0 122 0 C122 37.29 122 74.58 122 113 C114.41 113 106.82 113 99 113 C98.67 87.26 98.34 61.52 98 35 C95.49234881 42.5217627 95.49234881 42.5217627 93.0625 50.06640625 C92.55589844 51.6606543 92.55589844 51.6606543 92.0390625 53.28710938 C91.34522819 55.4742525 90.65252332 57.66175423 89.9609375 59.84960938 C88.32806791 64.98193039 86.64845897 70.06675952 84.71484375 75.09350586 C83.36599759 78.69088961 82.19603905 82.34958915 81 86 C78.00298568 95.14713746 74.59603399 104.07191561 71 113 C64.4 113 57.8 113 51 113 C48.76034956 106.69566875 46.52251664 100.39069586 44.28613281 94.08520508 C43.53040746 91.95515917 42.77424541 89.82526812 42.01757812 87.69555664 C35.90794766 70.49792705 29.94994666 53.25484531 24 36 C23.67 61.74 23.34 87.48 23 114 C15.41 114 7.82 114 0 114 C0 76.38 0 38.76 0 0 Z " fill="#FEFDFD" transform="translate(520,475)"/>
<path d="M0 0 C7.42659239 7.8216239 10.06500811 15.21007299 11.25 25.875 C3.33 25.875 -4.59 25.875 -12.75 25.875 C-14.4 22.575 -16.05 19.275 -17.75 15.875 C-24.33763534 9.40094458 -29.05689914 8.5163798 -38.12841797 8.49438477 C-45.79597984 8.65598663 -51.32596642 10.38574673 -56.80078125 15.96484375 C-66.61280274 27.84896916 -66.73568313 41.08692875 -65.75 55.875 C-64.59295265 64.95434426 -60.76217817 72.00916052 -53.75 77.875 C-46.06828027 83.63290279 -38.07776839 83.82235148 -28.75 82.875 C-23.14506106 81.75572104 -19.34283667 79.34176991 -15.75 74.875 C-12.39019372 69.72583514 -10.7831061 66.07363658 -9.75 59.875 C-18 59.875 -26.25 59.875 -34.75 59.875 C-34.75 53.605 -34.75 47.335 -34.75 40.875 C-18.91 40.875 -3.07 40.875 13.25 40.875 C13.25 61.335 13.25 81.795 13.25 102.875 C7.97 102.875 2.69 102.875 -2.75 102.875 C-3.74 98.915 -4.73 94.955 -5.75 90.875 C-6.471875 91.6175 -7.19375 92.36 -7.9375 93.125 C-16.97460222 101.96127773 -25.75026437 105.1415901 -38.26245117 105.12158203 C-52.83936307 104.88312499 -65.04831259 100.91969572 -75.5625 90.625 C-89.73116159 75.66919054 -92.25961589 59.00444285 -92.02734375 39.15234375 C-91.56185722 23.55043938 -85.08892077 9.62356403 -73.75 -1.125 C-53.12539748 -19.23084575 -19.94605854 -18.44258679 0 0 Z " fill="#FEFBFB" transform="translate(786.75,486.125)"/>
<path d="M0 0 C8.4839683 6.87843645 13.6209623 14.53605308 15.875 25.3125 C16.80859615 36.47223073 14.30410035 46.42917634 7.34375 55.25390625 C0.6626981 62.54948886 -9.01927328 67.00816471 -18.88671875 67.5 C-29.86825599 66.97550867 -38.65392654 64.67713091 -47.0625 57.0625 C-53.80455754 49.62979267 -57.5960776 39.6231978 -57.30859375 29.62890625 C-56.49704183 19.38953841 -52.73264742 9.87584958 -45.0703125 2.84375 C-32.24163878 -7.25432249 -13.76409368 -9.67705437 0 0 Z " fill="#FEFCFC" transform="translate(661.125,358.6875)"/>
<path d="M0 0 C5.61 0 11.22 0 17 0 C17 52.47 17 104.94 17 159 C11.39 159 5.78 159 0 159 C0 106.53 0 54.06 0 0 Z " fill="#FEFAFB" transform="translate(662,464)"/>
<path d="M0 0 C3.71268094 1.54127351 5.98115698 3.80843234 8.75 6.6875 C12.31249374 10.38215077 16.01368597 13.79050235 19.88964844 17.14575195 C23.42908777 20.25565961 26.83307893 23.50680729 30.25 26.75 C36.11554258 32.2947011 42.0180343 37.79005318 47.98046875 43.23046875 C52.13896345 47.03351281 56.24777704 50.88987313 60.36376953 54.73876953 C64.39569076 58.50731443 68.44064175 62.26103507 72.5 66 C77.82643878 70.90655631 83.12343104 75.84394166 88.4140625 80.7890625 C92.94549363 85.02212779 97.49646992 89.23330573 102.05737305 93.43457031 C108.73489905 99.59081782 115.36583837 105.79710476 122 112 C118.58001378 112 118.17237801 111.61751151 115.6640625 109.5078125 C114.69654053 108.70549194 114.69654053 108.70549194 113.70947266 107.88696289 C113.02159668 107.30551514 112.3337207 106.72406738 111.625 106.125 C110.16776791 104.91663946 108.70942183 103.70962118 107.25 102.50390625 C106.52683594 101.90465332 105.80367187 101.30540039 105.05859375 100.68798828 C100.73096393 97.139455 96.25760714 93.78154273 91.80908203 90.38671875 C81.03096389 82.12494938 70.35543666 73.72748645 59.68554688 65.32666016 C56.79191173 63.04913794 53.89580677 60.77475993 51 58.5 C49.83332204 57.5833477 48.66665536 56.66668105 47.5 55.75 C46.9225 55.29625 46.345 54.8425 45.75 54.375 C31.16666667 42.91666667 16.58333333 31.45833333 2 20 C-1.71164158 21.64271218 -4.68166296 23.94892687 -7.875 26.4375 C-8.7249353 27.09794312 -8.7249353 27.09794312 -9.59204102 27.77172852 C-11.39789433 29.17710716 -13.19942814 30.58786284 -15 32 C-15.86455811 32.67675781 -15.86455811 32.67675781 -16.74658203 33.3671875 C-20.24720651 36.10827054 -23.74174618 38.85700672 -27.23388672 41.60888672 C-30.15371048 43.90874237 -33.07701893 46.20415945 -36 48.5 C-37.16668361 49.4166451 -38.33335027 50.33331177 -39.5 51.25 C-41.83333333 53.08333333 -44.16666667 54.91666667 -46.5 56.75 C-47.07717773 57.2035083 -47.65435547 57.6570166 -48.24902344 58.12426758 C-49.41890016 59.04343313 -50.58882223 59.96254095 -51.75878906 60.8815918 C-54.62671157 63.13456094 -57.4939099 65.38843723 -60.359375 67.64453125 C-67.65890138 73.38952887 -74.983049 79.10203617 -82.31835938 84.80126953 C-86.97162287 88.4181604 -91.61683694 92.04489797 -96.25 95.6875 C-96.80478027 96.12312256 -97.35956055 96.55874512 -97.93115234 97.00756836 C-100.90747887 99.34660778 -103.87549939 101.69556513 -106.8359375 104.0546875 C-107.46983398 104.55782471 -108.10373047 105.06096191 -108.75683594 105.5793457 C-109.96818877 106.54105094 -111.17731825 107.50556596 -112.38378906 108.47338867 C-115.15560133 110.66998857 -117.81084117 112.4860719 -121 114 C-116.94848066 109.06549296 -112.64486968 104.62018735 -107.9375 100.3125 C-107.28265625 99.70728516 -106.6278125 99.10207031 -105.953125 98.47851562 C-103.97201292 96.64876511 -101.98631188 94.82410228 -100 93 C-98.88634692 91.97305933 -97.77304362 90.94573917 -96.66015625 89.91796875 C-95.07932689 88.45805062 -93.49826306 86.99839957 -91.91577148 85.5402832 C-87.76102791 81.71073199 -83.62796536 77.85838395 -79.5 74 C-74.32225349 69.16039204 -69.12679757 64.34094161 -63.9140625 59.5390625 C-59.76028815 55.70948518 -55.62749311 51.85787376 -51.5 48 C-44.16819943 41.14811274 -36.79714987 34.33966826 -29.41601562 27.54101562 C-22.88546989 21.52455959 -16.36960913 15.49275407 -9.875 9.4375 C-8.9152124 8.54345459 -8.9152124 8.54345459 -7.93603516 7.63134766 C-7.33581543 7.07108887 -6.7355957 6.51083008 -6.1171875 5.93359375 C-5.58722168 5.43915771 -5.05725586 4.94472168 -4.51123047 4.43530273 C-2.98099953 2.98195416 -1.48568371 1.49874527 0 0 Z " fill="#FCF5F7" transform="translate(659,150)"/>
<path d="M0 0 C0 4.12744343 -1.61750496 5.04694583 -4.4375 8 C-5.37064647 8.99537818 -6.30159171 9.99282395 -7.23046875 10.9921875 C-7.93502197 11.74967285 -7.93502197 11.74967285 -8.65380859 12.52246094 C-11.82255135 16.00037736 -14.72356975 19.70655848 -17.67626953 23.3671875 C-20.3265428 26.6362815 -23.0099203 29.87826938 -25.6875 33.125 C-26.8997874 34.59631477 -28.11202642 36.0676694 -29.32421875 37.5390625 C-30.2376001 38.64749512 -30.2376001 38.64749512 -31.16943359 39.77832031 C-34.11367588 43.3516205 -37.0567964 46.92584428 -40 50.5 C-41.16666096 51.91667137 -42.33332763 53.33333803 -43.5 54.75 C-44.0775 55.45125 -44.655 56.1525 -45.25 56.875 C-56.33333333 70.33333333 -67.41666667 83.79166667 -78.5 97.25 C-79.0777417 97.95157227 -79.6554834 98.65314453 -80.25073242 99.37597656 C-81.41484354 100.78948203 -82.5790684 102.20289384 -83.7434082 103.61621094 C-86.70012504 107.20547571 -89.65471204 110.79645822 -92.60546875 114.390625 C-98.42588351 121.47610683 -104.25718301 128.54809628 -110.22363281 135.51147461 C-113.74214135 139.63419145 -117.03362858 143.90529671 -120.24609375 148.26953125 C-122 150 -122 150 -126 150 C-128.07076126 148.11503787 -129.85689074 146.28493292 -131.6875 144.1875 C-132.21931885 143.59509521 -132.7511377 143.00269043 -133.29907227 142.39233398 C-137.2079822 138.00355787 -140.91308104 133.46318208 -144.58984375 128.87890625 C-147.44402746 125.46961388 -150.45277583 122.23619931 -153.5 119 C-158.1261859 114.08691885 -162.47270687 109.04878279 -166.69140625 103.77734375 C-169.35279458 100.57557201 -172.15462246 97.53765082 -175 94.5 C-179.43834906 89.76135857 -183.59142453 84.87880421 -187.65625 79.8125 C-190.33208171 76.60150195 -193.14358276 73.54970863 -196 70.5 C-199.64886656 66.60421766 -203.15698239 62.66665963 -206.5 58.5 C-210.83927344 53.09563218 -215.50396415 48.05044877 -220.2265625 42.984375 C-224.59356317 38.299403 -228.76287298 33.45412539 -232.9140625 28.578125 C-233.44193359 27.95929443 -233.96980469 27.34046387 -234.51367188 26.70288086 C-235.56137411 25.47373564 -236.60706098 24.24286872 -237.65039062 23.01000977 C-240.63040478 19.5112415 -243.70495727 16.20451958 -247 13 C-246.67 12.34 -246.34 11.68 -246 11 C-206.07 50.93 -166.14 90.86 -125 132 C-121.65678045 130.88559348 -120.93980381 130.02527657 -118.75 127.375 C-116.42624019 124.63140123 -114.07119176 122.01328204 -111.5 119.5 C-109.06610268 117.10946833 -106.78644441 114.64953738 -104.5625 112.0625 C-101.52320349 108.53365237 -98.28983153 105.26994973 -94.97265625 102.00390625 C-92.42662171 99.41753849 -90.07978443 96.6846472 -87.71484375 93.93359375 C-85.4995262 91.43568444 -83.1310183 89.11975011 -80.75 86.78125 C-78.91757513 84.91610326 -77.20646865 82.98072254 -75.5 81 C-72.71760668 77.77043633 -69.78980571 74.76677347 -66.75 71.78125 C-64.91757513 69.91610326 -63.20646865 67.98072254 -61.5 66 C-58.74656316 62.80404653 -55.85322821 59.82769937 -52.84350586 56.87475586 C-51.06663359 55.06776312 -49.40563127 53.20655066 -47.75390625 51.28515625 C-44.08596497 47.06707221 -40.28338749 42.99307653 -36.4375 38.9375 C-35.02187522 37.43904786 -33.60651555 35.94034522 -32.19140625 34.44140625 C-31.48773926 33.69648926 -30.78407227 32.95157227 -30.05908203 32.18408203 C-26.98643039 28.92489996 -23.92928317 25.65138915 -20.875 22.375 C-20.31594971 21.7754248 -19.75689941 21.17584961 -19.1809082 20.55810547 C-18.04693805 19.34172706 -16.91306811 18.12525522 -15.77929688 16.90869141 C-12.56289098 13.45838113 -9.34374464 10.01062833 -6.125 6.5625 C-4.94009308 5.29297909 -3.75519617 4.02344885 -2.5703125 2.75390625 C-1.72210937 1.84511719 -0.87390625 0.93632813 0 0 Z " fill="#FDF7F9" transform="translate(784,698)"/>
<path d="M0 0 C5.46892965 4.2800319 8.27631809 9.65212294 9.16796875 16.5 C9.56279448 23.32941799 7.99364025 28.74901153 3.875 34.25 C-3.01666822 40.20024945 -8.91053631 41.62314888 -17.89453125 41.5234375 C-23.89004431 41.01595756 -27.26791053 38.35945492 -31.375 34.0625 C-35.30504386 29.15519925 -36.79200546 23.91395634 -37.5625 17.75 C-36.57584838 9.85678704 -33.33332424 4.55513984 -27.125 -0.375 C-18.82894192 -6.07853993 -8.38856563 -4.69759675 0 0 Z " fill="#FDF9FB" transform="translate(707.125,330.75)"/>
<path d="M0 0 C4.79678945 2.39839473 7.63683712 5.18278335 10 10 C10.68576122 14.85176063 10.60059866 19.74447492 8 24 C2.11872146 29.62557078 2.11872146 29.62557078 -2 30 C-3.11375 30.103125 -4.2275 30.20625 -5.375 30.3125 C-10.93351903 29.83331733 -13.66309161 27.44245379 -17.375 23.4375 C-20.04334326 17.79292772 -20.00757901 11.95976336 -18 6.0625 C-12.91262948 0.81614915 -7.15042565 -0.92263557 0 0 Z " fill="#FDF7F9" transform="translate(657,318)"/>
<path d="M0 0 C4.89270769 2.40019623 7.18686184 4.86277521 9 10 C9.5426923 14.34153843 9.30420953 16.42417482 7.25 20.3125 C4.49813837 23.59944584 2.62485904 24.72264491 -1.5859375 25.44140625 C-8.69600652 25.75010673 -8.69600652 25.75010673 -12.05078125 23.8203125 C-15.49501302 20.38430085 -16.42698334 17.18804529 -16.6875 12.375 C-16.4685391 8.38443768 -16.17178972 7.22750531 -13.6875 3.9375 C-8.96036971 0.52956886 -5.85511252 -0.88713826 0 0 Z " fill="#FCF5F7" transform="translate(699,378)"/>
<path d="M0 0 C2.97 0 5.94 0 9 0 C11.48614181 3.72921271 11.33170055 6.68371682 11.3125 11 C11.32861328 11.72445312 11.34472656 12.44890625 11.36132812 13.1953125 C11.36396812 16.05706334 11.29437722 18.42252438 9.98046875 21 C8 22 8 22 0 22 C0 14.74 0 7.48 0 0 Z " fill="#C70139" transform="translate(616,660)"/>
<path d="M0 0 C0.33 1.32 0.66 2.64 1 4 C-1.20778962 5.7832147 -3.10776499 7.04408568 -5.75 8.125 C-9.81072231 10.46772441 -12.11166535 13.46833165 -14.97265625 17.13671875 C-17 19 -17 19 -19.68359375 19.33203125 C-22 19 -22 19 -23 18 C-23.36969251 14.91570819 -23.24122028 13.39349901 -21.6015625 10.71875 C-15.92751604 4.34946465 -9.08652757 -2.55003793 0 0 Z " fill="#C90C42" transform="translate(637,362)"/>
<path d="M0 0 C9 1 9 1 12 4 C12.3125 7.5625 12.3125 7.5625 12 11 C11.34 11.66 10.68 12.32 10 13 C10.2127322 14.8618034 10.2127322 14.8618034 11 17 C11.350625 18.0725 11.70125 19.145 12.0625 20.25 C12.371875 21.1575 12.68125 22.065 13 23 C10 22 10 22 8.9375 20.40625 C8.3125 19.13541667 7.6875 17.86458333 7.0625 16.59375 C6.01050642 14.66242402 6.01050642 14.66242402 3 14 C3 16.97 3 19.94 3 23 C2.01 23 1.02 23 0 23 C0 15.41 0 7.82 0 0 Z " fill="#F2C7D3" transform="translate(564,659)"/>
<path d="M0 0 C2.97 0 5.94 0 9 0 C12 3 12 3 12.3125 6.5625 C12 10 12 10 10 12 C10.38766305 15.58588324 11.58566252 18.69987921 13 22 C9.73298477 20.87344302 9.06475446 20.13220701 7.5 16.9375 C7.005 15.968125 6.51 14.99875 6 14 C4.68 13.67 3.36 13.34 2 13 C2 15.97 2 18.94 2 22 C1.34 22 0.68 22 0 22 C0 14.74 0 7.48 0 0 Z " fill="#F9E7EC" transform="translate(657,660)"/>
<path d="M0 0 C2.97 0 5.94 0 9 0 C12 3 12 3 12.3125 6 C12 9 12 9 10 12 C10.3778829 15.58988752 11.58424553 18.69657291 13 22 C12.01 22 11.02 22 10 22 C9.75765625 21.43410156 9.5153125 20.86820313 9.265625 20.28515625 C8.93046875 19.55167969 8.5953125 18.81820312 8.25 18.0625 C7.92515625 17.33160156 7.6003125 16.60070312 7.265625 15.84765625 C5.97377317 13.52359666 5.97377317 13.52359666 2 13 C2 15.97 2 18.94 2 22 C1.34 22 0.68 22 0 22 C0 14.74 0 7.48 0 0 Z " fill="#FCF4F7" transform="translate(743,660)"/>
<path d="M0 0 C0.99 0.33 1.98 0.66 3 1 C3 8.26 3 15.52 3 23 C2.01 23 1.02 23 0 23 C-1.98 18.71 -3.96 14.42 -6 10 C-6.33 14.29 -6.66 18.58 -7 23 C-7.99 23 -8.98 23 -10 23 C-10 15.74 -10 8.48 -10 1 C-9.01 1 -8.02 1 -7 1 C-5.02 5.29 -3.04 9.58 -1 14 C-0.67 9.38 -0.34 4.76 0 0 Z " fill="#F3C9D4" transform="translate(608,659)"/>
<path d="M0 0 C0.99 0 1.98 0 3 0 C3.8393758 3.10256512 4.6704505 6.20729444 5.5 9.3125 C5.73847656 10.19357422 5.97695313 11.07464844 6.22265625 11.98242188 C6.44824219 12.82998047 6.67382812 13.67753906 6.90625 14.55078125 C7.11572266 15.33106689 7.32519531 16.11135254 7.54101562 16.9152832 C8 19 8 19 8 22 C7.34 22 6.68 22 6 22 C5.67 20.02 5.34 18.04 5 16 C2.69 16 0.38 16 -2 16 C-2.33 17.98 -2.66 19.96 -3 22 C-3.66 22 -4.32 22 -5 22 C-4.26861959 17.11899811 -3.15925104 12.39975848 -1.9375 7.625 C-1.75123047 6.88894531 -1.56496094 6.15289063 -1.37304688 5.39453125 C-0.91752543 3.59580556 -0.4590645 1.79782471 0 0 Z " fill="#F4D1DB" transform="translate(696,660)"/>
<path d="M0 0 C0.99 0.33 1.98 0.66 3 1 C3.33 7.27 3.66 13.54 4 20 C5.98 20 7.96 20 10 20 C10 13.73 10 7.46 10 1 C10.66 1 11.32 1 12 1 C12.05790353 4.29159316 12.09356261 7.58305603 12.125 10.875 C12.14175781 11.81214844 12.15851562 12.74929688 12.17578125 13.71484375 C12.18222656 14.61074219 12.18867187 15.50664063 12.1953125 16.4296875 C12.20578613 17.25710449 12.21625977 18.08452148 12.22705078 18.93701172 C12 21 12 21 10 23 C3.78438202 23.56505618 3.78438202 23.56505618 1.2956543 21.7722168 C-0.3799619 19.48028199 -0.34685035 18.15183485 -0.29296875 15.33203125 C-0.28330078 14.43935547 -0.27363281 13.54667969 -0.26367188 12.62695312 C-0.23853516 11.69818359 -0.21339844 10.76941406 -0.1875 9.8125 C-0.17396484 8.87212891 -0.16042969 7.93175781 -0.14648438 6.96289062 C-0.11113096 4.64134962 -0.06178674 2.32096347 0 0 Z " fill="#F4CED9" transform="translate(725,659)"/>
<path d="M0 0 C2.97 0 5.94 0 9 0 C11.48614181 3.72921271 11.33170055 6.68371682 11.3125 11 C11.32861328 11.72445312 11.34472656 12.44890625 11.36132812 13.1953125 C11.36396812 16.05706334 11.29437722 18.42252438 9.98046875 21 C8 22 8 22 0 22 C0 14.74 0 7.48 0 0 Z M2 2 C2 7.94 2 13.88 2 20 C3.65 20 5.3 20 7 20 C9.38854824 16.41717765 9.26898802 14.68606967 9.25 10.4375 C9.25515625 9.28121094 9.2603125 8.12492188 9.265625 6.93359375 C9.30463182 3.87765778 9.30463182 3.87765778 7 2 C5.35 2 3.7 2 2 2 Z " fill="#FEFCFC" transform="translate(616,660)"/>
<path d="M0 0 C2 3 2 3 2 7 C1.34 7 0.68 7 0 7 C-0.33 5.35 -0.66 3.7 -1 2 C-2.65 2.33 -4.3 2.66 -6 3 C-6 4.65 -6 6.3 -6 8 C-4.865625 8.61875 -3.73125 9.2375 -2.5625 9.875 C0.875 11.75 0.875 11.75 2 14 C2.1875 17 2.1875 17 2 20 C0 22 0 22 -3.5 22.25 C-7 22 -7 22 -9 20 C-9.125 17.375 -9.125 17.375 -9 15 C-8.34 15 -7.68 15 -7 15 C-6.67 16.32 -6.34 17.64 -6 19 C-4.35 19 -2.7 19 -1 19 C-1.18828772 16.55519921 -1.18828772 16.55519921 -2 14 C-3.96758273 12.63979849 -3.96758273 12.63979849 -6 12 C-6 11.34 -6 10.68 -6 10 C-7.32 9.34 -8.64 8.68 -10 8 C-9.74438677 5.6568787 -9.40729228 3.32156597 -9 1 C-5.95699684 -0.52150158 -3.345915 -0.23899393 0 0 Z " fill="#F2C8D4" transform="translate(718,660)"/>
<path d="M0 0 C3.63 0 7.26 0 11 0 C11 0.66 11 1.32 11 2 C8.03 2 5.06 2 2 2 C2 4.64 2 7.28 2 10 C4.97 10 7.94 10 11 10 C11 10.33 11 10.66 11 11 C8.03 11 5.06 11 2 11 C2 13.97 2 16.94 2 20 C5.3 20 8.6 20 12 20 C12 20.66 12 21.32 12 22 C8.04 22 4.08 22 0 22 C0 14.74 0 7.48 0 0 Z " fill="#FBECF0" transform="translate(582,660)"/>
<path d="M0 0 C3.63 0 7.26 0 11 0 C11 0.66 11 1.32 11 2 C8.03 2 5.06 2 2 2 C2 4.64 2 7.28 2 10 C4.97 10 7.94 10 11 10 C11 10.33 11 10.66 11 11 C8.03 11 5.06 11 2 11 C2 13.97 2 16.94 2 20 C4.97 20 7.94 20 11 20 C11 20.66 11 21.32 11 22 C7.37 22 3.74 22 0 22 C0 14.74 0 7.48 0 0 Z " fill="#FEFCFD" transform="translate(761,660)"/>
<path d="M0 0 C3.63 0 7.26 0 11 0 C11 0.66 11 1.32 11 2 C8.03 2 5.06 2 2 2 C2 4.64 2 7.28 2 10 C4.97 10 7.94 10 11 10 C11 10.33 11 10.66 11 11 C8.03 11 5.06 11 2 11 C2 13.97 2 16.94 2 20 C4.97 20 7.94 20 11 20 C11 20.66 11 21.32 11 22 C7.37 22 3.74 22 0 22 C0 14.74 0 7.48 0 0 Z " fill="#FBEFF2" transform="translate(675,660)"/>
<path d="M0 0 C3.63 0 7.26 0 11 0 C11 0.66 11 1.32 11 2 C9.68 2 8.36 2 7 2 C7 8.6 7 15.2 7 22 C6.01 22 5.02 22 4 22 C4 15.4 4 8.8 4 2 C2.68 2 1.36 2 0 2 C0 1.34 0 0.68 0 0 Z " fill="#F4D0DA" transform="translate(641,660)"/>
<path d="M0 0 C3.63 0 7.26 0 11 0 C11 0.66 11 1.32 11 2 C9.68 2 8.36 2 7 2 C7 8.6 7 15.2 7 22 C6.01 22 5.02 22 4 22 C4 15.4 4 8.8 4 2 C2.68 2 1.36 2 0 2 C0 1.34 0 0.68 0 0 Z " fill="#F4D0DA" transform="translate(548,660)"/>
<path d="M0 0 C-1.1728427 3.51852809 -1.83086877 3.74725327 -4.9375 5.5 C-7.96692226 7.21538974 -8.99489922 7.99234883 -11 11 C-12.32 11 -13.64 11 -15 11 C-14.9158797 8.13990965 -14.43181261 6.45351173 -12.4453125 4.3671875 C-5.76981814 -1.36653587 -5.76981814 -1.36653587 0 0 Z " fill="#CA1146" transform="translate(692,333)"/>
<path d="M0 0 C0.66 0.33 1.32 0.66 2 1 C1.27683594 1.68835938 1.27683594 1.68835938 0.5390625 2.390625 C-0.09257813 3.00421875 -0.72421875 3.6178125 -1.375 4.25 C-2.00148438 4.85328125 -2.62796875 5.4565625 -3.2734375 6.078125 C-5.06131302 7.86338246 -5.06131302 7.86338246 -5.828125 9.9140625 C-7.62407904 13.11086069 -10.48247415 14.97790482 -13.375 17.125 C-13.9525 17.56714844 -14.53 18.00929688 -15.125 18.46484375 C-17.98187436 20.62380588 -20.7737052 22.46071386 -24 24 C-19.74201879 18.85081342 -15.24121413 14.25458146 -10.3125 9.75 C-8.99571534 8.53686894 -7.67929547 7.32334179 -6.36328125 6.109375 C-5.78876221 5.58311523 -5.21424316 5.05685547 -4.62231445 4.51464844 C-3.04571899 3.04268481 -1.51571047 1.53435919 0 0 Z " fill="#F8E3E9" transform="translate(562,240)"/>
<path d="M0 0 C6.875 0.875 6.875 0.875 8 2 C8.1875 4.4375 8.1875 4.4375 8 7 C6 9 6 9 2.875 9.125 C1.451875 9.063125 1.451875 9.063125 0 9 C0 6.03 0 3.06 0 0 Z " fill="#CA0F45" transform="translate(659,662)"/>
<path d="M0 0 C0 4.14613757 -1.6678128 5.09808719 -4.5 8.0625 C-8.69320171 12.49748803 -12.48525629 17.08521732 -16.11328125 22.00390625 C-18.25359255 24.26829357 -20.05756359 25.06307963 -23 26 C-21.34266274 21.65080922 -18.08853566 18.90857556 -14.8125 15.75 C-9.97627573 11.00980666 -5.36647672 6.18155238 -1 1 C-0.67 0.67 -0.34 0.34 0 0 Z " fill="#F3C9D5" transform="translate(784,698)"/>
<path d="M0 0 C2.42604752 2.42604752 2.75843519 4.14192776 3.625 7.4375 C3.88539063 8.40558594 4.14578125 9.37367188 4.4140625 10.37109375 C5 13 5 13 5 16 C4.34 16 3.68 16 3 16 C2.67 14.02 2.34 12.04 2 10 C-0.31 10 -2.62 10 -5 10 C-5.33 11.98 -5.66 13.96 -6 16 C-6.66 16 -7.32 16 -8 16 C-7.5020163 12.26512223 -7.12508244 10.18762365 -5 7 C-2.03 7.495 -2.03 7.495 1 8 C0.67 5.36 0.34 2.72 0 0 Z " fill="#F8DFE6" transform="translate(699,666)"/>
<path d="M0 0 C2.31 0.33 4.62 0.66 7 1 C7.125 3.875 7.125 3.875 7 7 C5 9 5 9 2.375 9.125 C1.59125 9.08375 0.8075 9.0425 0 9 C0 6.03 0 3.06 0 0 Z " fill="#C7023A" transform="translate(745,662)"/>
<path d="M0 0 C1.98 0 3.96 0 6 0 C6.625 3.375 6.625 3.375 7 7 C5 9 5 9 2.375 9.125 C1.59125 9.08375 0.8075 9.0425 0 9 C0 6.03 0 3.06 0 0 Z " fill="#C8083F" transform="translate(567,662)"/>
<path d="M0 0 C3 1 3 1 4 3 C4.15051566 5.66007481 4.23127734 8.27654185 4.25 10.9375 C4.270625 11.66646484 4.29125 12.39542969 4.3125 13.14648438 C4.35200945 18.53458545 4.35200945 18.53458545 2.484375 21.00390625 C1.99453125 21.33261719 1.5046875 21.66132812 1 22 C0.34 21.67 -0.32 21.34 -1 21 C-0.67386719 20.4740625 -0.34773437 19.948125 -0.01171875 19.40625 C1.28768319 16.31578051 1.22968276 13.84394258 1.1875 10.5 C1.18105469 9.3759375 1.17460938 8.251875 1.16796875 7.09375 C1.0295553 4.54436746 0.74334614 2.4262818 0 0 Z " fill="#F7DBE3" transform="translate(623,660)"/>
<path d="M0 0 C0 3 0 3 -2.0625 5.3125 C-6.89350819 9.73235856 -11.85602566 13.94717173 -17 18 C-13.70998018 10.4847263 -6.1721195 5.14343291 0 0 Z " fill="#F9E4EA" transform="translate(764,721)"/>
<path d="M0 0 C2 3 2 3 2 7 C1.34 7 0.68 7 0 7 C-0.33 5.35 -0.66 3.7 -1 2 C-5.82442184 3.26946514 -5.82442184 3.26946514 -9 7 C-9 5.02 -9 3.04 -9 1 C-5.95699684 -0.52150158 -3.345915 -0.23899393 0 0 Z " fill="#F7DDE4" transform="translate(718,660)"/>
<path d="M0 0 C-0.33589994 3.13506611 -1.02665172 4.025249 -3.375 6.25 C-6 8 -6 8 -9 8 C-8.875 6.25 -8.875 6.25 -8 4 C-2.77777778 0 -2.77777778 0 0 0 Z " fill="#CD1B4E" transform="translate(651,321)"/>
<path d="M0 0 C5.29012124 4.40843437 10.18808428 9.07559794 15 14 C14.34 14.66 13.68 15.32 13 16 C10.82529395 13.71584679 8.66166755 11.42149089 6.5 9.125 C5.56994141 8.14853516 5.56994141 8.14853516 4.62109375 7.15234375 C4.03457031 6.52714844 3.44804688 5.90195312 2.84375 5.2578125 C2.29912109 4.6817627 1.75449219 4.10571289 1.19335938 3.51220703 C0 2 0 2 0 0 Z " fill="#F3CCD7" transform="translate(537,709)"/>
<path d="M0 0 C0.33 0.99 0.66 1.98 1 3 C-0.59679804 4.3421492 -2.20270197 5.67347115 -3.8125 7 C-5.15248047 8.11375 -5.15248047 8.11375 -6.51953125 9.25 C-9 11 -9 11 -12 11 C-10.37807179 9.35113941 -8.75236228 7.7059976 -7.125 6.0625 C-6.22007812 5.14597656 -5.31515625 4.22945313 -4.3828125 3.28515625 C-2 1 -2 1 0 0 Z " fill="#F5D4DD" transform="translate(550,252)"/>
<path d="M0 0 C2.29633824 3.44450737 2.54016485 5.93812283 3 10 C1.35 10 -0.3 10 -2 10 C-1.34 6.7 -0.68 3.4 0 0 Z " fill="#CC1A4D" transform="translate(697,664)"/>
<path d="M0 0 C2 2 2 2 2.125 5.625 C2.08375 6.73875 2.0425 7.8525 2 9 C-0.1385485 6.8614515 -0.42655063 5.86724686 -1 3 C-3.31 2.34 -5.62 1.68 -8 1 C-4.9553071 -0.84856355 -3.35670253 -1.34268101 0 0 Z " fill="#F6D8E0" transform="translate(667,661)"/>
<path d="M0 0 C5 7.5 5 7.5 5 10 C3.125 9.375 3.125 9.375 1 8 C-0.3125 5 -0.3125 5 -1 2 C-0.67 1.34 -0.34 0.68 0 0 Z " fill="#F7DBE2" transform="translate(665,672)"/>
<path d="M0 0 C2.17854707 3.2678206 3.49760034 6.38058265 5 10 C4.01 10 3.02 10 2 10 C-1.07692308 4.58461538 -1.07692308 4.58461538 -0.6875 1.625 C-0.460625 1.08875 -0.23375 0.5525 0 0 Z " fill="#F6D9E1" transform="translate(751,672)"/>
<path d="M0 0 C3.875 1.875 3.875 1.875 5 3 C5.04080783 4.99958364 5.04254356 7.00045254 5 9 C4.01 9 3.02 9 2 9 C2 7.02 2 5.04 2 3 C1.34 2.67 0.68 2.34 0 2 C0 1.34 0 0.68 0 0 Z " fill="#ECABBD" transform="translate(750,660)"/>
<path d="M0 0 C-1.23789629 3.71368887 -2.85224877 4.77354181 -6 7 C-6.66 7 -7.32 7 -8 7 C-6.47663111 3.31852519 -4.31953005 0 0 0 Z " fill="#CA0F44" transform="translate(694,381)"/>
<path d="M0 0 C0.66 0 1.32 0 2 0 C2.28875 0.78375 2.5775 1.5675 2.875 2.375 C3.84912254 5.09671632 3.84912254 5.09671632 6 7 C1.125 6.125 1.125 6.125 0 5 C-0.04063832 3.33382885 -0.042721 1.66611905 0 0 Z " fill="#FBEDF1" transform="translate(709,675)"/>
</svg>
