<?xml version="1.0" encoding="utf-8"?>
<!-- Generator: Adobe Illustrator 27.5.0, SVG Export Plug-In . SVG Version: 6.00 Build 0)  -->
<svg version="1.1" id="Layer_1" xmlns="http://www.w3.org/2000/svg" xmlns:xlink="http://www.w3.org/1999/xlink" x="0px" y="0px"
	 viewBox="0 0 4975 4975" style="enable-background:new 0 0 4975 4975;" xml:space="preserve">
<radialGradient id="SVGID_1_" cx="2888.0044" cy="2347.9795" r="605.9434" gradientTransform="matrix(6.6166 0 0 5.9093 -16621.2695 -11387.415)" gradientUnits="userSpaceOnUse">
	<stop  offset="0.5394" style="stop-color:#FFFFFF"/>
	<stop  offset="0.6294" style="stop-color:#FAFAFB"/>
	<stop  offset="0.7326" style="stop-color:#ECEDED"/>
	<stop  offset="0.8423" style="stop-color:#D5D6D8"/>
	<stop  offset="0.9558" style="stop-color:#B6B7BA"/>
	<stop  offset="1" style="stop-color:#A7A9AC"/>
</radialGradient>
<rect style="fill:url(#SVGID_1_);" width="4975" height="4975"/>
<g>
	<path d="M3610.202,3552.841c9.627,0,19.374-2.846,29.231-8.537c11.383-6.356,17.083-14.016,17.083-22.995
		c0-12.482-5.7-18.728-17.083-18.728c-9.636,0-19.272,3.289-28.908,9.857c-10.735,7.225-16.094,15.327-16.094,24.308
		C3594.432,3547.481,3599.688,3552.841,3610.202,3552.841z"/>
	<path d="M4389.955,3783.326c-29.261-5.437-57.356-14.151-86.955-23.333c-6.859-2.127-13.953-4.328-20.984-6.459
		c-17.162-5.433-32.855-8.184-46.643-8.184c-27.625,0-48.236,10.775-61.279,32.061c-14.802,24.521-17.123,49.708-7.09,77.004
		c8.598,23.385,24.949,45.16,40.767,66.216c8.938,11.901,17.382,23.143,24.294,34.411c3.981,6.469,6.215,13.57,6.816,21.701
		c-0.264,8.543-1.297,16.414-3.072,23.393c-6.183,24.295-21.872,39.14-47.999,45.398c-3.587,0.87-7.278,1.31-10.982,1.31
		c-15.364,0-30.917-7.708-41.632-20.655c-16.37-19.504-22.945-43.337-21.31-77.291c0.399-8.306,1.247-17.223,2.769-28.957
		c0.51-4.192,1.111-8.521,1.753-13.104c0.4-2.879,0.81-5.806,1.204-8.776c2.677-14.336,9.436-62.753-13.293-95.037
		c-9.92-14.098-23.891-22.698-41.521-25.568c-6.769-1.564-13.757-2.505-21.351-2.879c-2.396-0.113-4.874-0.175-7.379-0.175
		c-18.555,0-37.491,3.229-55.809,6.354c-12.898,2.201-34.02,8.218-42.937,6.812c-0.686-0.192-1.306-0.399-1.855-0.615
		c-7.906-3.538-11.86-11.066-11.86-22.589c0-7.748,1.542-15.166,4.627-22.264c28.606-9.629,56.561-22.967,83.853-40.032
		c37.197-22.958,55.795-44.171,55.795-63.645c0-14.876-8.807-22.312-26.408-22.312c-23.762,0-52.473,14.326-86.142,42.984
		c-31.689,26.694-52.587,52.175-62.704,76.451c-16.945,3.965-38.84,13.65-65.679,29.049c-24.427,14.31-43.351,22.563-56.771,24.761
		c-1.907,0.303-3.489,0.782-4.765,1.433c-1.775-0.523-4.008-0.883-6.719-1.072c-7.889-0.545-11.822-4.333-11.822-11.374
		c0-7.032,17.737-27.524,53.212-61.482c35.479-33.953,53.216-57.413,53.216-70.382c0-14.727-7.813-22.092-23.438-22.092
		c-24.426,0-66.905,25.713-127.43,77.127c35.145-46.777,52.715-72.148,52.715-76.1c0-3.511-1.93-6.534-5.775-9.066
		c-3.84-2.521-7.638-3.787-11.373-3.787c-3.964,0-7.703,0.667-11.215,1.977c-7.041,4.61-12.214,8.566-15.501,11.853
		c-19.569,19.101-51.563,46.642-95.985,82.636c-49.472,39.947-82.222,63.434-98.279,70.456c-11.216,5.054-21.003,8.341-29.354,9.875
		c-1.094,0.233-2.087,0.51-2.988,0.825c-0.475-0.152-1.006-0.232-1.6-0.232c-12.881,0-19.319-2.957-19.319-8.89
		c0-7.243,17.737-31.106,53.216-71.608c35.479-40.507,53.217-65.368,53.217-74.588c0-8.557-3.744-12.841-11.216-12.841
		c-7.476,0-13.408,0.777-17.804,2.312l-100.925,84.655c-46.399,36.675-76.728,58.96-91.024,66.857
		c-11.426,6.376-24.065,10.877-37.922,13.51c-1.262,0.259-2.338,0.655-3.234,1.173c-11.277-0.188-16.911-2.931-16.911-8.24
		c0-11.447,8.675-31.044,26.026-58.779c16.686-27.067,30.635-44.791,41.842-53.159c48.382-35.809,93.138-72.829,134.268-111.06
		c65.096-60.85,97.647-105.122,97.647-132.801c0-10.762-5.063-16.15-15.179-16.15c-21.776,0-64.555,31.885-128.332,95.644
		c-57.408,57.391-102.494,110.598-135.266,159.617c-28.333,22.443-55.237,42.905-80.709,61.386
		c-34.921,25.96-59.629,42.791-74.131,50.486c-12.077,6.609-22.729,10.569-31.959,11.884c-2.861,0.452-5.207,1.081-7.063,1.872
		c-1.934-0.77-4.605-1.271-8.02-1.512c-7.894-0.545-11.826-4.333-11.826-11.374c0-7.032,17.736-27.524,53.215-61.482
		c35.475-33.953,53.217-57.413,53.217-70.382c0-14.727-7.818-22.092-23.441-22.092c-24.427,0-66.906,25.713-127.431,77.127
		c35.145-46.777,52.72-72.148,52.72-76.1c0-3.511-1.934-6.534-5.774-9.066c-3.846-2.521-7.644-3.787-11.374-3.787
		c-3.965,0-7.709,0.667-11.216,1.977c-7.04,4.61-12.218,8.566-15.505,11.853c-19.569,19.101-51.563,46.642-95.98,82.636
		c-49.477,39.947-82.227,63.434-98.285,70.456c-11.215,5.054-20.998,8.341-29.352,9.875c-0.392,0.083-0.773,0.171-1.143,0.269
		c-11.954-0.035-17.927-2.778-17.927-8.25c0-11.443,8.675-31.04,26.026-58.775c1.226-1.99,2.434-3.924,3.629-5.813
		c32.539-31.015,64.665-67.728,96.382-110.155c60.222-80.146,90.33-147.008,90.33-200.594c0-18.664-5.516-33.65-16.538-44.958
		c-11.031-11.308-25.814-16.964-44.365-16.964c1.534-11.426-2.403-17.144-11.826-17.144c-1.683,0-3.26,5.827-4.729,17.478
		c-21.622,4.176-41.465,11.963-59.518,23.376c0-13.048-5.459-19.569-16.38-19.569c-9.673,0-40.659,19.771-92.953,59.303
		c-51.203,38.664-94.605,84.796-130.194,138.381c-18.476,27.947-32.794,55.229-42.963,81.84l-17.813,15.267
		c-70.874,58.601-89.107,86.384-153.732,115.121c-63.216,28.111-139.915,39.441-170.938,40.213
		c-184.38-3.715-380.976,13.742-554.493,29.146c-142.274,12.63-276.654,24.559-382.123,22.93
		c-55.62-0.86-99.638-5.354-134.566-13.741c-37.148-8.919-63.241-21.959-79.771-39.865c-22.043-23.881-30.496-45.457-25.842-65.963
		c5.778-25.458,31.682-50.861,79.19-77.663c43.886-24.758,98.934-46.681,152.168-67.882
		c96.97-38.619,173.563-69.123,181.023-111.866c2.759-15.81-4.111-31.146-20.421-45.585
		c-31.069-27.504-73.348-49.664-125.662-65.863c-41.286-12.784-88.974-21.94-141.738-27.213
		c-89.507-8.944-161.746-3.705-164.777-3.479l1.858,24.803c0.724-0.054,73.436-5.311,160.845,3.464
		c79.654,7.994,188.205,29.562,252.988,86.911c14.175,12.548,12.843,20.179,12.406,22.686c-1.436,8.228-11.232,22.323-49.746,42.75
		c-31.008,16.445-72.281,32.883-115.978,50.286c-54.001,21.506-109.84,43.744-155.187,69.326
		c-54.716,30.867-83.703,60.679-91.225,93.819c-6.511,28.688,4.195,58.41,31.821,88.338
		c37.064,40.153,110.856,59.729,232.228,61.606c6.666,0.103,13.422,0.152,20.304,0.152c103.326-0.001,230.39-11.28,364.402-23.177
		c171.341-15.212,365.263-32.419,546.878-29.139c49.339,2.313,178.915-22.236,255.163-91.707l80.583-64.202
		c-4.351,18.778-6.526,37.21-6.526,55.286c0,57.562,27.801,86.33,83.408,86.33c33.408,0,68.57-13.285,105.5-39.856
		c4.127-2.966,8.249-6.038,12.367-9.185c-0.919,5.089-1.38,9.721-1.38,13.888c0,18.497,9.048,27.734,27.138,27.734
		c2.834,0,5.313-0.132,7.448-0.399c0.427,0.088,0.897,0.132,1.411,0.132c16.945,0,41.244-10.745,72.913-32.253l62.353-47.719
		l84.454-68.461l-54.362,64.246c-30.32,35.8-45.473,56.228-45.473,61.272c0,3.744,1.424,7.317,4.289,10.719
		c2.86,3.396,6.052,5.098,9.571,5.098c4.619,0,17.698-11.382,39.263-34.147c16.946-17.895,42.897-40.762,77.875-68.605
		c42.018-33.594,69.292-50.391,81.839-50.391c3.951,0,5.938,1.441,5.938,4.307c0,3.538-8.803,13.702-26.412,30.5
		c-23.561,22.541-39.848,39.218-48.874,50.043c-17.61,21.002-26.413,38.353-26.413,52.047c0,16.349,9.071,24.526,27.226,24.526
		c7.309,0,12.921-0.483,16.837-1.454c0.515,0.18,1.116,0.272,1.814,0.272c20.427,0,52.597-15.052,96.509-45.151l81.369-61.29
		c-17.157,35.22-25.731,61.844-25.731,79.888c0,18.498,9.044,27.735,27.134,27.735c4.935,0,8.807-0.408,11.619-1.217
		c0.201,0.021,0.408,0.035,0.624,0.035c23.96,0,62.528-21.776,115.709-65.328l89.996-73.577
		c-49.116,58.701-73.66,97.291-73.66,115.754c0,15.834,8.275,23.74,24.843,23.74c6.153,0,11.005-0.383,14.56-1.143
		c0.673,0.369,1.543,0.554,2.61,0.554c16.947,0,41.245-10.745,72.914-32.253l62.353-47.719l84.454-68.461l-54.363,64.246
		c-30.319,35.8-45.473,56.228-45.473,61.272c0,3.744,1.424,7.317,4.285,10.719c2.865,3.396,6.052,5.098,9.572,5.098
		c4.619,0,17.701-11.382,39.267-34.147c16.942-17.895,42.893-40.762,77.875-68.605c42.019-33.594,69.288-50.391,81.835-50.391
		c3.955,0,5.941,1.441,5.941,4.307c0,3.538-8.803,13.702-26.413,30.5c-23.56,22.541-39.847,39.218-48.874,50.043
		c-17.609,21.002-26.412,38.353-26.412,52.047c0,16.349,9.07,24.526,27.226,24.526c7.344,0,12.978-0.487,16.897-1.468
		c0.502,0.189,1.086,0.286,1.763,0.286c13.856,0,34.213-7.753,61.057-23.257c30.358-17.707,51.045-27.889,62.049-30.553
		c-1.542,6.839-2.307,13.109-2.307,18.841c0,24.888,14.274,37.333,42.84,37.333c8.613,0,15.852-0.276,21.719-0.826
		c11.698-0.285,38.753-3.925,62.089-4.711c19.521-0.655,36.577,1.678,38.828,2.17c13.72,3.056,21.09,12.218,28.381,23.06
		c7.291,10.838,28.192,53.142,20.58,86.854l-0.048,0.229l-0.036,0.228c-0.848,5.872-1.797,11.783-2.772,17.83l-0.206,1.287
		c-3.771,23.332-7.665,47.459-6.074,71.744c2.589,38.833,31.542,71.208,70.461,78.741c4.998,0.923,10.047,1.389,15.009,1.389
		c19.007,0,36.788-6.667,51.444-19.302c14.191-12.38,24.519-28.658,29.877-47.081c2.543-8.75,3.972-17.939,4.24-27.309
		c0.997-12.279-2.694-24.176-11.295-36.362l-0.078-0.109c-7.402-9.985-15.752-19.904-23.829-29.498
		c-31.792-37.76-61.817-73.428-48.54-122.117l0.018-0.058c5.124-19.573,22.924-33.781,42.317-33.781
		c2.689,0,5.401,0.271,8.063,0.813c14.244,3.266,28.447,7.075,42.182,10.763c37.307,10.016,72.539,19.474,110.251,19.474
		c2.579,0,5.159-0.049,7.722-0.141c2.584-0.093,5.15-0.229,7.678-0.413l0.531-11.734
		C4395.114,3784.258,4392.529,3783.805,4389.955,3783.326z M3975.5,3667.911c24.676-26.259,44.18-39.386,58.502-39.386
		c4.838,0,7.269,2.632,7.269,7.879c0,12.908-14.985,30.408-44.954,52.505c-22.479,16.854-43.85,30.191-64.119,40.04
		C3939.022,3712.108,3953.455,3691.765,3975.5,3667.911z M3471.373,3521.052c59.299-67.104,93.23-100.658,101.805-100.658
		c3.955,0,5.933,1.763,5.933,5.283c0,34.978-71.832,110.884-215.479,227.71C3379.004,3629.404,3414.918,3585.298,3471.373,3521.052z
		 M2954.353,3365.486c-11.51,30.108-38.181,73.181-80.015,129.214c-46.712,62.419-80.239,93.617-100.604,93.617
		c-7.309,0-10.956-3.955-10.956-11.861c0-11.431,8.35-31.432,25.063-59.997c16.713-28.565,41.126-57.681,73.221-87.354
		C2895.143,3397.247,2926.24,3376.038,2954.353,3365.486z M2668.439,3792.313c-13.646,0-24.206-4.834-31.69-14.507
		c-7.04-8.785-10.561-20.216-10.561-34.274c0-44.606,17.148-96.456,51.462-155.565c29.027-50.091,63.008-94.152,101.941-132.163
		c21.986-21.525,51.906-44.158,89.736-67.895c-86.41,67.165-129.61,127.637-129.61,181.406c0,23.706,8.583,35.558,25.749,35.558
		c37.619,0,92.083-53.233,163.388-159.7c20.897-31.388,35.312-59.702,43.24-84.95c2.417-0.88,4.948-1.323,7.594-1.323
		c23.319,0,34.978,11.541,34.978,34.608c0,32.521-21.455,81.637-64.356,147.321c-42.251,64.606-89.45,121.3-141.599,170.072
		C2750.841,3765.175,2704.081,3792.313,2668.439,3792.313z"/>
</g>
<g>
	<path style="fill:#BE1E2D;" d="M4577.684,3852.552l-6.404-134.979c-18.217-4.916-38.438-7.025-59.311-6.037
		c-34.139,1.621-65.781,11.323-89.095,27.313c-22.619,15.521-34.558,35.054-33.612,55.003c0.947,19.945,14.682,38.261,38.669,51.567
		c24.722,13.716,57.139,20.375,91.28,18.756C4540.082,3863.185,4560.014,3859.17,4577.684,3852.552z"/>
	<path style="fill:#F7941D;" d="M4583.868,3781.178c-0.167-3.524,2.831-6.435,6.825-6.624l24.043-1.142
		c3.997-0.188,7.258,2.425,7.426,5.95l0.06,1.254l24.093-1.143c-4.009-26.211-30.716-48.898-70.162-59.525l2.974,62.713l4.802-0.229
		L4583.868,3781.178z"/>
	<path style="fill:#F7941D;" d="M4646.574,3784.932l-24.094,1.145l0.033,0.663c0.166,3.524-2.834,6.436-6.83,6.624l-24.045,1.142
		c-3.993,0.188-7.254-2.424-7.421-5.948l-0.03-0.664l-4.802,0.229l2.976,62.714
		C4620.623,3836.52,4645.063,3811.409,4646.574,3784.932z"/>
	<path d="M4591.415,3789.753c-1.312,0.063-2.406-0.574-2.446-1.423l-0.35-7.378c-0.039-0.849,0.988-1.588,2.3-1.65l24.042-1.141
		c1.314-0.063,2.408,0.576,2.449,1.428l0.35,7.376c0.041,0.848-0.988,1.585-2.302,1.647L4591.415,3789.753z"/>
</g>
<g>
	<path style="fill:none;stroke:#000000;stroke-width:18;stroke-miterlimit:10;" d="M1447.833,1127.741
		c0,0,87.266-839.086-179.188-825.185c-266.455,13.901-112.746,695.566-90.933,821.744"/>
	<polygon style="fill:#3C2415;" points="1681.813,792.179 1801.825,792.179 1891.834,771.176 2411.18,2757.872 2111.871,2757.872 	
		"/>
	<polygon style="fill:#603913;" points="1683.313,792.179 822.058,1082.501 511.852,3397.389 2055.35,2694.372 	"/>
	<polygon style="fill-rule:evenodd;clip-rule:evenodd;fill:#F7941D;" points="822.058,1082.501 511.852,3397.389 1050.981,3266.693 
		939.577,1092.751 	"/>
	<polygon style="fill-rule:evenodd;clip-rule:evenodd;fill:#ED1C24;" points="938.989,1093.866 1050.906,3266.553 
		1342.521,3386.283 1067.087,1083.113 	"/>
	<polygon style="fill-rule:evenodd;clip-rule:evenodd;fill:#C4262D;" points="1050.97,3266.553 511.852,3397.389 1058.515,3392.708 
		1342.521,3386.283 	"/>
	<polygon style="fill:#BE1E2D;" points="1067.087,1083.113 1893.334,771.176 2412.68,2757.872 1342.522,3386.283 	"/>
	<circle style="fill:#3C2415;" cx="1416.879" cy="1132.197" r="26.604"/>
	<circle cx="1416.879" cy="1132.197" r="16.89"/>
	<path style="fill:#3C2415;" d="M1693.845,1030.326c0-14.693-11.911-26.604-26.604-26.604c-14.693,0-26.604,11.911-26.604,26.604
		c0,14.693,11.911,26.604,26.604,26.604C1681.934,1056.93,1693.845,1045.02,1693.845,1030.326z"/>
	<path d="M1667.241,1047.217c-9.313,0-16.891-7.577-16.891-16.891c0-9.313,7.577-16.891,16.891-16.891
		c9.313,0,16.89,7.578,16.89,16.891C1684.131,1039.64,1676.554,1047.217,1667.241,1047.217z"/>
	<path style="fill:none;stroke:#000000;stroke-width:18;stroke-miterlimit:10;" d="M1416.879,1132.197
		c0,0-386.533-749.849-133.278-833.832s358.057,606.894,383.64,732.361"/>
</g>
<path d="M1408.893,3856.502l-3.095-33.906c20.26,7.142,34.955,11.225,44.086,12.256c9.128,1.03,17.517,1.193,25.166,0.495
	c13.875-1.267,24.484-6.039,31.824-14.324c7.341-8.281,10.533-17.691,9.572-28.229c-0.724-7.927-3.494-15.068-8.305-21.422
	c-4.915-6.231-16.265-13.357-34.048-21.373l-17.574-8.09c-23.41-10.568-39.409-20.719-47.999-30.451
	c-8.589-9.73-13.464-20.951-14.625-33.66c-1.042-11.406,1.009-22.38,6.156-32.93c5.147-10.546,12.565-19.109,22.259-25.69
	c9.692-6.579,22.288-10.578,37.793-11.993c18.667-1.705,38.654-0.407,59.963,3.891l2.857,31.299
	c-18.688-5.421-31.462-8.558-38.322-9.411c-6.86-0.853-13.624-0.977-20.294-0.367c-13.998,1.277-24.027,5.864-30.087,13.754
	c-6.063,7.894-8.744,15.643-8.05,23.245c0.476,5.214,2.55,10.363,6.224,15.451c3.673,5.086,8.375,9.314,14.104,12.678
	c5.729,3.366,13.529,7.283,23.399,11.747l18.241,8.193c23.636,10.658,39.701,20.914,48.194,30.761
	c8.5,9.961,13.381,21.838,14.64,35.632c1.715,18.795-3.972,35.744-17.062,50.848c-13.09,15.106-33.6,23.933-61.529,26.483
	c-8.621,0.786-17.021,0.979-25.199,0.574C1439.002,3861.558,1426.24,3859.737,1408.893,3856.502z"/>
<path d="M1612.892,3834.005l-15.089-241.688l34.293-2.14l6.362,101.9l114.965-7.178l-6.362-101.901l34.293-2.141l15.089,241.688
	l-34.293,2.142l-7.126-114.149l-114.966,7.179l7.127,114.147L1612.892,3834.005z"/>
<path d="M1951.75,3818.14c-22.905,0.242-42.894-4.677-59.962-14.748c-17.071-10.071-30.371-24.903-39.905-44.495
	c-9.534-19.588-14.432-41.818-14.694-66.688c-0.253-23.994,3.959-45.883,12.643-65.668c8.681-19.78,21.637-35.105,38.867-45.98
	c17.23-10.871,37.352-16.431,60.367-16.673c23.013-0.243,43.25,4.89,60.706,15.395c17.456,10.509,30.73,25.557,39.83,45.15
	c9.096,19.596,13.772,41.391,14.026,65.386c0.252,23.887-3.91,45.668-12.483,65.338c-8.575,19.672-21.393,35.025-38.458,46.059
	C1995.622,3812.249,1975.31,3817.891,1951.75,3818.14z M1951.479,3792.453c24.432-0.258,43.233-9.564,56.403-27.922
	c13.168-18.356,19.588-43.242,19.256-74.654c-0.331-31.305-7.327-55.91-20.987-73.822c-13.663-17.908-32.599-26.736-56.813-26.48
	c-24.215,0.256-42.963,9.481-56.242,27.676c-13.282,18.195-19.755,42.942-19.424,74.246c0.332,31.414,7.273,56.158,20.829,74.232
	C1908.052,3783.805,1927.044,3792.711,1951.479,3792.453z"/>
<path d="M2118.039,3815.653l-12.413-241.84l64.542-3.313c22.954-1.179,39.542,0.264,49.76,4.327
	c10.218,4.063,18.238,10.696,24.063,19.899c5.825,9.203,9.103,20.888,9.829,35.048c0.85,16.561-1.935,31.229-8.354,44.009
	c-6.419,12.781-17.256,22.95-32.51,30.504c-15.253,7.558-32.273,11.814-51.058,12.778l-14.803,0.76l4.931,96.082L2118.039,3815.653z
	 M2145.762,3691.845l13.364-0.687c21.906-1.124,37.363-7.104,46.371-17.943c9.007-10.838,13.12-23.882,12.337-39.135
	c-0.424-8.277-2.305-15.2-5.638-20.764c-3.334-5.563-8.446-9.941-15.335-13.139c-6.891-3.194-18.773-4.361-35.647-3.495
	l-20.282,1.04L2145.762,3691.845z"/>
</svg>
