<svg width="261" height="193" viewBox="0 0 261 193" fill="none" xmlns="http://www.w3.org/2000/svg">
<g clip-path="url(#clip0_223_1487)">
<path d="M141.881 169.116C207.528 169.116 260.745 162.932 260.745 155.303C260.745 147.675 207.528 141.49 141.881 141.49C76.2348 141.49 23.0176 147.675 23.0176 155.303C23.0176 162.932 76.2348 169.116 141.881 169.116Z" fill="#E8EAEE"/>
<path fill-rule="evenodd" clip-rule="evenodd" d="M192.271 65.564C189.799 69.4994 186.888 73.1398 183.591 76.4148L183.566 76.4402L183.539 76.4629C179.79 79.4792 175.237 81.3246 170.448 81.7691L170.32 80.3938C174.828 79.9754 179.113 78.242 182.645 75.409C185.856 72.2147 188.693 68.6653 191.103 64.8291L192.271 65.564Z" fill="#099B0C"/>
<path fill-rule="evenodd" clip-rule="evenodd" d="M154.925 148.052V158.683V158.687V158.699V158.745C154.925 158.786 154.925 158.844 154.924 158.919C154.922 159.068 154.916 159.283 154.904 159.547C154.879 160.074 154.822 160.799 154.702 161.589C154.582 162.379 154.395 163.243 154.106 164.045C153.818 164.844 153.418 165.607 152.855 166.169L152.832 166.194L152.803 166.213C150.83 167.605 148.447 168.295 146.035 168.172H87.9052C87.2123 168.117 86.5161 168.215 85.866 168.462C85.2311 168.703 84.6558 169.077 84.1792 169.561C83.5348 170.705 83.2702 172.023 83.4245 173.328L83.4761 173.766H38.045C37.6058 173.746 37.1673 173.816 36.7556 173.97C36.3439 174.125 35.9676 174.36 35.6491 174.664C35.3306 174.967 35.0767 175.331 34.9024 175.735C34.728 176.139 34.637 176.574 34.6347 177.014L34.6346 177.021C34.6145 177.907 34.9296 178.769 35.5168 179.435C36.0999 180.093 36.9086 180.51 37.7833 180.603H59.0568C60.353 180.548 61.6239 180.973 62.6264 181.797L62.6532 181.82L62.6757 181.846C63.4947 182.808 63.9002 184.055 63.8043 185.315V189.36L63.7993 189.391C63.7367 189.781 63.7636 190.18 63.8779 190.558C63.9919 190.935 64.19 191.281 64.4573 191.57C64.5147 191.63 64.6212 191.702 64.7941 191.774C64.9647 191.846 65.1772 191.909 65.4232 191.963C65.9151 192.071 66.5038 192.135 67.0787 192.173C67.6512 192.209 68.1986 192.218 68.6036 192.218C68.8059 192.216 68.972 192.214 69.0871 192.211L69.2196 192.209L69.2537 192.207L69.2622 192.206H69.2794H127.693C128.528 192.025 129.283 191.578 129.846 190.934C130.41 190.286 130.75 189.474 130.815 188.618C130.734 187.754 130.39 186.935 129.826 186.275C129.266 185.617 128.519 185.149 127.685 184.931H110.189L110.131 184.913C109.173 184.607 108.343 183.989 107.773 183.16C107.209 182.339 106.932 181.354 106.982 180.361C106.882 179.395 107.155 178.427 107.746 177.655C108.344 176.875 109.221 176.357 110.192 176.21L110.221 176.206H137.993V176.989H110.28C109.52 177.111 108.835 177.52 108.366 178.131C107.892 178.751 107.676 179.531 107.763 180.306L107.767 180.339L107.765 180.373C107.716 181.205 107.946 182.03 108.418 182.717C108.878 183.387 109.543 183.889 110.313 184.149H127.782L127.828 184.161C128.839 184.411 129.745 184.974 130.42 185.766C131.097 186.559 131.508 187.543 131.597 188.582L131.599 188.611L131.598 188.642C131.526 189.679 131.117 190.665 130.435 191.448C129.751 192.232 128.83 192.77 127.813 192.981L127.774 192.988H69.2864L69.2807 192.99L69.2435 192.991C69.2113 192.991 69.1643 192.992 69.1044 192.993C68.9847 192.996 68.8132 193 68.6051 193C68.1891 193 67.6237 192.992 67.0286 192.954C66.4361 192.916 65.8027 192.848 65.2551 192.727C64.9813 192.667 64.7198 192.592 64.4915 192.496C64.2671 192.402 64.0504 192.278 63.8888 192.107L63.8856 192.104C63.5367 191.727 63.2781 191.276 63.1293 190.784C62.9837 190.303 62.9472 189.795 63.0221 189.298V185.268C63.1054 184.222 62.7756 183.185 62.1027 182.38C61.2514 181.691 60.1773 181.338 59.0827 181.385L59.0655 181.386H37.7437L37.7243 181.384C36.6462 181.276 35.6487 180.765 34.9309 179.953C34.2139 179.141 33.8289 178.089 33.8526 177.007C33.8559 176.462 33.9687 175.925 34.1843 175.425C34.4003 174.925 34.7152 174.473 35.1099 174.096C35.5046 173.721 35.9711 173.428 36.4812 173.237C36.9888 173.046 37.5293 172.96 38.0708 172.983H82.6098C82.5363 171.64 82.8524 170.301 83.525 169.128L83.5493 169.086L83.5831 169.051C84.1463 168.468 84.8313 168.017 85.5892 167.73C86.3421 167.444 87.1484 167.328 87.9511 167.389H146.065C148.294 167.505 150.497 166.873 152.325 165.593C152.764 165.144 153.107 164.508 153.37 163.78C153.637 163.04 153.813 162.229 153.928 161.471C154.044 160.714 154.098 160.016 154.123 159.509C154.134 159.256 154.139 159.05 154.142 158.908C154.143 158.838 154.143 158.782 154.143 158.746V158.705V158.695V158.692V158.687V148.052H154.925Z" fill="#099B0C"/>
<path fill-rule="evenodd" clip-rule="evenodd" d="M229.367 100.074L250.278 119.574L247.702 121.646L228.562 103.367L229.367 100.074Z" fill="#DCA82D"/>
<path fill-rule="evenodd" clip-rule="evenodd" d="M230.324 102.129C229.903 102.02 229.46 102.036 229.047 102.173L228.814 101.474C229.361 101.292 229.95 101.272 230.508 101.416C231.064 101.56 231.567 101.861 231.957 102.282C232.483 102.811 232.744 103.287 232.828 103.751C232.913 104.21 232.816 104.608 232.732 104.93C232.728 104.942 232.726 104.954 232.722 104.966C232.638 105.287 232.578 105.521 232.606 105.775C232.634 106.018 232.754 106.321 233.149 106.722C233.548 107.127 233.798 107.184 233.95 107.175C234.13 107.165 234.301 107.061 234.567 106.876C234.58 106.868 234.591 106.859 234.604 106.851C234.833 106.692 235.15 106.471 235.536 106.436C235.98 106.396 236.416 106.6 236.876 107.067C237.34 107.538 237.551 107.978 237.6 108.417C237.643 108.802 237.555 109.157 237.484 109.442C237.478 109.467 237.471 109.491 237.466 109.515C237.389 109.83 237.34 110.079 237.395 110.348C237.448 110.609 237.61 110.938 238.063 111.363C238.514 111.788 238.843 111.916 239.089 111.939C239.339 111.962 239.568 111.883 239.851 111.754C239.89 111.736 239.931 111.716 239.973 111.696C240.214 111.582 240.514 111.44 240.833 111.399C241.251 111.345 241.679 111.458 242.136 111.828C242.602 112.206 242.794 112.619 242.824 113.065C242.845 113.391 242.775 113.735 242.713 114.037C242.7 114.104 242.686 114.169 242.674 114.231C242.606 114.599 242.568 114.949 242.658 115.324C242.746 115.695 242.971 116.13 243.495 116.639C244.04 117.167 244.329 117.224 244.467 117.207C244.618 117.189 244.753 117.074 244.985 116.819C244.995 116.808 245.005 116.797 245.016 116.785C245.111 116.68 245.224 116.555 245.347 116.451C245.488 116.331 245.666 116.215 245.89 116.17C246.362 116.075 246.838 116.323 247.365 116.85C247.897 117.383 248.149 117.855 248.144 118.314C248.139 118.768 247.879 119.101 247.694 119.328C247.672 119.355 247.651 119.38 247.632 119.404C247.559 119.494 247.498 119.567 247.446 119.645C247.383 119.738 247.353 119.807 247.344 119.865C247.33 119.947 247.335 120.134 247.725 120.503L247.748 120.525C247.862 120.654 247.977 120.766 248.1 120.884C248.167 120.948 248.235 121.014 248.307 121.086L247.786 121.607C247.736 121.557 247.68 121.502 247.619 121.443C247.487 121.316 247.338 121.173 247.208 121.027C246.754 120.594 246.544 120.178 246.618 119.743C246.652 119.54 246.742 119.37 246.836 119.232C246.91 119.124 246.998 119.016 247.074 118.924C247.091 118.903 247.108 118.883 247.123 118.863C247.312 118.63 247.406 118.477 247.408 118.306C247.41 118.141 247.322 117.85 246.844 117.371C246.358 116.885 246.127 116.874 246.035 116.892C245.979 116.903 245.913 116.936 245.824 117.011C245.74 117.084 245.659 117.173 245.557 117.285C245.548 117.295 245.539 117.305 245.53 117.315L245.521 117.325C245.32 117.545 245.012 117.885 244.552 117.939C244.071 117.996 243.565 117.733 242.983 117.168C242.38 116.583 242.07 116.03 241.942 115.496C241.814 114.967 241.877 114.493 241.952 114.095C241.969 114.006 241.985 113.922 242.001 113.844C242.059 113.553 242.104 113.331 242.089 113.114C242.074 112.884 241.989 112.657 241.673 112.401C241.349 112.138 241.117 112.105 240.927 112.129C240.733 112.154 240.557 112.237 240.315 112.35C240.265 112.374 240.214 112.398 240.157 112.423C239.856 112.562 239.477 112.715 239.02 112.672C238.56 112.63 238.084 112.395 237.557 111.899C237.031 111.404 236.765 110.947 236.674 110.495C236.583 110.049 236.673 109.657 236.751 109.339C236.755 109.323 236.759 109.307 236.763 109.291C236.84 108.98 236.896 108.748 236.868 108.5C236.841 108.26 236.728 107.966 236.351 107.585C235.973 107.2 235.741 107.157 235.602 107.169C235.426 107.185 235.258 107.293 234.986 107.482C234.979 107.486 234.974 107.49 234.968 107.494C234.733 107.657 234.402 107.887 233.992 107.911C233.545 107.937 233.1 107.721 232.625 107.239C232.146 106.754 231.926 106.306 231.876 105.859C231.829 105.463 231.925 105.103 232.002 104.812C232.007 104.789 232.013 104.766 232.018 104.744C232.102 104.424 232.157 104.168 232.105 103.885C232.053 103.608 231.89 103.258 231.431 102.798L231.419 102.787C231.125 102.467 230.746 102.238 230.324 102.129Z" fill="#F9C513"/>
<path d="M233.533 156.201L165.945 163.2V99.5913L229.691 100.052L233.533 156.201Z" fill="#FFDF5D"/>
<path d="M232.175 136.495L229.691 100.052L165.945 99.5913V106.498C169.419 118.86 173.491 131.154 177.977 143.332C196.127 140.8 214.255 139.441 232.175 136.495Z" fill="#F9C513"/>
<path d="M177.883 143.263C173.282 131.177 169.326 118.883 165.852 106.429V163.108L233.439 156.201L232.081 136.495C214.254 139.441 196.125 140.8 177.883 143.263Z" fill="#FFDF5D"/>
<mask id="mask0_223_1487" style="mask-type:alpha" maskUnits="userSpaceOnUse" x="165" y="106" width="69" height="58">
<path d="M177.883 143.263C173.282 131.177 169.326 118.883 165.852 106.428V163.107L233.439 156.201L232.081 136.495C214.254 139.441 196.125 140.8 177.883 143.263Z" fill="#FFDF5D"/>
</mask>
<g mask="url(#mask0_223_1487)">
<path d="M163.045 134.883C174.386 131.545 171.442 142.181 183.036 146.9C197.966 152.955 199.139 149.571 211.056 150.238C222.972 150.905 224.398 160.253 224.398 160.253V167.596L164.379 172.201L163.045 134.883Z" fill="#FFD33D"/>
</g>
<mask id="mask1_223_1487" style="mask-type:alpha" maskUnits="userSpaceOnUse" x="165" y="106" width="69" height="58">
<path d="M178.171 135.136C173.57 123.05 169.326 118.975 165.852 106.521V163.199L233.439 156.293L232.081 136.586C214.254 139.534 196.413 132.673 178.171 135.136Z" fill="#FFDF5D"/>
</mask>
<g mask="url(#mask1_223_1487)">
<path d="M192.721 162.532L191.938 137.116L172.684 136.84L173.213 164.718L192.721 162.532Z" fill="#FEFAE1"/>
</g>
<path d="M187.66 140.248H174.363" stroke="#F9A877" stroke-width="0.65" stroke-miterlimit="10"/>
<path d="M187.845 143.079L174.41 143.839" stroke="#F9A877" stroke-width="0.65" stroke-miterlimit="10"/>
<path d="M182.255 147.361L174.043 147.936" stroke="#F9A877" stroke-width="0.32" stroke-miterlimit="10"/>
<path d="M181.449 148.903L174.18 149.18" stroke="#F9A877" stroke-width="0.32" stroke-miterlimit="10"/>
<path d="M185.614 150.768L174.18 151.228" stroke="#F9A877" stroke-width="0.32" stroke-miterlimit="10"/>
<path d="M184.256 152.702L174.18 153.278" stroke="#F9A877" stroke-width="0.32" stroke-miterlimit="10"/>
<path d="M183.889 159.655L173.812 160.23" stroke="#F9A877" stroke-width="0.32" stroke-miterlimit="10"/>
<path d="M229.368 100.075L243.793 126.964L243.125 129.381L179.472 134.331L165.945 103.643V99.5913L229.368 100.075Z" fill="#F9A877"/>
<mask id="mask2_223_1487" style="mask-type:alpha" maskUnits="userSpaceOnUse" x="165" y="99" width="79" height="36">
<path d="M229.368 100.075L243.793 126.964L243.125 129.381L179.472 134.331L165.945 103.643V99.5913L229.368 100.075Z" fill="#F9A877"/>
</mask>
<g mask="url(#mask2_223_1487)">
<path fill-rule="evenodd" clip-rule="evenodd" d="M242.842 128.49C241.756 128.968 240.507 129.468 238.345 129.633C237.274 129.715 236.551 129.678 236.012 129.57C235.463 129.459 235.125 129.278 234.833 129.107C234.806 129.09 234.78 129.075 234.754 129.06C234.508 128.915 234.31 128.797 234.001 128.716C233.658 128.625 233.159 128.576 232.319 128.643C231.154 128.74 230.401 128.897 229.858 129.077C229.321 129.256 228.976 129.462 228.616 129.682L228.58 129.704C228.226 129.921 227.846 130.153 227.281 130.35C226.698 130.553 225.933 130.714 224.798 130.808C223.669 130.9 222.943 130.871 222.442 130.761C221.919 130.647 221.649 130.446 221.442 130.235C221.395 130.188 221.356 130.145 221.323 130.109C221.212 129.991 221.153 129.928 221.018 129.87C220.837 129.794 220.496 129.732 219.76 129.794C219.033 129.856 218.533 129.973 218.147 130.113C217.759 130.252 217.472 130.42 217.156 130.606L217.144 130.612C216.832 130.796 216.49 130.996 216.028 131.168C215.559 131.342 214.979 131.483 214.178 131.567H214.171C213.297 131.644 212.811 131.392 212.351 131.151C212.267 131.109 212.185 131.066 212.101 131.025C211.585 130.776 210.872 130.525 209.23 130.692C208.755 130.74 208.442 130.839 208.206 130.952C207.981 131.061 207.812 131.19 207.61 131.343C207.596 131.353 207.581 131.365 207.567 131.375C207.348 131.542 207.096 131.726 206.74 131.878C206.384 132.03 205.94 132.141 205.335 132.188C204.73 132.237 204.307 132.187 203.986 132.058C203.657 131.928 203.47 131.73 203.333 131.582L203.329 131.578C203.193 131.433 203.113 131.353 202.969 131.299C202.817 131.241 202.552 131.2 202.039 131.266C201.533 131.331 201.278 131.442 201.132 131.544C200.995 131.64 200.926 131.746 200.817 131.91C200.81 131.921 200.803 131.931 200.796 131.943C200.673 132.127 200.511 132.356 200.188 132.534C199.877 132.706 199.45 132.815 198.82 132.857C198.186 132.899 197.746 132.846 197.406 132.725C197.08 132.61 196.871 132.442 196.705 132.308C196.695 132.3 196.686 132.293 196.675 132.285C196.511 132.152 196.38 132.054 196.161 131.991C195.932 131.926 195.577 131.891 194.971 131.958C194.355 132.025 194.049 132.124 193.887 132.214C193.752 132.289 193.708 132.358 193.645 132.471C193.641 132.48 193.636 132.489 193.631 132.498C193.558 132.632 193.447 132.837 193.182 132.995C192.921 133.152 192.544 133.246 191.97 133.294C191.39 133.341 190.985 133.295 190.69 133.143C190.374 132.981 190.249 132.729 190.168 132.565C190.086 132.395 190.055 132.343 189.981 132.296C189.896 132.246 189.695 132.179 189.204 132.213C188.723 132.244 188.417 132.335 188.192 132.443C187.967 132.551 187.804 132.685 187.6 132.854L187.584 132.866C187.375 133.039 187.128 133.237 186.773 133.403C186.417 133.568 185.969 133.692 185.351 133.754C184.74 133.813 184.322 133.782 184.005 133.68C183.683 133.575 183.497 133.407 183.357 133.279C183.353 133.276 183.349 133.272 183.345 133.269C183.213 133.148 183.12 133.068 182.944 133.013C182.752 132.954 182.434 132.915 181.852 132.971C181.289 133.025 180.955 133.149 180.73 133.288C180.504 133.427 180.36 133.599 180.186 133.812C180.18 133.82 180.173 133.828 180.167 133.835C180.001 134.041 179.799 134.289 179.483 134.491C179.151 134.704 178.719 134.849 178.102 134.904L178.035 134.171C178.567 134.123 178.879 134.004 179.087 133.87C179.3 133.734 179.437 133.568 179.614 133.348C179.789 133.133 180 132.873 180.343 132.661C180.689 132.448 181.139 132.299 181.783 132.237C182.41 132.178 182.839 132.209 183.164 132.311C183.502 132.416 183.694 132.59 183.84 132.722C183.976 132.846 184.064 132.924 184.231 132.98C184.412 133.038 184.716 133.076 185.279 133.021C185.833 132.967 186.197 132.859 186.462 132.734C186.728 132.61 186.913 132.464 187.117 132.296C187.128 132.287 187.138 132.28 187.15 132.271C187.344 132.111 187.567 131.927 187.872 131.779C188.199 131.622 188.6 131.514 189.155 131.477C189.699 131.441 190.082 131.499 190.36 131.666C190.63 131.828 190.746 132.067 190.816 132.213C190.822 132.222 190.825 132.232 190.829 132.241C190.903 132.388 190.94 132.443 191.026 132.488C191.137 132.545 191.374 132.604 191.909 132.56C192.451 132.515 192.69 132.431 192.804 132.363C192.894 132.309 192.921 132.26 192.997 132.121L193.001 132.115C193.091 131.952 193.218 131.741 193.532 131.568C193.82 131.41 194.242 131.297 194.891 131.226C195.549 131.154 196.008 131.182 196.364 131.284C196.729 131.388 196.953 131.563 197.137 131.71L197.152 131.723C197.322 131.859 197.446 131.958 197.651 132.031C197.866 132.107 198.196 132.16 198.771 132.121C199.348 132.083 199.654 131.988 199.832 131.89C199.996 131.798 200.079 131.692 200.183 131.535C200.192 131.521 200.201 131.508 200.21 131.494C200.313 131.335 200.453 131.122 200.709 130.942C200.988 130.746 201.372 130.608 201.947 130.535C202.515 130.463 202.918 130.491 203.23 130.61C203.54 130.727 203.72 130.92 203.854 131.061C203.857 131.065 203.861 131.07 203.865 131.074C203.998 131.214 204.09 131.307 204.257 131.374C204.435 131.445 204.73 131.499 205.277 131.455C205.821 131.411 206.183 131.315 206.452 131.2C206.721 131.086 206.912 130.948 207.122 130.788C207.139 130.776 207.155 130.764 207.172 130.751C207.367 130.602 207.591 130.431 207.886 130.289C208.211 130.132 208.608 130.014 209.156 129.959C210.92 129.78 211.771 130.047 212.422 130.361C212.527 130.413 212.622 130.462 212.712 130.508C213.152 130.734 213.454 130.89 214.105 130.833C214.103 130.833 214.102 130.833 214.102 130.833L214.139 131.2L214.107 130.833C214.106 130.833 214.105 130.833 214.105 130.833C214.854 130.755 215.371 130.626 215.771 130.477C216.172 130.328 216.466 130.155 216.783 129.97L216.785 129.969C217.1 129.784 217.44 129.584 217.896 129.419C218.355 129.253 218.92 129.126 219.699 129.06C220.47 128.996 220.955 129.044 221.303 129.192C221.598 129.315 221.778 129.512 221.9 129.647C221.924 129.674 221.947 129.699 221.968 129.719C222.085 129.839 222.232 129.961 222.599 130.042C222.993 130.128 223.634 130.164 224.737 130.073C225.833 129.983 226.532 129.83 227.038 129.654C227.529 129.484 227.851 129.286 228.205 129.069L228.233 129.053C228.605 128.826 229.007 128.584 229.627 128.378C230.242 128.174 231.057 128.009 232.26 127.909C233.146 127.838 233.736 127.884 234.189 128.004C234.6 128.112 234.88 128.279 235.126 128.424C235.153 128.44 235.179 128.456 235.204 128.471C235.462 128.622 235.72 128.759 236.157 128.848C236.605 128.938 237.255 128.978 238.289 128.9C240.338 128.743 241.503 128.275 242.546 127.815C242.624 127.781 242.703 127.746 242.781 127.711C243.752 127.279 244.699 126.858 246.183 126.758L246.232 127.493C244.882 127.584 244.041 127.958 243.072 128.388C242.996 128.421 242.92 128.455 242.842 128.49Z" fill="#F9C513"/>
<path fill-rule="evenodd" clip-rule="evenodd" d="M164.249 98.8971C164.17 98.798 164.037 98.6829 163.746 98.498L164.14 97.876C164.447 98.0709 164.669 98.2406 164.827 98.4424C164.993 98.6529 165.065 98.8702 165.127 99.1073C165.146 99.1808 165.166 99.2599 165.186 99.3466C165.293 99.7947 165.447 100.446 165.937 101.587C166.235 102.28 166.431 102.565 166.55 102.679C166.602 102.726 166.625 102.729 166.625 102.729C166.633 102.731 166.647 102.733 166.712 102.725C166.719 102.724 166.725 102.723 166.732 102.723C166.791 102.715 166.899 102.701 167.012 102.713C167.156 102.729 167.297 102.783 167.436 102.89C167.691 103.084 167.938 103.454 168.233 104.086C168.532 104.725 168.655 105.182 168.629 105.536C168.6 105.938 168.385 106.148 168.224 106.284L168.22 106.287C168.058 106.425 168.038 106.442 168.025 106.497C168.008 106.567 168.004 106.766 168.235 107.265C168.462 107.759 168.624 107.905 168.704 107.948C168.76 107.979 168.807 107.98 168.985 107.944C168.992 107.943 168.998 107.941 169.005 107.94C169.171 107.906 169.459 107.847 169.763 108.015C170.058 108.178 170.298 108.511 170.536 109.04C170.779 109.583 170.86 109.996 170.806 110.343C170.755 110.686 170.578 110.909 170.459 111.061C170.454 111.066 170.45 111.072 170.446 111.077C170.321 111.235 170.271 111.311 170.26 111.429C170.247 111.559 170.28 111.8 170.526 112.265C170.776 112.738 170.94 112.907 171.036 112.972C171.102 113.017 171.138 113.022 171.244 113.037C171.273 113.041 171.306 113.045 171.346 113.052C171.44 113.066 171.557 113.091 171.685 113.156C171.813 113.22 171.934 113.313 172.053 113.445C172.286 113.699 172.534 114.114 172.837 114.797C173.142 115.485 173.272 115.96 173.286 116.323C173.302 116.717 173.178 116.95 173.073 117.127L173.064 117.142C172.978 117.285 172.948 117.334 172.949 117.448C172.951 117.596 173.014 117.872 173.289 118.418C173.569 118.971 173.74 119.159 173.826 119.218C173.856 119.24 173.866 119.238 173.866 119.238C173.88 119.239 173.897 119.237 173.974 119.223L173.977 119.222C174.041 119.211 174.157 119.19 174.29 119.21C174.434 119.232 174.569 119.296 174.697 119.404C174.928 119.601 175.157 119.965 175.435 120.572C175.721 121.198 175.836 121.649 175.836 122.016C175.836 122.394 175.712 122.645 175.618 122.836L175.615 122.845C175.525 123.026 175.468 123.147 175.468 123.347C175.468 123.563 175.536 123.903 175.802 124.486C176.076 125.084 176.257 125.294 176.351 125.361C176.371 125.375 176.382 125.379 176.387 125.381C176.39 125.382 176.392 125.382 176.395 125.382C176.405 125.383 176.427 125.38 176.493 125.359C176.502 125.356 176.511 125.353 176.522 125.349C176.642 125.306 176.918 125.208 177.21 125.361C177.49 125.507 177.713 125.839 177.943 126.352C178.186 126.893 178.277 127.302 178.263 127.647C178.248 128 178.12 128.243 178.025 128.424C177.93 128.605 177.879 128.708 177.872 128.858C177.865 129.014 177.906 129.264 178.122 129.701C178.343 130.149 178.498 130.312 178.591 130.375C178.662 130.423 178.711 130.427 178.858 130.426H178.873C179.027 130.424 179.275 130.422 179.54 130.597C179.793 130.763 180.021 131.062 180.26 131.541C180.382 131.786 180.463 131.994 180.504 132.174C180.545 132.354 180.553 132.532 180.496 132.697C180.392 133.003 180.108 133.129 179.99 133.18C179.978 133.185 179.969 133.189 179.962 133.193C179.836 133.252 179.837 133.268 179.838 133.274C179.838 133.276 179.838 133.276 179.838 133.277C179.824 133.34 179.829 133.552 180.08 134.081L179.414 134.396C179.158 133.856 179.049 133.445 179.118 133.121C179.2 132.739 179.5 132.596 179.648 132.527C179.747 132.48 179.787 132.457 179.801 132.449C179.802 132.434 179.801 132.399 179.787 132.338C179.764 132.237 179.71 132.088 179.602 131.87C179.382 131.429 179.226 131.271 179.135 131.212C179.065 131.165 179.015 131.162 178.865 131.163H178.856C178.698 131.164 178.447 131.167 178.178 130.985C177.926 130.815 177.701 130.512 177.462 130.028C177.218 129.533 177.12 129.153 177.137 128.824C177.151 128.504 177.273 128.273 177.362 128.105C177.366 128.097 177.37 128.089 177.373 128.082C177.462 127.912 177.52 127.793 177.528 127.615C177.535 127.428 177.489 127.138 177.272 126.654C177.044 126.148 176.908 126.034 176.871 126.015C176.871 126.015 176.869 126.015 176.868 126.015C176.845 126.018 176.824 126.025 176.77 126.043C176.756 126.048 176.741 126.053 176.722 126.059C176.646 126.084 176.524 126.122 176.38 126.119C176.225 126.116 176.072 126.066 175.926 125.962C175.66 125.773 175.411 125.402 175.134 124.792C174.847 124.166 174.733 123.715 174.733 123.347C174.733 122.97 174.856 122.719 174.95 122.527L174.954 122.519C175.044 122.338 175.1 122.216 175.1 122.016C175.1 121.801 175.032 121.461 174.765 120.878C174.491 120.277 174.317 120.048 174.221 119.965C174.2 119.948 174.187 119.942 174.184 119.94L174.181 119.939C174.178 119.938 174.168 119.937 174.104 119.948C174.1 119.949 174.095 119.95 174.09 119.951C174.033 119.961 173.93 119.98 173.818 119.973C173.68 119.964 173.542 119.918 173.404 119.823C173.156 119.65 172.917 119.314 172.632 118.75C172.344 118.179 172.216 117.779 172.214 117.456C172.21 117.129 172.337 116.919 172.422 116.78C172.429 116.769 172.435 116.759 172.44 116.749C172.511 116.632 172.558 116.544 172.551 116.351C172.542 116.129 172.457 115.755 172.164 115.096C171.869 114.432 171.66 114.105 171.511 113.942C171.44 113.865 171.388 113.831 171.355 113.814C171.322 113.798 171.288 113.788 171.233 113.78C171.22 113.778 171.202 113.775 171.183 113.773C171.061 113.758 170.843 113.732 170.621 113.58C170.375 113.412 170.143 113.115 169.875 112.61C169.603 112.096 169.493 111.699 169.527 111.356C169.56 111.011 169.739 110.785 169.858 110.633C169.862 110.629 169.865 110.625 169.867 110.621C169.992 110.462 170.058 110.373 170.078 110.232C170.101 110.085 170.081 109.824 169.865 109.342C169.642 108.847 169.483 108.702 169.407 108.661C169.354 108.631 169.312 108.629 169.131 108.666C169.126 108.667 169.119 108.668 169.113 108.67C168.947 108.704 168.659 108.762 168.352 108.596C168.056 108.434 167.809 108.103 167.566 107.573C167.323 107.046 167.23 106.65 167.309 106.325C167.382 106.019 167.598 105.844 167.713 105.751C167.725 105.74 167.738 105.73 167.749 105.722C167.851 105.634 167.887 105.59 167.895 105.482C167.907 105.325 167.854 105.013 167.566 104.398C167.275 103.775 167.09 103.552 166.99 103.476C166.954 103.448 166.937 103.446 166.932 103.446C166.931 103.446 166.932 103.446 166.932 103.446C166.91 103.443 166.89 103.445 166.804 103.456C166.73 103.465 166.604 103.48 166.463 103.448C166.312 103.414 166.175 103.337 166.046 103.215C165.806 102.989 165.562 102.577 165.261 101.878C164.745 100.677 164.578 99.9711 164.47 99.5197C164.451 99.4357 164.433 99.3604 164.415 99.2925C164.362 99.0865 164.32 98.9873 164.249 98.8971Z" fill="#F9C513"/>
</g>
<path d="M165.922 163.223L144.965 151.182V103.068L165.945 99.5913L165.922 163.223Z" fill="#E2FFE3"/>
<mask id="mask3_223_1487" style="mask-type:alpha" maskUnits="userSpaceOnUse" x="144" y="99" width="22" height="65">
<path d="M165.922 163.223L144.965 151.182V103.068L165.945 99.5913L165.922 163.223Z" fill="#79B8FF"/>
</mask>
<g mask="url(#mask3_223_1487)">
<path d="M165.923 163.223L144.966 157.514C144.966 157.514 140.366 148.696 144.068 142.573C147.773 136.449 150.212 149.871 155.272 149.871C160.333 149.871 160.034 134.7 166.016 134.286L165.923 163.223Z" fill="#099B0C"/>
<path d="M165.715 113.842L165.945 99.5913L144.965 103.068V136.288L158.629 141.398L165.715 113.842Z" fill="#099B0C"/>
</g>
<path d="M165.945 99.5913C182.945 140.5 170.776 111.217 179.517 132.282L243.793 126.987L229.691 99.7063L165.945 99.5913Z" fill="#FFF5B1"/>
<path d="M165.945 103.643L152.302 136.564L125.87 128.368L124.697 126.434L165.945 99.5913V103.643Z" fill="#099B0C"/>
<mask id="mask4_223_1487" style="mask-type:alpha" maskUnits="userSpaceOnUse" x="124" y="99" width="42" height="38">
<path d="M165.945 103.643L152.302 136.564L125.87 128.368L124.697 126.434L165.945 99.5913V103.643Z" fill="#0366D6"/>
</mask>
<g mask="url(#mask4_223_1487)">
<path fill-rule="evenodd" clip-rule="evenodd" d="M125.983 127.888C125.95 127.97 125.888 128.12 125.778 128.229L125.274 127.725L125.274 127.723C125.278 127.717 125.294 127.688 125.332 127.595C125.334 127.592 125.336 127.588 125.338 127.584C125.375 127.493 125.435 127.349 125.537 127.22C125.652 127.074 125.817 126.951 126.051 126.898C126.273 126.847 126.531 126.864 126.833 126.94C127.302 127.058 127.634 127.21 127.895 127.391C128.148 127.567 128.319 127.761 128.465 127.927L128.473 127.937C128.623 128.107 128.752 128.251 128.945 128.387C129.136 128.523 129.405 128.662 129.834 128.785C130.278 128.913 130.432 128.877 130.472 128.858C130.495 128.848 130.511 128.838 130.587 128.677C130.588 128.673 130.589 128.669 130.592 128.666C130.656 128.527 130.776 128.273 131.079 128.145C131.368 128.024 131.745 128.048 132.245 128.185C132.756 128.325 133.094 128.502 133.308 128.741C133.526 128.983 133.576 129.25 133.611 129.431L133.612 129.439C133.648 129.628 133.67 129.735 133.753 129.843C133.839 129.955 134.021 130.105 134.459 130.266C134.901 130.428 135.087 130.399 135.16 130.369C135.237 130.337 135.29 130.274 135.405 130.089C135.411 130.08 135.416 130.071 135.422 130.062C135.521 129.901 135.674 129.651 135.958 129.499C136.269 129.335 136.664 129.318 137.185 129.45C137.699 129.58 138.039 129.773 138.233 130.065C138.405 130.327 138.419 130.616 138.429 130.808C138.429 130.823 138.431 130.836 138.431 130.85C138.442 131.064 138.459 131.193 138.543 131.312C138.625 131.433 138.815 131.599 139.302 131.759C139.809 131.926 139.975 131.872 140.016 131.849C140.053 131.828 140.088 131.782 140.155 131.56C140.159 131.548 140.163 131.535 140.166 131.521C140.218 131.347 140.307 131.042 140.562 130.85C140.862 130.626 141.273 130.624 141.792 130.764C142.325 130.908 142.668 131.119 142.878 131.413C143.068 131.678 143.112 131.97 143.143 132.176C143.145 132.188 143.147 132.201 143.149 132.213C143.184 132.439 143.214 132.571 143.307 132.686C143.4 132.8 143.598 132.946 144.083 133.063C144.593 133.187 144.697 133.094 144.697 133.094C144.7 133.092 144.715 133.077 144.731 133.017C144.749 132.953 144.756 132.875 144.768 132.758V132.755C144.778 132.652 144.792 132.514 144.83 132.384C144.871 132.245 144.944 132.085 145.096 131.962C145.394 131.717 145.838 131.726 146.387 131.867C146.95 132.011 147.345 132.24 147.464 132.644C147.519 132.833 147.499 133.014 147.464 133.16C147.433 133.288 147.384 133.418 147.345 133.524C147.341 133.536 147.336 133.547 147.332 133.559C147.233 133.822 147.208 133.945 147.24 134.036C147.265 134.106 147.373 134.277 147.924 134.452C148.467 134.623 148.675 134.547 148.758 134.489C148.859 134.417 148.929 134.271 149.002 133.99C149.011 133.955 149.021 133.916 149.031 133.876C149.056 133.777 149.083 133.668 149.112 133.573C149.156 133.433 149.219 133.268 149.33 133.129C149.449 132.978 149.615 132.866 149.836 132.828C150.043 132.793 150.268 132.829 150.509 132.911C151.018 133.085 151.296 133.37 151.451 133.73C151.522 133.894 151.563 134.066 151.595 134.221C151.605 134.275 151.616 134.326 151.626 134.376C151.647 134.479 151.665 134.576 151.692 134.682C151.764 134.971 151.877 135.256 152.149 135.54C152.427 135.83 152.894 136.142 153.711 136.436L153.471 137.107C152.588 136.791 152.013 136.429 151.634 136.034C151.251 135.633 151.091 135.222 151 134.854C150.969 134.732 150.943 134.605 150.921 134.493C150.912 134.448 150.905 134.405 150.897 134.367C150.866 134.221 150.837 134.108 150.795 134.012C150.725 133.848 150.609 133.7 150.279 133.587C150.099 133.525 150.002 133.524 149.956 133.532C149.924 133.537 149.908 133.547 149.889 133.573C149.861 133.609 149.829 133.672 149.794 133.784C149.769 133.861 149.751 133.936 149.73 134.023C149.718 134.068 149.706 134.117 149.692 134.171C149.622 134.439 149.507 134.834 149.169 135.072C148.814 135.323 148.329 135.328 147.71 135.131C147.1 134.938 146.708 134.672 146.568 134.274C146.438 133.909 146.574 133.545 146.658 133.323L146.664 133.308C146.667 133.297 146.671 133.288 146.675 133.278C146.718 133.164 146.751 133.076 146.77 132.995C146.79 132.91 146.787 132.868 146.78 132.847C146.775 132.83 146.729 132.691 146.211 132.559C145.678 132.423 145.556 132.507 145.547 132.514C145.545 132.516 145.53 132.528 145.515 132.582C145.498 132.641 145.489 132.716 145.478 132.829C145.476 132.836 145.476 132.842 145.476 132.848C145.466 132.946 145.453 133.076 145.421 133.198C145.385 133.335 145.318 133.494 145.177 133.623C144.888 133.885 144.45 133.887 143.914 133.757C143.352 133.62 142.985 133.42 142.755 133.137C142.527 132.856 142.478 132.545 142.445 132.325V132.322C142.407 132.082 142.384 131.948 142.298 131.827C142.22 131.717 142.049 131.572 141.605 131.452C141.145 131.328 141.016 131.402 140.989 131.423C140.939 131.459 140.91 131.53 140.838 131.766C140.836 131.771 140.834 131.778 140.832 131.783C140.777 131.966 140.679 132.294 140.366 132.471C140.046 132.652 139.619 132.614 139.079 132.437C138.518 132.251 138.163 132.017 137.955 131.717C137.748 131.416 137.73 131.102 137.718 130.888C137.706 130.648 137.697 130.548 137.639 130.459C137.587 130.382 137.45 130.253 137.01 130.141C136.575 130.032 136.384 130.082 136.293 130.13C136.191 130.184 136.128 130.275 136.011 130.464C136.008 130.469 136.006 130.475 136.002 130.478C135.902 130.643 135.741 130.903 135.43 131.029C135.108 131.16 134.715 131.119 134.214 130.936C133.71 130.751 133.388 130.538 133.189 130.278C132.996 130.028 132.948 129.771 132.915 129.594C132.914 129.587 132.912 129.579 132.911 129.571C132.876 129.387 132.852 129.301 132.777 129.217C132.695 129.127 132.513 128.999 132.057 128.874C131.591 128.747 131.413 128.779 131.355 128.803C131.322 128.817 131.3 128.834 131.232 128.981C131.228 128.987 131.224 128.995 131.22 129.004C131.161 129.134 131.047 129.382 130.764 129.51C130.48 129.637 130.113 129.609 129.638 129.471C129.147 129.329 128.801 129.16 128.532 128.969C128.267 128.781 128.091 128.582 127.943 128.413L127.938 128.409C127.788 128.237 127.667 128.101 127.488 127.977C127.312 127.855 127.063 127.734 126.659 127.633L126.657 127.632C126.418 127.571 126.283 127.577 126.211 127.593C126.15 127.607 126.121 127.631 126.096 127.663C126.061 127.708 126.034 127.766 125.99 127.871C125.988 127.876 125.986 127.882 125.983 127.888Z" fill="#099B0C"/>
<path fill-rule="evenodd" clip-rule="evenodd" d="M166.145 100.611C165.961 100.956 165.759 101.338 165.557 101.787L165.555 101.793C165.241 102.453 165.134 102.812 165.11 103.023C165.098 103.122 165.106 103.182 165.116 103.223C165.127 103.268 165.145 103.307 165.178 103.377L165.183 103.386C165.259 103.541 165.361 103.75 165.343 104.113C165.325 104.452 165.204 104.908 164.917 105.599C164.627 106.3 164.349 106.752 164.07 107.063C163.786 107.381 163.516 107.534 163.282 107.655C163.26 107.667 163.238 107.678 163.216 107.689C163.021 107.79 162.882 107.861 162.739 108.002C162.582 108.156 162.402 108.415 162.207 108.928C162.009 109.444 161.99 109.72 162.013 109.881C162.035 110.03 162.096 110.116 162.209 110.277L162.216 110.286C162.338 110.457 162.494 110.688 162.521 111.06C162.545 111.412 162.454 111.851 162.203 112.458C161.948 113.078 161.675 113.475 161.372 113.747C161.073 114.018 160.767 114.142 160.512 114.246L160.51 114.247C160.253 114.352 160.049 114.435 159.846 114.612C159.644 114.787 159.421 115.076 159.188 115.617C158.957 116.155 158.901 116.525 158.913 116.82C158.923 117.087 158.986 117.309 159.066 117.586C159.077 117.627 159.09 117.669 159.102 117.713C159.197 118.048 159.291 118.436 159.272 118.951C159.252 119.462 159.121 120.077 158.8 120.881C158.486 121.665 158.179 122.127 157.812 122.335C157.411 122.562 157.036 122.43 156.809 122.35L156.803 122.348C156.539 122.255 156.442 122.229 156.332 122.273C156.21 122.323 155.98 122.511 155.664 123.199C155.354 123.875 155.31 124.253 155.346 124.488C155.38 124.716 155.492 124.861 155.674 125.096C155.853 125.327 156.083 125.627 156.152 126.103C156.221 126.568 156.132 127.153 155.81 127.97C155.497 128.763 155.186 129.23 154.8 129.426C154.41 129.624 154.037 129.495 153.81 129.416C153.796 129.412 153.783 129.407 153.77 129.403C153.51 129.314 153.375 129.283 153.22 129.355C153.041 129.437 152.754 129.697 152.371 130.482C151.998 131.244 151.859 131.863 151.841 132.383C151.822 132.902 151.921 133.344 152.054 133.755C152.105 133.918 152.16 134.069 152.217 134.224C152.234 134.27 152.25 134.316 152.267 134.363C152.338 134.562 152.408 134.767 152.459 134.974C152.561 135.397 152.585 135.845 152.379 136.334L151.722 136.057C151.85 135.751 151.845 135.468 151.766 135.143C151.724 134.975 151.665 134.8 151.596 134.605C151.58 134.562 151.565 134.518 151.548 134.475C151.492 134.318 151.431 134.149 151.375 133.974C151.228 133.516 151.105 132.989 151.128 132.356C151.151 131.723 151.321 131.007 151.731 130.168C152.129 129.353 152.507 128.897 152.923 128.705C153.356 128.507 153.742 128.639 153.989 128.723L154 128.727C154.283 128.824 154.376 128.842 154.477 128.79C154.606 128.723 154.838 128.491 155.147 127.708C155.447 126.947 155.489 126.497 155.447 126.207C155.405 125.928 155.282 125.754 155.111 125.534C155.102 125.523 155.094 125.513 155.085 125.502C154.919 125.289 154.702 125.011 154.64 124.592C154.576 124.158 154.682 123.63 155.016 122.901C155.345 122.186 155.672 121.772 156.064 121.612C156.44 121.459 156.788 121.584 156.997 121.659C157.013 121.665 157.027 121.67 157.04 121.675C157.28 121.759 157.365 121.768 157.461 121.713C157.598 121.637 157.83 121.385 158.138 120.616C158.437 119.866 158.543 119.332 158.558 118.923C158.575 118.518 158.503 118.214 158.417 117.907C158.405 117.869 158.393 117.83 158.382 117.79C158.303 117.516 158.213 117.208 158.199 116.848C158.184 116.425 158.269 115.949 158.532 115.335C158.795 114.726 159.074 114.338 159.378 114.073C159.674 113.817 159.972 113.695 160.219 113.595C160.227 113.592 160.233 113.589 160.241 113.586C160.496 113.483 160.696 113.397 160.895 113.217C161.095 113.037 161.316 112.74 161.543 112.186C161.777 111.62 161.822 111.302 161.81 111.111C161.797 110.941 161.738 110.843 161.635 110.698C161.627 110.689 161.621 110.678 161.613 110.668C161.506 110.519 161.354 110.307 161.307 109.985C161.258 109.65 161.324 109.238 161.541 108.672C161.758 108.103 161.984 107.743 162.239 107.493C162.464 107.271 162.698 107.152 162.89 107.055C162.911 107.043 162.933 107.032 162.955 107.021C163.156 106.917 163.338 106.812 163.539 106.587C163.746 106.356 163.986 105.982 164.259 105.325C164.535 104.657 164.619 104.291 164.63 104.076C164.639 103.897 164.602 103.821 164.544 103.703C164.542 103.699 164.54 103.695 164.538 103.691C164.503 103.62 164.454 103.519 164.423 103.391C164.391 103.259 164.382 103.113 164.402 102.941C164.44 102.61 164.589 102.164 164.908 101.491" fill="#099B0C"/>
</g>
<path d="M125.318 126.227L145.125 100.074L165.392 99.9363L150.37 132.397L125.318 126.227Z" fill="#C8E1FF"/>
<path d="M164.84 100.305L150.278 132.006L126.008 126.02L145.402 100.42H164.932L164.84 100.305ZM166.036 99.7063L145.056 99.8445L124.789 126.549L150.669 132.927L165.945 99.5913L166.036 99.7063Z" fill="#C8E1FF"/>
<path fill-rule="evenodd" clip-rule="evenodd" d="M187.142 80.0558C187.133 80.6454 187.285 81.0544 187.535 81.3247C187.785 81.5952 188.181 81.7787 188.768 81.8144C189.362 81.8505 190.106 81.7312 190.962 81.437C192.673 80.8496 194.705 79.6082 196.623 77.8312C198.541 76.054 199.935 74.1226 200.652 72.4611C201.011 71.6294 201.187 70.8962 201.196 70.3017C201.206 69.7122 201.055 69.303 200.804 69.0327C200.555 68.7624 200.159 68.5787 199.57 68.543C198.977 68.507 198.233 68.6264 197.376 68.9204C195.666 69.5078 193.635 70.7492 191.717 72.5264C189.798 74.3034 188.405 76.2348 187.687 77.8964C187.328 78.728 187.152 79.4614 187.142 80.0558ZM186.421 77.3487C187.229 75.4725 188.753 73.3891 190.778 71.5127C192.804 69.6363 194.996 68.2773 196.929 67.6139C197.893 67.2826 198.825 67.1139 199.653 67.1643C200.488 67.215 201.26 67.4923 201.817 68.0943C202.374 68.6963 202.591 69.4887 202.577 70.3245C202.563 71.1554 202.324 72.0717 201.919 73.0089C201.109 74.885 199.586 76.9685 197.56 78.8448C195.535 80.7212 193.342 82.0803 191.411 82.7435C190.445 83.0749 189.514 83.2435 188.685 83.1932C187.852 83.1425 187.079 82.8651 186.522 82.2631C185.966 81.6611 185.748 80.8689 185.762 80.033C185.775 79.202 186.016 78.2857 186.421 77.3487Z" fill="#099B0C"/>
<path d="M202.086 19.1538L204.823 17.1971L200.428 11.9942L202.89 6.65321L205.467 0L203.765 0.621581L199.37 4.53524L196.84 12.3856L202.086 19.1538Z" fill="#6A737D"/>
<path d="M202.753 19.4992L205.49 17.5424L201.923 11.9021L202.89 6.65321L206.639 1.91078L205.467 0L200.06 4.88056L198.197 13.1222L202.753 19.4992Z" fill="#959DA5"/>
<path d="M209.675 21.2489L215.702 15.7697L217.588 10.0144L217.865 4.28203L216.254 3.95972L213.77 4.97266L214.712 9.66906L213.379 14.2273L206.775 18.8777L209.675 21.2489Z" fill="#6A737D"/>
<path d="M202.475 18.4863L206.087 18.0719L204.638 10.751L208.319 6.28486L212.919 3.19999L212.873 0L209.814 0.230212L205.58 3.82157L201.531 10.2676L202.475 18.4863Z" fill="#B2BBC4"/>
<path d="M210.48 21.6633L216.507 16.2071L218.416 10.4517L217.865 4.28198L214.575 5.38701L215.518 10.1064L214.551 14.8488L208.57 19.5683L210.48 21.6633Z" fill="#959DA5"/>
<path d="M204.639 19.4072L208.227 18.9927L206.802 11.6719L209.723 6.51508L213.564 2.30216L212.874 0L207.744 4.74243L203.695 11.1884L204.639 19.4072Z" fill="#D1D5DA"/>
<path d="M215.773 21.9395L214.806 27.4877L211.908 26.4747C212.725 24.4394 213.214 22.2869 213.357 20.0979C214.206 20.6526 215.013 21.2681 215.773 21.9395Z" fill="#D1D5DA"/>
<path d="M195.895 16.6216C198.817 16.7596 202.429 16.6216 204.936 17.0589C203.829 18.988 203.227 21.1658 203.188 23.3898L194.906 20.5352L195.895 16.6216Z" fill="#959DA5"/>
<path d="M213.356 20.0977C213.115 22.2751 212.54 24.4025 211.654 26.4056L203.004 23.0214C203.095 20.8952 203.764 18.8339 204.936 17.0588C207.915 17.5069 210.777 18.5395 213.356 20.0977Z" fill="#B2BBC4"/>
<path d="M205.166 18.7854C209.632 20.1721 213.567 22.8959 216.439 26.5897C215.219 29.3293 213.793 32.0688 212.574 34.9465C207.738 31.4364 202.27 28.8958 196.47 27.4645C194.966 25.1899 193.111 23.1694 190.973 21.4789C191.784 20.5655 192.652 19.7044 193.571 18.9005C194.538 18.0487 198.954 16.9667 205.166 18.7854Z" fill="#6A737D"/>
<path d="M217.474 38.5612C216.438 37.7783 213.884 35.6144 212.551 34.7395C213.586 32.4374 215.242 28.7539 216.323 26.4749C216.776 27.0159 217.098 27.6538 217.267 28.3396C217.848 31.7171 217.917 35.1628 217.474 38.5612Z" fill="#586069"/>
<path d="M187.086 26.7739C180.852 36.927 178.286 48.9128 179.817 60.7306C183.452 65.3349 195.919 71.3896 203.304 68.0054C211.318 60.1447 216.338 49.7306 217.497 38.5609C210.09 32.1379 198.404 25.5077 187.086 26.7739Z" fill="#FFF5B1"/>
<path d="M197.99 68.9954C199.804 69.0571 201.61 68.7191 203.281 68.0054C211.294 60.1446 216.315 49.7306 217.475 38.5609C211.491 33.228 204.322 29.4001 196.564 27.3955C198.611 30.4804 203.189 38.2386 196.771 44.984C185.153 57.2083 179.333 67.7061 197.99 68.9954Z" fill="#FFDF5D"/>
<path d="M203.188 68.0054C211.201 60.1446 216.222 49.7306 217.382 38.5609C215.912 37.2762 214.377 36.0697 212.781 34.9465C208.649 45.6727 205.44 56.7325 203.188 68.0054Z" fill="#F9C513"/>
<path d="M191.042 21.5251C193.067 23.2328 194.868 25.1898 196.402 27.3495C193.347 26.6655 190.203 26.4712 187.086 26.774C188.28 24.934 189.602 23.1801 191.042 21.5251Z" fill="#959DA5"/>
<path fill-rule="evenodd" clip-rule="evenodd" d="M156.998 87.2541C156.527 87.1211 155.897 87.0722 155.267 87.1536C154.636 87.2351 154.122 87.4355 153.809 87.6519C153.634 87.7737 153.574 87.8568 153.553 87.8976C153.567 87.9144 153.594 87.9404 153.641 87.9734C153.745 88.0471 153.912 88.1269 154.143 88.1931C154.606 88.3254 155.23 88.3748 155.874 88.2928C156.517 88.2113 157.03 88.0107 157.337 87.796C157.518 87.6692 157.574 87.5845 157.59 87.5468C157.578 87.5325 157.553 87.5076 157.506 87.4741C157.401 87.4009 157.233 87.3209 156.998 87.2541ZM157.594 87.5343C157.594 87.5275 157.596 87.5242 157.596 87.5242C157.596 87.5242 157.596 87.5276 157.594 87.5343ZM153.544 87.9264C153.544 87.9264 153.543 87.9232 153.546 87.9167C153.546 87.9233 153.544 87.9264 153.544 87.9264ZM158.925 87.1781C158.821 86.8007 158.562 86.5287 158.299 86.3439C158.03 86.1552 157.707 86.0194 157.373 85.925C156.705 85.7358 155.886 85.681 155.09 85.7837C154.295 85.8865 153.556 86.1465 153.022 86.5171C152.535 86.8554 151.978 87.4812 152.217 88.2787C152.327 88.6465 152.581 88.9154 152.845 89.1021C153.112 89.2903 153.432 89.4263 153.764 89.5212C154.429 89.7112 155.243 89.7654 156.048 89.6631C156.854 89.5607 157.594 89.3008 158.128 88.9283C158.616 88.5864 159.155 87.9645 158.925 87.1781Z" fill="#099B0C"/>
<path fill-rule="evenodd" clip-rule="evenodd" d="M175.79 50.5552H175.813C176.324 50.5552 176.781 50.7749 177.158 51.0426C177.539 51.3137 177.895 51.6748 178.215 52.0541C178.839 52.7913 179.408 53.6917 179.836 54.3673L179.871 54.4216L178.705 55.1607L178.689 55.1376C178.25 54.4421 177.723 53.6098 177.162 52.9468C176.879 52.6124 176.608 52.3463 176.358 52.1685C176.118 51.9975 175.946 51.9426 175.834 51.9369C175.232 51.9884 174.511 52.3963 173.613 53.1627C172.914 53.7608 172.189 54.5024 171.403 55.3061C171.183 55.531 170.958 55.7606 170.728 55.9933C169.695 57.0395 168.567 58.1277 167.349 58.9822C166.131 59.8374 164.777 60.4898 163.288 60.6132C156.591 61.185 151.569 58.4377 147 55.9386C146.905 55.8865 146.81 55.8346 146.716 55.7829C142.027 53.2196 137.846 51.0347 132.55 52.3758C129.925 53.0356 127.733 54.8723 126.027 57.4175C124.322 59.9626 123.131 63.1742 122.5 66.4775C121.832 69.9558 122.152 72.6346 122.44 74.6987C122.454 74.8014 122.468 74.9033 122.483 75.0044C122.609 75.9011 122.726 76.7322 122.716 77.4389C122.705 78.2482 122.53 79.0252 121.919 79.6363L121.917 79.6383C120.645 80.9011 119.498 82.5894 119.258 84.6216C119.022 86.6275 119.654 89.1038 122.202 91.9977L121.167 92.911C118.424 89.7961 117.595 86.943 117.888 84.4597C118.177 82.0035 119.549 80.0435 120.944 78.6588C121.196 78.4065 121.328 78.0498 121.336 77.4203C121.344 76.8266 121.243 76.1073 121.113 75.1754C121.1 75.0823 121.086 74.9868 121.073 74.8893C120.779 72.7807 120.433 69.922 121.145 66.2175C121.802 62.7759 123.05 59.3806 124.881 56.6482C126.712 53.9159 129.157 51.8043 132.213 51.0365C138.098 49.5463 142.738 52.0347 147.377 54.5706C147.443 54.606 147.507 54.6414 147.571 54.6768C152.192 57.2034 156.893 59.7732 163.172 59.2368C164.328 59.1412 165.449 58.6281 166.557 57.8511C167.666 57.0733 168.72 56.0622 169.747 55.0221C169.962 54.8053 170.175 54.5864 170.389 54.3681C171.181 53.557 171.965 52.7547 172.717 52.1123C173.656 51.3099 174.683 50.6306 175.767 50.5567L175.79 50.5552Z" fill="#099B0C"/>
<path fill-rule="evenodd" clip-rule="evenodd" d="M201.621 35.9595C203.759 33.9532 206.854 32.3122 211.013 33.1888C214.478 33.9075 217.297 36.4105 219.235 39.5508C221.175 42.6958 222.282 46.5562 222.282 50.141C222.282 61.5674 212.651 83.7971 186.67 92.9448C176.32 96.5881 165.216 97.5409 154.396 95.714L154.627 94.3519C165.214 96.14 176.083 95.2074 186.213 91.6418C211.624 82.6947 220.903 60.9995 220.903 50.141C220.903 46.8194 219.87 43.2092 218.06 40.2765C216.248 37.3397 213.708 35.158 210.733 34.5411L210.73 34.5406C207.136 33.7831 204.481 35.1694 202.564 36.9672C200.98 38.4534 199.953 40.1647 199.34 41.1872C199.198 41.4222 199.08 41.6207 198.981 41.7718L197.868 43.4696L197.716 41.4455L197.715 41.4388L197.712 41.4085C197.71 41.3805 197.704 41.3374 197.698 41.2815C197.684 41.1696 197.661 41.008 197.625 40.8154C197.55 40.4257 197.423 39.9305 197.218 39.4695C197.01 39.0014 196.745 38.6264 196.428 38.4055C196.14 38.2047 195.753 38.0915 195.17 38.2404C195.021 38.2785 194.738 38.4591 194.396 38.934C194.071 39.3868 193.75 40.0272 193.492 40.8137C192.978 42.386 192.744 44.46 193.163 46.6044C193.58 48.7391 194.642 50.9448 196.727 52.8132C198.817 54.6845 201.969 56.2505 206.616 57.0341L206.387 58.3961C201.545 57.5796 198.133 55.9255 195.807 53.8422C193.478 51.7559 192.277 49.2724 191.808 46.8691C191.341 44.4753 191.6 42.1623 192.181 40.3841C192.472 39.4955 192.85 38.7199 193.276 38.1266C193.688 37.5554 194.212 37.0597 194.828 36.9021C195.776 36.6597 196.579 36.8285 197.216 37.271C197.823 37.6932 198.219 38.3223 198.48 38.9075C198.575 39.122 198.656 39.3385 198.724 39.5488C199.381 38.5164 200.344 37.1578 201.621 35.9595Z" fill="#099B0C"/>
<path fill-rule="evenodd" clip-rule="evenodd" d="M102.262 118.066C102.349 119.465 102.636 120.523 103.097 121.217C103.263 121.468 103.595 121.756 104.156 122.055C104.709 122.35 105.433 122.629 106.319 122.886C108.091 123.401 110.433 123.808 113.164 124.106C118.621 124.701 125.543 124.851 132.373 124.593C139.204 124.335 145.911 123.67 150.941 122.645C153.462 122.132 155.526 121.536 156.966 120.873C157.687 120.541 158.22 120.207 158.572 119.884C158.923 119.562 159.048 119.295 159.071 119.088C159.102 118.773 158.934 118.368 158.433 117.873C157.946 117.39 157.246 116.929 156.498 116.523C155.757 116.122 155.003 115.792 154.431 115.563C154.146 115.448 153.909 115.359 153.743 115.3C153.66 115.27 153.595 115.247 153.552 115.232L153.504 115.215L153.492 115.211L153.489 115.211L152.921 115.022L153.028 114.432C153.519 111.714 152.974 108.91 151.498 106.575C150.023 104.24 147.726 102.544 145.062 101.823L145.042 101.818L145.023 101.812C141.154 100.521 136.976 99.6674 131.781 100.711C126.572 101.759 120.27 104.73 112.202 111.226L111.337 110.149C112.983 108.824 114.561 107.64 116.077 106.584C115.24 100.156 115.25 95.224 115.257 91.7958C115.257 91.5702 115.258 91.3512 115.258 91.1388C115.259 89.3954 115.242 88.159 115.096 87.3403C115.023 86.9323 114.93 86.7047 114.847 86.5856C114.786 86.4994 114.739 86.4745 114.658 86.4644C114.553 86.4532 114.377 86.4779 114.11 86.6247C113.843 86.7716 113.528 87.0179 113.171 87.3769C112.458 88.0947 111.654 89.1835 110.81 90.5666C109.126 93.3261 107.346 97.1469 105.843 101.209C104.342 105.271 103.13 109.542 102.57 113.197C102.29 115.025 102.176 116.679 102.262 118.066ZM117.358 105.713C116.622 99.7142 116.631 95.0893 116.637 91.7939C116.638 91.5697 116.638 91.3518 116.638 91.14C116.639 89.4387 116.627 88.0637 116.454 87.0975C116.368 86.6131 116.23 86.1548 115.978 85.7941C115.703 85.4012 115.312 85.1517 114.82 85.0925L114.815 85.092C114.333 85.0376 113.866 85.183 113.445 85.4143C113.024 85.6464 112.604 85.9889 112.193 86.4026C111.37 87.2299 110.502 88.4216 109.632 89.8467C107.889 92.7037 106.072 96.611 104.549 100.73C103.026 104.849 101.784 109.213 101.206 112.987C100.917 114.874 100.79 116.633 100.884 118.152C100.978 119.658 101.293 120.996 101.947 121.982C102.293 122.503 102.85 122.924 103.507 123.274C104.172 123.629 104.994 123.94 105.934 124.213C107.815 124.759 110.245 125.177 113.014 125.479C118.557 126.084 125.55 126.233 132.426 125.973C139.299 125.713 146.086 125.044 151.218 123.999C153.777 123.478 155.961 122.856 157.543 122.128C158.333 121.764 159.006 121.359 159.504 120.902C160.003 120.444 160.373 119.889 160.444 119.233V119.229C160.539 118.29 160.012 117.492 159.404 116.89C158.781 116.274 157.952 115.741 157.156 115.309C156.353 114.874 155.547 114.522 154.945 114.281C154.771 114.211 154.613 114.15 154.477 114.098C154.857 111.224 154.22 108.298 152.665 105.837C151.008 103.215 148.431 101.31 145.441 100.495C141.447 99.1647 137.016 98.2505 131.51 99.3573C127.434 100.176 122.808 102.095 117.358 105.713Z" fill="#099B0C"/>
<path fill-rule="evenodd" clip-rule="evenodd" d="M131.393 143.359C132.423 145.733 133.115 148.018 133.116 149.889C133.189 156.339 126.503 164.118 112.971 164.258H112.945C103.14 163.98 93.4434 162.13 84.2247 158.778C84.1653 158.778 84.0863 158.778 83.9898 158.776C83.7628 158.772 83.4383 158.763 83.0445 158.741C82.2584 158.7 81.1884 158.611 80.0616 158.425C78.9396 158.238 77.7333 157.951 76.6876 157.498C75.6555 157.053 74.6851 156.406 74.169 155.446C73.1311 153.515 74.0938 151.294 75.8097 149.222C77.569 147.097 80.3418 144.844 83.5949 142.666L83.6143 142.653C87.6955 140.117 92.2851 138.511 97.0567 137.95L97.2178 139.322C92.6515 139.858 88.2592 141.394 84.3527 143.82C81.146 145.968 78.5049 148.133 76.8725 150.104C75.1954 152.129 74.7893 153.683 75.3847 154.791C75.6852 155.351 76.3195 155.835 77.2348 156.231C78.1366 156.621 79.2207 156.885 80.287 157.062C81.3485 157.237 82.3647 157.322 83.1179 157.362C83.4936 157.382 83.8019 157.391 84.0152 157.395C84.1218 157.397 84.2046 157.398 84.26 157.398H84.3222H84.3371H84.3403L84.4658 157.397L84.5832 157.439C93.6927 160.765 103.278 162.601 112.97 162.877C126.02 162.736 131.799 155.328 131.736 149.9V149.893C131.736 148.311 131.137 146.235 130.127 143.91C129.125 141.6 127.748 139.112 126.259 136.725C123.273 131.937 119.892 127.647 118.284 126.104L119.239 125.107C120.966 126.764 124.418 131.164 127.43 135.993C128.941 138.416 130.354 140.967 131.393 143.359Z" fill="#099B0C"/>
<path fill-rule="evenodd" clip-rule="evenodd" d="M157.618 22.5712C164.618 25.6518 171.427 30.554 175.252 37.6531C179.009 44.4853 180.44 50.5378 179.676 57.2954C178.916 64.015 175.992 71.3763 171.167 80.8383C171.166 80.8392 171.166 80.8401 171.166 80.8409L171.168 80.8359C171.167 80.8366 171.167 80.8374 171.167 80.8383C170.969 81.235 170.936 81.5197 170.93 81.9878C170.929 82.0747 170.929 82.1677 170.929 82.2677C170.93 82.7371 170.93 83.3604 170.821 84.2274C170.821 84.2271 170.821 84.2275 170.821 84.2274C170.386 87.6889 167.532 90.4949 163.541 92.5615C159.521 94.6431 154.185 96.0663 148.437 96.6926C136.975 97.9418 123.601 96.0452 115.528 89.5367L116.394 88.461C124.055 94.6374 136.988 96.551 148.288 95.3195C153.922 94.7055 159.081 93.3159 162.908 91.3348C166.762 89.3389 169.103 86.8326 169.452 84.0554C169.55 83.2821 169.55 82.7506 169.548 82.285C169.548 82.1781 169.548 82.0747 169.549 81.9726C169.556 81.3999 169.602 80.8791 169.933 80.2181L169.935 80.213C174.749 70.7757 177.575 63.5996 178.304 57.1401C179.03 50.7187 177.689 44.9506 174.041 38.3163L174.038 38.311C170.41 31.5756 163.899 26.844 157.063 23.8358C150.225 20.8268 143.151 19.5814 138.507 19.7498C133.822 19.9197 124.811 21.3412 116.648 25.9572C108.512 30.5586 101.24 38.3145 99.8769 51.2012C98.5027 64.1917 101.91 72.8742 105.618 78.2982C107.476 81.0161 109.416 82.9263 110.887 84.1538C111.622 84.7674 112.24 85.21 112.669 85.4971C112.884 85.6405 113.052 85.7451 113.164 85.8128C113.22 85.8465 113.262 85.8711 113.289 85.8867L113.318 85.9033L113.324 85.9065C113.324 85.9064 113.324 85.9065 112.993 86.5126C112.662 87.1187 112.662 87.1184 112.661 87.1181L112.656 87.1153L112.644 87.1085L112.602 87.0848C112.567 87.0645 112.516 87.0349 112.451 86.9958C112.322 86.9177 112.136 86.8018 111.903 86.6458C111.436 86.3341 110.779 85.8624 110.003 85.2145C108.451 83.9191 106.419 81.9171 104.478 79.0782C100.589 73.3885 97.0949 64.379 98.5043 51.0558C99.9246 37.629 107.537 29.5231 115.969 24.7547C124.375 20.001 133.619 18.5449 138.457 18.3694C143.338 18.1924 150.619 19.4909 157.618 22.5712Z" fill="#099B0C"/>
<path fill-rule="evenodd" clip-rule="evenodd" d="M119.368 98.7376C119.677 96.4068 120.195 93.9933 121.055 92.4219L122.265 93.0853C121.538 94.4147 121.043 96.6054 120.737 98.9192C120.433 101.208 120.326 103.519 120.326 105.024H118.945C118.945 103.467 119.056 101.094 119.368 98.7376Z" fill="#099B0C"/>
<path fill-rule="evenodd" clip-rule="evenodd" d="M131.27 126.23C131.27 126.23 131.27 126.23 131.645 125.651C132.022 125.072 132.022 125.072 132.022 125.072L132.026 125.074L132.033 125.079L132.06 125.097C132.083 125.113 132.118 125.136 132.162 125.166C132.251 125.226 132.378 125.314 132.539 125.429C132.86 125.659 133.316 125.996 133.859 126.43C134.944 127.298 136.384 128.558 137.797 130.127C140.603 133.241 143.413 137.694 142.937 142.775L142.936 142.794C142.597 145.542 141.378 148.108 139.463 150.106C137.549 152.106 135.041 153.432 132.311 153.889L132.083 152.527C134.52 152.12 136.758 150.935 138.467 149.152C140.173 147.37 141.26 145.084 141.564 142.636C141.981 138.143 139.492 134.071 136.772 131.052C135.421 129.553 134.042 128.344 132.998 127.509C132.477 127.093 132.041 126.77 131.738 126.553C131.586 126.445 131.466 126.363 131.387 126.309L131.297 126.248L131.275 126.234L131.27 126.23Z" fill="#099B0C"/>
<path fill-rule="evenodd" clip-rule="evenodd" d="M27.2793 67.1354C27.2789 67.1352 27.2787 67.135 27.6869 66.5781C28.0951 66.0213 28.0948 66.021 28.0946 66.0209C28.0942 66.0205 28.0943 66.0207 28.0946 66.0209L28.0996 66.0245L28.1325 66.0471C28.1638 66.0685 28.2139 66.1017 28.2826 66.1448C28.4201 66.2308 28.6321 66.3562 28.9176 66.5036C29.4883 66.7985 30.3524 67.182 31.5008 67.518C33.7948 68.1893 37.2359 68.6755 41.7608 67.8778L42.3366 67.7763L42.5314 68.3279C43.6627 71.5318 45.9406 76.3178 48.6422 80.7936C51.3587 85.2936 54.4357 89.3645 57.1354 91.2426L57.1377 91.2442C61.2383 94.1212 69.333 96.6341 77.7574 98.0756C86.1797 99.5168 94.7165 99.85 99.6719 98.5098L100.032 99.8432C94.7733 101.265 85.9877 100.885 77.5248 99.4371C69.0648 97.9896 60.7121 95.4383 56.3466 92.376C53.3875 90.3173 50.1847 86.0202 47.4608 81.5078C44.8688 77.2138 42.6493 72.6203 41.4277 69.3335C36.9596 70.0336 33.4979 69.5416 31.1134 68.8438C29.8725 68.4807 28.9263 68.0627 28.2844 67.731C27.9633 67.5651 27.7184 67.4209 27.5505 67.3156C27.4664 67.2631 27.4017 67.2203 27.3563 67.1894L27.303 67.1524L27.2872 67.1412L27.282 67.1374L27.2793 67.1354Z" fill="#099B0C"/>
<path fill-rule="evenodd" clip-rule="evenodd" d="M89.1119 120.157C89.8785 109.399 96.0407 101.151 111.845 86.1973L112.794 87.2009C96.9673 102.175 91.2129 110.09 90.4887 120.255C89.7711 130.328 97.304 138.524 104.841 142.491L104.198 143.713C96.4228 139.621 88.3388 131.009 89.1119 120.157Z" fill="#099B0C"/>
<path fill-rule="evenodd" clip-rule="evenodd" d="M60.5936 58.8176C58.3883 57.5417 55.9997 56.6131 53.5117 56.0645L53.8087 54.7156C56.4671 55.3018 59.0178 56.2989 61.3694 57.6712L61.4495 57.7179L61.5144 57.7841C63.3402 59.647 65.0307 62.1537 66.8079 64.8452C66.9408 65.0463 67.0742 65.2487 67.2082 65.452C68.8811 67.9893 70.6597 70.6868 72.7547 73.2683C77.2657 78.826 83.2041 83.7941 92.5249 85.2105C100.951 86.4494 106.081 86.6285 109.087 86.5042C110.589 86.4421 111.555 86.3044 112.133 86.1877C112.422 86.1295 112.612 86.0767 112.724 86.0417C112.78 86.0242 112.815 86.011 112.834 86.0041L112.848 85.9984L112.846 85.9993L112.843 86.0007L112.841 86.0018L112.839 86.0023C112.839 86.0023 112.838 86.0029 113.127 86.6302C113.415 87.2576 113.414 87.2582 113.414 87.2582L113.413 87.2589L113.409 87.2604L113.402 87.2637L113.383 87.272C113.368 87.2782 113.349 87.2857 113.326 87.2945C113.281 87.3119 113.218 87.334 113.137 87.3595C112.975 87.4104 112.737 87.4749 112.406 87.5418C111.744 87.6755 110.704 87.8198 109.144 87.8843C106.025 88.0132 100.804 87.8241 92.3224 86.5769L92.3192 86.5764C82.5471 85.0918 76.328 79.8615 71.6834 74.1391C69.5432 71.5022 67.7286 68.7498 66.0615 66.2209C65.9256 66.0147 65.7905 65.8099 65.6564 65.6068C63.8876 62.9281 62.2865 60.563 60.5936 58.8176Z" fill="#099B0C"/>
<path fill-rule="evenodd" clip-rule="evenodd" d="M56.0455 72.8849C56.6982 74.5729 58.0159 76.5567 59.8644 78.4065C61.7128 80.2562 63.695 81.575 65.3818 82.2282C66.2261 82.555 66.9651 82.7029 67.559 82.6898C68.1481 82.6768 68.5508 82.5087 68.811 82.2482C69.0714 81.9877 69.2393 81.5848 69.2524 80.9953C69.2655 80.401 69.1177 79.6614 68.791 78.8164C68.1385 77.1285 66.8206 75.1448 64.9721 73.295C63.1237 71.4451 61.1415 70.1263 59.4547 69.4733C58.6104 69.1464 57.8714 68.9984 57.2775 69.0115C56.6884 69.0245 56.2858 69.1927 56.0255 69.4532C55.7651 69.7136 55.5972 70.1165 55.5841 70.7061C55.571 71.3005 55.7188 72.0401 56.0455 72.8849ZM54.2043 70.6756C54.2227 69.8399 54.4698 69.0565 55.0495 68.4764C55.6292 67.8964 56.4118 67.6491 57.247 67.6305C58.0772 67.6121 59.0014 67.8167 59.9527 68.185C61.8574 68.9224 63.9964 70.3651 65.9481 72.3182C67.8998 74.2714 69.3414 76.412 70.0782 78.318C70.4463 79.2701 70.6506 80.1948 70.6324 81.0258C70.6138 81.8615 70.3667 82.6448 69.787 83.2249C69.2074 83.805 68.4247 84.0524 67.5896 84.0708C66.7593 84.0892 65.8351 83.8847 64.8838 83.5164C62.9791 82.779 60.8401 81.3362 58.8884 79.3832C56.9367 77.43 55.4951 75.2893 54.7583 73.3834C54.3902 72.4313 54.1859 71.5065 54.2043 70.6756Z" fill="#099B0C"/>
<path fill-rule="evenodd" clip-rule="evenodd" d="M80.1746 91.1017C81.6714 92.1003 83.8783 92.958 86.4401 93.4026C89.0019 93.8474 91.3686 93.7836 93.114 93.3479C93.9876 93.1299 94.6733 92.8266 95.1488 92.4755C95.6203 92.1272 95.8514 91.7597 95.914 91.3987C95.9766 91.0376 95.8826 90.6138 95.5558 90.1269C95.2263 89.636 94.6828 89.1194 93.9336 88.6196C92.4369 87.621 90.2299 86.7633 87.6681 86.3185C85.1063 85.8738 82.7396 85.9375 80.9942 86.3733C80.1206 86.5914 79.4349 86.8947 78.9594 87.2458C78.488 87.594 78.2568 87.9616 78.1942 88.3225C78.1316 88.6835 78.2255 89.1075 78.5524 89.5944C78.8819 90.0852 79.4254 90.6018 80.1746 91.1017ZM77.4128 90.3604C76.9495 89.6703 76.7021 88.8917 76.8415 88.0877C76.9808 87.2838 77.4758 86.634 78.1443 86.1403C78.809 85.6494 79.6775 85.2861 80.6618 85.0403C82.6327 84.5483 85.1978 84.4953 87.9027 84.9648C90.6076 85.4344 93.0051 86.3489 94.6952 87.4764C95.5394 88.0397 96.2348 88.6745 96.6955 89.3607C97.1587 90.0509 97.4061 90.8296 97.2667 91.6335C97.1273 92.4375 96.6325 93.0873 95.9639 93.581C95.2992 94.0718 94.4307 94.4352 93.4463 94.6809C91.4755 95.173 88.9103 95.226 86.2055 94.7563C83.5006 94.2868 81.1031 93.3724 79.413 92.2448C78.5688 91.6816 77.8734 91.0467 77.4128 90.3604Z" fill="#099B0C"/>
<path fill-rule="evenodd" clip-rule="evenodd" d="M179.394 84.9404C177.738 84.6715 175.537 84.7958 173.18 85.4105L173.162 85.4152L173.144 85.4189C172.222 85.6071 171.335 85.939 170.516 86.4024L169.837 85.1999C170.777 84.6685 171.793 84.287 172.85 84.0692C175.341 83.4217 177.734 83.2712 179.616 83.577C181.434 83.8724 183.061 84.6531 183.492 86.1381C183.713 86.8973 183.545 87.665 183.164 88.3596C182.786 89.0492 182.176 89.7071 181.425 90.3068C179.918 91.5077 177.726 92.563 175.228 93.2148C172.73 93.8662 170.331 94.0182 168.445 93.7116C166.626 93.4162 164.999 92.6356 164.568 91.1505L165.894 90.7654C166.084 91.4215 166.942 92.068 168.666 92.3482C170.322 92.6173 172.523 92.4929 174.88 91.8781C177.235 91.2637 179.241 90.2817 180.565 89.2264C181.227 88.698 181.692 88.1733 181.954 87.6946C182.214 87.2207 182.257 86.8345 182.166 86.5232C181.976 85.8672 181.119 85.2206 179.394 84.9404Z" fill="#099B0C"/>
<path fill-rule="evenodd" clip-rule="evenodd" d="M117.803 31.6579C116.004 31.9905 114.723 32.8173 114.102 34.2145L114.1 34.2189C112.376 38.0252 111.808 42.6343 112.138 46.9952C112.468 51.3623 113.693 55.3984 115.471 58.0685L114.323 58.8347C112.375 55.9106 111.104 51.6245 110.761 47.0996C110.418 42.5692 111 37.7174 112.841 33.6508C113.705 31.7113 115.465 30.6855 117.552 30.2995C119.627 29.9159 122.099 30.1437 124.583 30.7567C129.536 31.9788 134.806 34.8029 137.458 37.8797L136.413 38.782C134.005 35.9884 129.027 33.2759 124.253 32.0978C121.874 31.5108 119.615 31.3228 117.803 31.6579Z" fill="#099B0C"/>
<path fill-rule="evenodd" clip-rule="evenodd" d="M122.689 37.3418C122.725 37.2913 122.826 37.202 123.111 37.1504C123.4 37.0983 123.797 37.1015 124.295 37.1685C125.288 37.3022 126.52 37.6661 127.748 38.1084C128.968 38.5477 130.148 39.0516 131.025 39.447C131.464 39.6443 131.825 39.8139 132.076 39.934C132.202 39.9939 132.299 40.0415 132.365 40.0738L132.441 40.1106L132.459 40.1199L132.463 40.1221L132.773 39.5046C133.08 38.8866 133.08 38.8865 133.08 38.8865L133.072 38.8826L133.052 38.8722L132.972 38.833C132.902 38.7989 132.801 38.7495 132.671 38.6876C132.411 38.5638 132.041 38.3897 131.592 38.1874C130.696 37.7836 129.48 37.2644 128.215 36.8088C126.959 36.356 125.618 35.953 124.479 35.7996C123.912 35.7232 123.355 35.7029 122.866 35.791C122.378 35.8792 121.877 36.0924 121.555 36.5544L121.55 36.5612C117.977 41.8258 115.959 47.9913 115.727 54.3512L117.106 54.4018C117.329 48.3031 119.264 42.3907 122.689 37.3418Z" fill="#099B0C"/>
<path d="M175.62 38.6389L174.516 37.8102L176.541 35.1626C178.725 32.377 180.451 30.167 180.199 28.6706C180.122 28.3394 179.972 28.0292 179.762 27.7626C179.551 27.4959 179.283 27.2792 178.979 27.1282C174.056 23.8822 162.876 26.2533 162.691 26.2764L162.416 24.9182C162.898 24.9182 174.332 22.4318 179.738 25.9771C180.2 26.2333 180.601 26.5858 180.915 27.0108C181.229 27.4358 181.447 27.9234 181.555 28.4404C181.901 30.5354 180.106 32.8375 177.644 36.0145C176.978 36.8202 176.288 37.695 175.62 38.6389Z" fill="#099B0C"/>
<path fill-rule="evenodd" clip-rule="evenodd" d="M178.374 30.3371C176.246 31.6052 174.239 33.0675 172.382 34.7053L171.469 33.6685C173.392 31.9745 175.467 30.462 177.668 29.1504L178.374 30.3371Z" fill="#099B0C"/>
<path fill-rule="evenodd" clip-rule="evenodd" d="M104.966 70.4759C108.662 72.0179 112.582 74.0825 115.042 75.976L114.201 77.0708C111.875 75.2808 108.078 73.2706 104.435 71.7508C102.619 70.993 100.86 70.365 99.3622 69.9501C97.836 69.5275 96.6698 69.3525 95.996 69.4284C95.6172 69.4711 95.2756 69.1985 95.2329 68.8194C95.1902 68.4404 95.4627 68.0985 95.8414 68.0558C96.801 67.9476 98.1912 68.1927 99.7303 68.619C101.298 69.0531 103.113 69.7027 104.966 70.4759Z" fill="#099B0C"/>
<path fill-rule="evenodd" clip-rule="evenodd" d="M113.643 78.2716C113.643 78.2716 113.643 78.2718 113.471 78.9406L113.299 79.6095L113.293 79.6081L113.273 79.6028L113.186 79.5816C113.109 79.5628 112.994 79.5355 112.844 79.5016C112.544 79.4336 112.104 79.3394 111.553 79.2355C110.45 79.0277 108.904 78.7818 107.132 78.6302C103.566 78.3253 99.1801 78.4112 95.6545 79.8777C95.3024 80.0241 94.8986 79.8572 94.7523 79.505C94.606 79.1527 94.7727 78.7486 95.1246 78.6022C98.9603 77.0067 103.615 76.9432 107.25 77.2539C109.078 77.4103 110.671 77.6637 111.809 77.8782C112.378 77.9854 112.833 78.083 113.148 78.1543C113.306 78.1898 113.428 78.2189 113.511 78.2392L113.608 78.2628L113.633 78.2692L113.64 78.271L113.643 78.2716Z" fill="#099B0C"/>
<path d="M22.9942 68.8113C30.1026 67.8445 49.3113 61.3984 62.8149 51.7064C67.6689 48.2302 36.1527 10.9584 32.288 8.74829C24.6894 10.5443 17.6055 14.0653 11.584 19.0389C13.1713 32.0691 18.3013 65.7265 23.0862 69.0416" fill="#FEEB93"/>
<path d="M45.6073 62.1582C58.7306 55.8845 70.2969 46.7708 79.4698 35.4762C79.4698 35.4762 77.9521 32.3527 74.9535 28.2065C73.1176 28.3908 71.3742 29.5509 70.452 32.7594C67.9446 41.4846 58.2598 51.4759 48.4828 55.3435C33.261 61.3216 24.0204 58.3088 16.188 55.755C10.8696 54.0209 6.20038 52.4984 0.748608 54.1464C0.724257 54.1537 0.699982 54.1611 0.675781 54.1685C2.14308 63.5011 5.48751 70.4228 5.48751 70.4228C19.2844 70.4382 32.9381 67.6255 45.6073 62.1582Z" fill="#F9C513"/>
<path d="M79.3794 35.2929C70.1795 46.5379 58.6114 55.612 45.5008 61.8663L45.491 61.871C35.2955 66.3941 23.4106 68.7021 14.0898 69.8811C12.7935 70.045 11.5464 70.1872 10.3597 70.3105C8.739 70.387 7.11492 70.4245 5.48887 70.4227C5.48887 70.4227 5.41454 70.2689 5.2832 69.9762C7.74554 69.7944 10.7106 69.5196 13.9917 69.1046C23.2799 67.9298 35.0759 65.6342 45.1691 61.1574C58.2298 54.9261 69.7472 45.874 78.892 34.6528L79.1597 34.8713C79.2545 35.05 79.3278 35.1917 79.3794 35.2929Z" fill="#E3A92E"/>
<path d="M51.4814 9.70217C49.0442 13.9104 45.4019 17.3332 40.983 19.4991C37.9033 15.3154 35.0782 11.5415 32.8379 8.58453C39.8194 7.22744 46.0388 7.88179 51.4814 9.70217Z" fill="#FFF5B1"/>
<path d="M22.8829 68.9332C17.153 69.9288 11.3334 70.4299 5.48815 70.4234C5.48815 70.4234 -10.2368 37.8786 11.5487 18.7788C13.7502 30.6529 18.3357 54.0426 22.8829 68.9332Z" fill="#FFDF5D"/>
<path d="M32.8359 8.58586C63.5064 2.62163 79.4706 35.4769 79.4706 35.4769C74.5531 41.5317 68.9479 46.9598 62.7837 51.6595C55.1557 38.4835 40.5182 18.7248 32.8359 8.58586Z" fill="#FFDF5D"/>
<path d="M62.8176 51.6332C68.9683 46.9395 74.5618 41.5203 79.4702 35.4767C79.4702 35.4767 77.9624 32.3736 74.9833 28.2478C73.196 28.473 71.5135 29.6577 70.6135 32.8061C68.6315 38.5638 65.1633 43.6945 60.5605 47.678C61.2521 48.9756 62.0045 50.2529 62.7225 51.4717C62.7542 51.5257 62.786 51.5794 62.8176 51.6332Z" fill="#F2B549"/>
<path d="M43.5832 63.0062C36.9535 65.6382 30.0698 67.5839 23.0399 68.8118C22.0047 65.2896 20.8084 61.1917 19.7043 56.8637C18.5037 56.5048 17.3454 56.127 16.2159 55.7584C10.8959 54.0227 6.21355 52.4949 0.748563 54.1472C0.724227 54.1544 0.699968 54.1617 0.675781 54.1692C2.14309 63.5017 5.48749 70.4234 5.48749 70.4234C18.5525 70.4379 31.4894 67.9164 43.5832 63.0062Z" fill="#F2B549"/>
<path d="M62.7005 33.22C66.7953 39.5048 46.7584 52.3508 39.0979 55.735C31.4375 59.1192 12.8269 65.381 8.82411 54.0775C6.08658 46.2732 28.3549 42.2905 32.9558 39.5048C41.0073 34.4401 56.2592 23.1365 62.8615 33.3121" fill="#F2B549"/>
<path d="M60.9985 32.5987C64.8172 38.4691 45.5394 50.5785 38.224 53.8245C30.9086 57.0706 13.0802 63.0331 9.44544 52.6734C6.91495 45.4677 28.1021 41.4849 32.4498 38.8605C40.1564 34.049 54.8332 23.367 60.9294 32.7137" fill="#099B0C"/>
<path d="M51.5177 9.71428C48.7846 14.4218 43.1802 20.0439 31.6893 23.1596C19.1119 26.5698 11.2631 25.4614 6.81641 23.8539C10.294 19.2396 15.3611 15.0863 22.5796 11.8792C33.8694 6.86317 43.5311 7.03375 51.5177 9.71428Z" fill="#FDFAD2"/>
<path fill-rule="evenodd" clip-rule="evenodd" d="M50.6188 33.4834C50.1681 33.311 49.6727 33.3164 49.0873 33.6837C48.6053 33.9862 48.4638 34.564 48.6289 35.4946C48.7919 36.4132 49.2288 37.5141 49.686 38.6527L49.7168 38.7295C50.155 39.8208 50.6071 40.9463 50.7788 41.8902C50.867 42.375 50.889 42.8481 50.7748 43.2624C50.6562 43.6931 50.3935 44.046 49.9556 44.2669L49.9529 44.2682C49.657 44.4145 49.3617 44.4579 49.0729 44.41C48.7903 44.3633 48.5372 44.2332 48.3119 44.0702C47.9009 43.7728 47.518 43.3147 47.1633 42.8902C47.1394 42.8616 47.1156 42.8332 47.0919 42.8049C46.6993 42.3359 46.3313 41.9112 45.9367 41.6443C45.561 41.3903 45.1918 41.2991 44.7619 41.4527C43.8896 41.7645 42.5629 42.3915 41.1783 43.0457C40.8071 43.2211 40.4317 43.3985 40.0597 43.5724C39.1879 43.9799 38.3386 44.3656 37.6246 44.65C37.2675 44.7921 36.9386 44.9112 36.6542 44.9952C36.3768 45.077 36.1145 45.1339 35.9003 45.1339H35.8766C35.2335 45.091 34.735 44.7389 34.3225 44.3231C34.039 44.0376 33.7659 43.688 33.5053 43.3544C33.3965 43.2152 33.2899 43.0788 33.1856 42.9509C32.8137 42.4949 32.4497 42.1165 32.0291 41.8987C31.6276 41.6908 31.1502 41.6168 30.5126 41.8243C30.2451 41.9114 30.0775 42.0693 29.9679 42.2928C29.8515 42.5302 29.7942 42.8565 29.7956 43.2741C29.7983 44.1147 30.0341 45.1824 30.2901 46.3188L30.3055 46.3875C30.5513 47.479 30.8099 48.6264 30.8364 49.5914C30.863 50.5637 30.6566 51.5103 29.7817 51.9555C29.3885 52.1556 29.0095 52.227 28.6449 52.1744C28.2836 52.1224 27.9704 51.9536 27.6976 51.731C27.1704 51.3009 26.7299 50.6124 26.3245 49.9786L26.3177 49.968C25.8923 49.3029 25.4969 48.6856 25.0422 48.2818C24.8203 48.0848 24.5985 47.9526 24.3687 47.8897C24.1433 47.828 23.8895 47.8271 23.5892 47.9248C23.2499 48.0374 23.0605 48.2134 22.9504 48.4238C22.8342 48.6461 22.7873 48.9447 22.8106 49.3274C22.8568 50.0895 23.1675 51.0312 23.4956 52.0263L23.5146 52.0839C23.8377 53.0637 24.1787 54.107 24.1806 54.9468C24.1816 55.3759 24.0955 55.7965 23.8357 56.1364C23.5725 56.4809 23.1703 56.6914 22.6443 56.7772C21.955 56.9143 21.4138 56.7047 20.9946 56.3104C20.5957 55.9348 20.3125 55.3975 20.0791 54.8809C19.9824 54.6669 19.8956 54.4605 19.8121 54.262C19.6818 53.9522 19.5595 53.6614 19.4203 53.3908C19.1915 52.9466 18.9818 52.6991 18.7676 52.6134C18.1831 52.3794 17.1884 52.3854 15.7223 52.6864C14.2755 52.9833 12.437 53.5519 10.2119 54.3669L9.9668 53.6966C12.2045 52.877 14.0813 52.2946 15.5791 51.9872C17.0576 51.6838 18.2368 51.6323 19.0325 51.9508C19.5085 52.1413 19.8191 52.6075 20.0541 53.064C20.203 53.353 20.3474 53.6952 20.4879 54.0283C20.5696 54.2216 20.6498 54.4119 20.7289 54.5869C20.9584 55.0947 21.1943 55.5186 21.4832 55.7904C21.7507 56.0422 22.0641 56.1664 22.5102 56.0762L22.5242 56.0734C22.9265 56.0088 23.1445 55.866 23.2693 55.7028C23.3986 55.5336 23.4683 55.2898 23.4676 54.9484C23.4659 54.2472 23.1729 53.3249 22.8374 52.3076C22.8251 52.2702 22.8127 52.2328 22.8003 52.1952C22.4869 51.2459 22.1507 50.2275 22.0987 49.3706C22.0713 48.9195 22.119 48.4746 22.3186 48.0928C22.5244 47.6992 22.8718 47.4106 23.3659 47.247L23.3677 47.2463C23.7916 47.1084 24.1879 47.1003 24.5568 47.2013C24.9213 47.301 25.2376 47.5013 25.5153 47.7479C26.0459 48.2188 26.4868 48.9083 26.8869 49.5341C26.8975 49.5505 26.9079 49.567 26.9183 49.5833C27.3449 50.25 27.7249 50.8326 28.1481 51.1779C28.352 51.3441 28.5481 51.4394 28.7466 51.468C28.9417 51.4962 29.173 51.4647 29.4585 51.3194C29.9409 51.074 30.1485 50.5242 30.1234 49.611C30.0989 48.7163 29.8533 47.6254 29.5993 46.4976L29.5944 46.4756C29.3442 45.3646 29.0855 44.2121 29.0824 43.2764C29.0809 42.806 29.143 42.3552 29.3277 41.9783C29.5193 41.5878 29.8348 41.2946 30.292 41.1457C31.1037 40.8813 31.7793 40.9656 32.357 41.2649C32.9155 41.5542 33.3566 42.032 33.7381 42.4997C33.8649 42.6551 33.9838 42.8075 34.0989 42.9548C34.3461 43.2716 34.5757 43.5657 34.8284 43.8202C35.184 44.1784 35.5246 44.3903 35.9115 44.4202C36.0206 44.418 36.1991 44.3854 36.4525 44.3105C36.7077 44.2353 37.0141 44.125 37.3609 43.9869C38.0542 43.7108 38.8873 43.3327 39.7579 42.9257C40.1176 42.7577 40.4842 42.5843 40.8498 42.4115C42.2392 41.7548 43.6132 41.1054 44.5222 40.7806C45.2195 40.5313 45.8251 40.7077 46.3359 41.053C46.8276 41.3854 47.2576 41.8917 47.6385 42.3464C47.6542 42.3651 47.6696 42.3838 47.6851 42.4022C48.0643 42.8552 48.3936 43.2488 48.7297 43.4918C48.8986 43.6141 49.0497 43.6828 49.1893 43.7059C49.3221 43.7279 49.4664 43.7125 49.6358 43.629C49.8814 43.5047 50.0187 43.3219 50.0874 43.0728C50.1607 42.8068 50.1568 42.4556 50.0772 42.018C49.9186 41.1464 49.4891 40.0766 49.035 38.9457L49.0242 38.9188C48.5755 37.8013 48.1053 36.6259 47.9267 35.6194C47.7503 34.6248 47.8331 33.6285 48.7084 33.0791C49.4803 32.5948 50.2099 32.5628 50.8736 32.8169C51.5109 33.061 52.0589 33.5577 52.5259 34.0706C52.762 34.3301 52.9852 34.6025 53.1935 34.8609C53.2342 34.9113 53.2741 34.961 53.3135 35.01C53.4782 35.215 53.6322 35.4067 53.7812 35.58C53.9664 35.7954 54.1303 35.9661 54.278 36.0845C54.43 36.2061 54.53 36.2438 54.5887 36.2491C54.6877 36.2579 54.8389 36.2407 55.0483 36.1815C55.2535 36.1235 55.493 36.0314 55.7606 35.91C56.2957 35.6672 56.9157 35.3197 57.5521 34.9327C58.377 34.431 59.1985 33.8834 59.8885 33.4233C60.2736 33.1666 60.6178 32.937 60.8988 32.7581L61.2817 33.3602C61.0248 33.5238 60.6931 33.7448 60.3152 33.9966C59.614 34.4638 58.7544 35.0366 57.9225 35.5425C57.2766 35.9352 56.6283 36.2999 56.055 36.56C55.7682 36.6901 55.4934 36.7972 55.2422 36.8682C54.9955 36.9381 54.7483 36.9798 54.5253 36.9599C54.2618 36.9364 54.0283 36.7985 53.8324 36.6416C53.6325 36.4814 53.4343 36.2708 53.2407 36.0455C53.0832 35.8623 52.9197 35.6587 52.7543 35.453C52.7159 35.405 52.6772 35.357 52.6385 35.309C52.4315 35.0522 52.2196 34.794 51.9987 34.5513C51.5512 34.0598 51.0956 33.6659 50.6188 33.4834Z" fill="#F1F8FF"/>
<path fill-rule="evenodd" clip-rule="evenodd" d="M31.2528 9.06985C37.9548 7.28022 45.0297 7.45603 51.6347 9.57632C49.0977 13.8541 45.3951 17.3199 40.9607 19.5677C38.3062 15.5717 35.0285 12.0274 31.2528 9.06985ZM11.7222 18.9003C11.8372 20.1435 12.4813 23.8959 12.7574 25.1391C10.716 25.0289 8.7086 24.5695 6.82227 23.7809C8.33702 22.039 9.97452 20.4079 11.7222 18.9003Z" fill="#FFF5B1"/>
</g>
<defs>
<clipPath id="clip0_223_1487">
<rect width="261" height="193" fill="white"/>
</clipPath>
</defs>
</svg>
